<svg xmlns="http://www.w3.org/2000/svg" xmlns:xlink="http://www.w3.org/1999/xlink" viewBox="0 0 728 90" fill-rule="evenodd" stroke-linejoin="round" stroke-miterlimit="2" xmlns:v="https://vecta.io/nano"><style><![CDATA[.B{fill-rule:nonzero}]]></style><path d="M0 0h728.002v90H0z" fill="#db4a4a"/><g transform="matrix(.272843 -.001611 .001611 .272843 -2.382687 -28.014172)"><g fill="#fff"><path d="M326.923 129.338L50.974 215.06l61.615 198.344 275.949-85.722-23.478-76.439c-17.572-15.071-16.222-18.984-13.845-48.413l-24.292-73.493z"/><path d="M404.3 171.934l-118.375 36.773 24.755 79.689 118.375-36.773-24.755-79.689zm-4.525 46.101a21.99 21.99 0 0 1-13.911 27.79 21.99 21.99 0 0 1-27.791-13.91c-3.83-11.508 2.404-23.961 13.911-27.791s23.96 2.404 27.791 13.911z"/><path d="M404.299 171.934l-77.375-42.595-11.776 95.259 89.151-52.664zm-15.76 155.749l40.515-76.06-95.427 6.47 54.912 69.59z"/></g><g transform="matrix(.954635 -.297779 .297779 .954635 -67.1248 73.5695)" fill="#db4a4a"><path d="M102.198 250.538l14.1-1.4c.8 4.8 2.5 8.2 5.1 10.4 2.6 2.3 6.1 3.4 10.5 3.4 4.7 0 8.2-1 10.5-3 2.4-2 3.6-4.3 3.6-6.9 0-1.7-.5-3.1-1.5-4.3s-2.8-2.2-5.2-3.1c-1.7-.6-5.6-1.7-11.6-3.1-7.7-2-13.2-4.3-16.3-7.1-4.4-4-6.6-8.8-6.6-14.4 0-3.7 1-7.1 3.1-10.3 2.1-3.1 5-5.6 8.9-7.2 3.9-1.7 8.6-2.5 14.1-2.5 9 0 15.8 2 20.3 5.9 4.6 3.9 6.9 9.2 7.2 15.8l-14.5.6c-.6-3.7-1.9-6.3-4-7.9-2-1.6-5.1-2.4-9.1-2.4-4.2 0-7.5.8-9.9 2.5-1.5 1.2-2.3 2.6-2.3 4.5 0 1.7.7 3.1 2.2 4.3 1.8 1.6 6.2 3.2 13.2 4.8 7.1 1.7 12.3 3.4 15.6 5.2 3.4 1.7 6.1 4.2 8 7.2 1.9 3.1 2.8 6.9 2.8 11.5 0 4.1-1.1 7.9-3.4 11.5s-5.5 6.2-9.7 8c-4.1 1.7-9.3 2.6-15.5 2.6-9.1 0-16-2.1-20.9-6.3-4.8-4.2-7.7-10.3-8.7-18.3zm80.499-12.7l-12.4-2.3c1.4-5 3.8-8.7 7.2-11.1s8.5-3.6 15.2-3.6c6.2 0 10.7.7 13.7 2.1 3 1.5 5.1 3.3 6.3 5.6 1.3 2.2 1.9 6.3 1.9 12.2l-.2 16.1c0 4.5.2 7.9.7 10 .4 2.2 1.2 4.5 2.4 7h-13.5c-.4-.9-.8-2.3-1.3-4.1-.3-.8-.4-1.3-.5-1.6-2.4 2.3-4.9 4-7.6 5.2-2.6 1.1-5.5 1.7-8.5 1.7-5.3 0-9.5-1.5-12.6-4.4s-4.6-6.5-4.6-11c0-2.9.7-5.5 2.1-7.8s3.3-4 5.8-5.3c2.6-1.2 6.2-2.3 11-3.2 6.4-1.2 10.8-2.3 13.3-3.3v-1.4c0-2.6-.7-4.5-2-5.6-1.3-1.2-3.7-1.7-7.3-1.7-2.5 0-4.4.5-5.7 1.4-1.4 1-2.5 2.7-3.4 5.1zm18.4 11.1c-1.8.6-4.5 1.3-8.4 2.1-3.8.8-6.3 1.6-7.4 2.4-1.8 1.3-2.7 2.9-2.7 4.8s.7 3.6 2.1 5c1.5 1.4 3.3 2.1 5.5 2.1 2.5 0 4.8-.8 7.1-2.4 1.6-1.3 2.7-2.8 3.3-4.6.3-1.2.5-3.4.5-6.7v-2.7z" class="B"/><path d="M228.112 202.238h13.7v71.6h-13.7z"/><path d="M285.895 257.338l13.7 2.3c-1.8 5-4.6 8.8-8.3 11.4-3.8 2.7-8.6 4-14.3 4-9 0-15.7-3-20-8.9-3.4-4.7-5.1-10.6-5.1-17.8 0-8.6 2.2-15.4 6.7-20.2 4.5-4.9 10.2-7.3 17.1-7.3 7.7 0 13.8 2.5 18.2 7.6 4.5 5.1 6.6 12.9 6.4 23.4h-34.4c.1 4.1 1.2 7.3 3.4 9.5 2.1 2.3 4.7 3.4 7.9 3.4 2.1 0 3.9-.6 5.4-1.7 1.5-1.2 2.6-3.1 3.3-5.7zm.8-13.9c-.1-3.9-1.1-7-3.1-9-1.9-2.1-4.3-3.1-7.1-3.1-3 0-5.5 1.1-7.4 3.2-2 2.2-3 5.2-2.9 8.9h20.5zm-141.054 82.937l7.6 1.92c-1.6 6.24-4.48 10.96-8.64 14.24-4.08 3.28-9.12 4.88-15.12 4.88-6.16 0-11.2-1.2-15.04-3.76-3.84-2.48-6.8-6.16-8.8-10.88-2.08-4.8-3.04-9.92-3.04-15.36 0-6 1.12-11.2 3.44-15.6 2.24-4.48 5.52-7.84 9.68-10.16 4.24-2.32 8.88-3.44 13.92-3.44 5.68 0 10.56 1.44 14.4 4.4 3.92 2.88 6.64 6.96 8.16 12.24l-7.44 1.76c-1.28-4.16-3.28-7.2-5.76-9.04-2.56-1.92-5.68-2.88-9.52-2.88-4.4 0-8.08 1.04-11.04 3.2-2.96 2.08-5.04 4.88-6.24 8.48-1.2 3.52-1.84 7.2-1.84 10.96 0 4.88.72 9.12 2.16 12.8 1.44 3.6 3.6 6.32 6.64 8.08 2.96 1.84 6.24 2.72 9.68 2.72 4.24 0 7.84-1.2 10.8-3.68 2.96-2.4 4.96-6.08 6-10.88z" class="B"/><path d="M161.494 289.175h7.04v57.28h-7.04z"/><path d="M206.628 346.455v-6.08c-3.28 4.64-7.6 7.04-13.2 7.04-2.4 0-4.72-.48-6.8-1.44-2.16-.96-3.76-2.08-4.8-3.52-.96-1.44-1.68-3.2-2.16-5.2-.24-1.36-.4-3.6-.4-6.56v-25.76h7.04v23.04c0 3.68.16 6.16.4 7.44.48 1.84 1.36 3.28 2.8 4.32s3.2 1.6 5.36 1.6c2.08 0 4.08-.56 5.92-1.6 1.84-1.12 3.12-2.56 3.92-4.4.8-1.92 1.12-4.56 1.12-8.16v-22.24h7.04v41.52h-6.24zm23.772 0h-6.56v-57.28h7.04v20.48c2.96-3.76 6.8-5.6 11.36-5.6 2.56 0 5.04.48 7.28 1.52s4.16 2.48 5.6 4.32c1.52 1.84 2.64 4.16 3.52 6.72.8 2.64 1.2 5.44 1.2 8.48 0 7.12-1.76 12.56-5.28 16.48-3.52 3.84-7.68 5.84-12.64 5.84-4.88 0-8.72-2.08-11.52-6.16v5.2zm-.08-21.04c0 4.96.64 8.56 2 10.8 2.24 3.6 5.2 5.36 9.04 5.36 3.04 0 5.68-1.28 7.92-4 2.24-2.64 3.36-6.64 3.36-11.92 0-5.36-1.04-9.36-3.2-12-2.16-2.56-4.72-3.84-7.76-3.84-3.12 0-5.76 1.36-8 4s-3.36 6.56-3.36 11.6z" class="B"/><path d="M267.682 341.455h5v5h-5z"/><path d="M297.224 336.955l4.35.55c-.5 3-1.7 5.3-3.65 7s-4.3 2.55-7.15 2.55c-3.55 0-6.4-1.15-8.55-3.5-2.15-2.3-3.25-5.65-3.25-9.95 0-2.8.45-5.25 1.4-7.35.9-2.1 2.35-3.7 4.25-4.75s3.95-1.55 6.15-1.55c2.85 0 5.15.7 6.95 2.1 1.75 1.45 2.9 3.45 3.4 6.1l-4.25.65c-.4-1.75-1.15-3.05-2.15-3.95-1.05-.85-2.3-1.3-3.75-1.3-2.2 0-4 .8-5.4 2.4-1.4 1.55-2.1 4.1-2.1 7.5 0 3.5.7 6.05 2 7.6 1.35 1.6 3.1 2.35 5.25 2.35 1.7 0 3.15-.5 4.3-1.55s1.9-2.7 2.2-4.9zm25 6.3c-1.6 1.4-3.2 2.35-4.7 2.95a13.92 13.92 0 0 1-4.85.85c-2.85 0-5-.7-6.55-2.1s-2.3-3.15-2.3-5.35a7.34 7.34 0 0 1 .85-3.45c.6-1.05 1.35-1.9 2.3-2.55s2-1.1 3.15-1.45c.85-.2 2.15-.45 3.9-.65 3.55-.4 6.15-.9 7.85-1.5v-1.15c0-1.8-.4-3.05-1.2-3.8-1.15-1-2.8-1.5-5.05-1.5-2.05 0-3.55.4-4.55 1.1-1 .75-1.7 2-2.2 3.85l-4.3-.6c.4-1.8 1.05-3.3 1.95-4.45.9-1.1 2.2-2 3.85-2.6 1.7-.6 3.7-.9 5.9-.9s4 .25 5.4.75c1.4.55 2.4 1.2 3.05 2 .65.75 1.1 1.75 1.35 2.95.15.75.25 2.1.25 4.1v5.85l.25 7.75c.2 1.05.6 2.1 1.15 3.1h-4.6c-.45-.9-.75-2-.9-3.2zm-.35-9.8c-1.6.65-4 1.2-7.2 1.65-1.8.25-3.05.55-3.8.9-.75.3-1.35.8-1.75 1.4-.4.65-.6 1.35-.6 2.1a3.76 3.76 0 0 0 1.3 2.9c.9.8 2.2 1.2 3.9 1.2s3.2-.4 4.55-1.1c1.3-.75 2.25-1.75 2.9-3.05.45-1 .7-2.45.7-4.4v-1.6z" class="B"/></g></g><g transform="matrix(.963282 0 0 .963282 13.0612 1.61426)" fill="#fff" class="B"><path d="M135.008 38V27.092l-9.936-14.868h4.14L134.288 20l2.628 4.356 2.808-4.536 5.004-7.596h3.96l-10.26 14.868V38h-3.42z"/><use xlink:href="#B"/><use xlink:href="#C"/><path d="M201.548 38l-5.724-18.684h3.276l2.952 10.8 1.116 3.996.972-3.852 2.952-10.944h3.276l2.772 10.836.936 3.564 1.08-3.6 3.204-10.8h3.06L215.588 38h-3.276l-2.988-11.196-.72-3.168L204.824 38h-3.276z"/><use xlink:href="#B" x="76.043"/><use xlink:href="#D"/><path d="M256.099 38V12.224h3.168v14.688l7.488-7.596h4.104l-7.128 6.948L271.579 38h-3.888l-6.192-9.54-2.232 2.124V38h-3.168zm28.002 0V12.224h3.168v9.252c1.476-1.728 3.348-2.556 5.58-2.556 1.368 0 2.592.252 3.6.792 1.044.576 1.764 1.296 2.196 2.268s.648 2.376.648 4.176V38h-3.168V26.156c0-1.584-.324-2.736-1.008-3.456s-1.656-1.08-2.916-1.08c-.936 0-1.836.252-2.628.756-.828.468-1.44 1.116-1.8 1.98-.324.828-.504 1.98-.504 3.42V38h-3.168zm32.19-2.304c-1.152 1.008-2.304 1.692-3.384 2.124-1.08.396-2.232.612-3.492.612-2.052 0-3.6-.504-4.716-1.512s-1.656-2.268-1.656-3.852c0-.9.216-1.728.612-2.484.432-.756.972-1.368 1.656-1.836s1.44-.792 2.268-1.044c.612-.144 1.548-.324 2.808-.468 2.556-.288 4.428-.648 5.652-1.08v-.828c0-1.296-.288-2.196-.864-2.736-.828-.72-2.016-1.08-3.636-1.08-1.476 0-2.556.288-3.276.792-.72.54-1.224 1.44-1.584 2.772l-3.096-.432c.288-1.296.756-2.376 1.404-3.204.648-.792 1.584-1.44 2.772-1.872 1.224-.432 2.664-.648 4.248-.648s2.88.18 3.888.54c1.008.396 1.728.864 2.196 1.44.468.54.792 1.26.972 2.124.108.54.18 1.512.18 2.952v4.212l.18 5.58c.144.756.432 1.512.828 2.232h-3.312c-.324-.648-.54-1.44-.648-2.304zm-.252-7.056c-1.152.468-2.88.864-5.184 1.188-1.296.18-2.196.396-2.736.648a2.72 2.72 0 0 0-1.26 1.008c-.288.468-.432.972-.432 1.512 0 .828.324 1.548.936 2.088.648.576 1.584.864 2.808.864s2.304-.288 3.276-.792c.936-.54 1.62-1.26 2.088-2.196.324-.72.504-1.764.504-3.168V28.64z"/><use xlink:href="#D" x="80.033"/><path d="M348.229 38v-2.34c-1.188 1.836-2.916 2.772-5.22 2.772-1.476 0-2.844-.432-4.104-1.224-1.224-.828-2.196-1.98-2.88-3.456s-1.044-3.168-1.044-5.076c0-1.872.324-3.564.936-5.076s1.548-2.664 2.808-3.492c1.224-.792 2.628-1.188 4.14-1.188 1.152 0 2.16.216 3.024.72.864.468 1.584 1.08 2.124 1.836v-9.252h3.168V38h-2.952zm-9.972-9.324c0 2.412.504 4.176 1.512 5.364.972 1.188 2.196 1.764 3.564 1.764s2.556-.54 3.528-1.692c.936-1.116 1.44-2.844 1.44-5.148 0-2.556-.504-4.464-1.476-5.652-1.008-1.188-2.196-1.8-3.636-1.8-1.404 0-2.592.576-3.528 1.728s-1.404 2.988-1.404 5.436zM366.912 38V21.8h-2.808v-2.484h2.808v-1.98c0-1.26.108-2.16.324-2.772a4.23 4.23 0 0 1 1.62-2.016c.756-.504 1.836-.756 3.204-.756.9 0 1.908.108 2.988.324l-.504 2.736c-.648-.108-1.26-.144-1.836-.144-.972 0-1.656.18-2.052.612-.396.396-.612 1.152-.612 2.304v1.692h3.636V21.8h-3.636V38h-3.132z"/><use xlink:href="#B" x="228.111"/><use xlink:href="#D" x="152.068"/><use xlink:href="#E"/><use xlink:href="#B" x="288.123"/><use xlink:href="#C" x="288.123"/><use xlink:href="#D" x="232.102"/><path d="M498.203 38V19.316h2.844v2.628c.576-.9 1.332-1.656 2.304-2.196.972-.576 2.088-.828 3.348-.828 1.368 0 2.52.288 3.384.864.9.576 1.512 1.368 1.872 2.412 1.476-2.196 3.42-3.276 5.76-3.276 1.872 0 3.276.504 4.284 1.512 1.008 1.044 1.512 2.628 1.512 4.752V38h-3.168V26.228c0-1.26-.108-2.16-.288-2.736-.216-.54-.576-1.008-1.116-1.332s-1.188-.504-1.908-.504c-1.332 0-2.412.432-3.276 1.296-.864.9-1.296 2.268-1.296 4.212V38h-3.168V25.868c0-1.404-.252-2.448-.756-3.168-.54-.684-1.368-1.044-2.556-1.044a4.49 4.49 0 0 0-2.448.684c-.756.468-1.332 1.152-1.656 2.088-.324.9-.504 2.196-.504 3.888V38h-3.168z"/><use xlink:href="#B" x="380.144"/><path d="M548.213 38V19.316h2.844v2.664c1.368-2.052 3.348-3.06 5.94-3.06 1.116 0 2.16.18 3.096.612.936.396 1.656.936 2.124 1.584s.792 1.44.972 2.34c.144.576.18 1.584.18 3.06V38h-3.168V26.66c0-1.296-.108-2.268-.36-2.916-.252-.612-.684-1.152-1.296-1.512-.648-.396-1.368-.576-2.196-.576-1.368 0-2.52.432-3.492 1.296-1.008.828-1.476 2.448-1.476 4.86V38h-3.168zm32.801-6.012l3.276.396c-.54 1.908-1.476 3.384-2.88 4.464-1.404 1.044-3.168 1.584-5.328 1.584-2.736 0-4.896-.864-6.516-2.52-1.584-1.692-2.376-4.068-2.376-7.092 0-3.132.792-5.58 2.412-7.308s3.708-2.592 6.3-2.592c2.484 0 4.536.828 6.12 2.556 1.584 1.692 2.376 4.068 2.376 7.164l-.036.828H570.43c.144 2.052.72 3.636 1.764 4.716s2.34 1.62 3.888 1.62c1.152 0 2.16-.288 2.988-.9.792-.612 1.476-1.584 1.944-2.916zm-10.404-5.112h10.44c-.144-1.584-.54-2.736-1.188-3.528-1.008-1.224-2.34-1.836-3.924-1.836-1.476 0-2.7.504-3.672 1.476-1.008.972-1.548 2.268-1.656 3.888z"/><use xlink:href="#E" x="170.086"/><path d="M136.56 71.975l-5.13-21.48h4.44l3.24 14.76 3.93-14.76h5.16l3.78 15 3.27-15h4.38l-5.22 21.48h-4.59l-4.29-16.05-4.26 16.05h-4.71z"/><use xlink:href="#F"/><path d="M189.173 71.975l-4.92-15.57h4.02l2.91 10.2 2.67-10.2h3.99l2.58 10.2 2.97-10.2h4.05l-4.98 15.57h-3.96l-2.67-9.99-2.64 9.99h-4.02z"/><use xlink:href="#G"/><use xlink:href="#H"/><path d="M239.478 71.975v-21.48h4.11v11.4l4.83-5.49h5.07l-5.34 5.7 5.7 9.87h-4.44l-3.9-6.99-1.92 2.01v4.98h-4.11z"/><use xlink:href="#I"/><use xlink:href="#J"/><use xlink:href="#H" x="71.704"/><path d="M325.582 71.975h-3.81v-2.28c-.63.87-1.38 1.56-2.25 1.98s-1.74.66-2.61.66c-1.8 0-3.33-.72-4.59-2.16-1.29-1.44-1.92-3.45-1.92-6.03 0-2.64.63-4.65 1.86-6.03 1.23-1.35 2.82-2.04 4.71-2.04 1.74 0 3.24.72 4.5 2.16v-7.74h4.11v21.48zm-10.98-8.13c0 1.68.24 2.88.69 3.63.66 1.05 1.59 1.59 2.79 1.59.93 0 1.74-.39 2.4-1.2.69-.81 1.02-2.01 1.02-3.6 0-1.8-.33-3.09-.99-3.87-.63-.78-1.47-1.17-2.46-1.17s-1.8.39-2.46 1.17c-.66.75-.99 1.92-.99 3.45z"/><use xlink:href="#K"/><use xlink:href="#G" x="138.354"/><use xlink:href="#I" x="109.995"/><use xlink:href="#F" x="231.694"/><path d="M409.652 50.495h4.11v21.48h-4.11zm8.215 5.91h3.84v2.31c.48-.78 1.17-1.44 2.01-1.92.87-.48 1.8-.72 2.82-.72 1.83 0 3.36.69 4.62 2.13 1.26 1.41 1.89 3.36 1.89 5.91 0 2.58-.63 4.62-1.92 6.06-1.26 1.44-2.79 2.16-4.62 2.16-.84 0-1.62-.18-2.31-.51-.72-.36-1.44-.93-2.22-1.77v7.83h-4.11v-21.48zm4.08 7.53c0 1.74.33 3.03 1.02 3.87s1.56 1.26 2.55 1.26c.96 0 1.74-.39 2.37-1.14.66-.78.96-2.04.96-3.78 0-1.65-.33-2.85-.99-3.63-.63-.81-1.44-1.2-2.43-1.2s-1.83.39-2.49 1.17-.99 1.92-.99 3.45zm20.75-7.53h4.38l3.72 11.07 3.63-11.07h4.26l-6.48 17.7c-.36.9-.69 1.59-1.02 2.07a4.71 4.71 0 0 1-1.14 1.17c-.42.3-.93.54-1.56.69-.63.18-1.32.24-2.1.24s-1.56-.06-2.34-.24l-.36-3.21c.66.12 1.23.18 1.74.18.96 0 1.68-.27 2.13-.84s.81-1.29 1.05-2.16l-5.91-15.6z"/><use xlink:href="#G" x="251.704"/><path d="M489.887 71.975v-2.34c-.57.84-1.32 1.5-2.22 1.98-.93.48-1.92.72-2.94.72-1.05 0-1.98-.24-2.82-.69-.81-.48-1.41-1.11-1.8-1.95-.36-.81-.54-1.98-.54-3.42v-9.87h4.11v7.17c0 2.19.09 3.51.24 4.02.15.48.42.87.81 1.17.42.27.9.42 1.53.42a3.26 3.26 0 0 0 1.89-.57c.57-.39.93-.87 1.14-1.44s.3-1.98.3-4.2v-6.57h4.14v15.57h-3.84zm14.96-4.44l4.14-.63c.18.81.54 1.41 1.08 1.83s1.29.63 2.25.63c1.05 0 1.86-.21 2.4-.6.36-.27.54-.63.54-1.11 0-.3-.09-.57-.3-.75-.18-.21-.66-.39-1.38-.57-3.3-.72-5.4-1.38-6.3-1.98-1.23-.84-1.86-2.01-1.86-3.51 0-1.35.54-2.49 1.62-3.39 1.05-.93 2.7-1.38 4.95-1.38 2.13 0 3.69.33 4.74 1.02 1.02.72 1.74 1.74 2.13 3.09l-3.87.72c-.18-.6-.48-1.08-.96-1.41-.45-.3-1.11-.48-1.98-.48-1.08 0-1.86.15-2.31.45-.33.24-.48.51-.48.84 0 .3.12.54.42.75.36.27 1.65.66 3.84 1.17 2.19.48 3.72 1.11 4.59 1.83.84.72 1.29 1.74 1.29 3.06 0 1.41-.6 2.64-1.8 3.66-1.17 1.05-2.94 1.56-5.28 1.56-2.13 0-3.81-.45-5.04-1.29-1.23-.87-2.04-2.04-2.43-3.51z"/><use xlink:href="#J" x="240.03"/><path d="M543.946 71.975l-6.27-15.57h4.32l2.94 7.95.84 2.64.45-1.32.42-1.32 2.97-7.95h4.23l-6.18 15.57h-3.72z"/><use xlink:href="#F" x="395.098"/><path d="M581.39 54.305v-3.81h4.11v3.81h-4.11zm0 17.67v-15.57h4.11v15.57h-4.11z"/><use xlink:href="#K" x="251.733"/></g><path d="M718.1 26.864a7.71 7.71 0 0 0-7.705-7.704h-86.41a7.71 7.71 0 0 0-7.705 7.704v36.273a7.71 7.71 0 0 0 7.705 7.704h86.41a7.71 7.71 0 0 0 7.705-7.704V26.864z" fill="#c13a3a"/><g fill="#fff" class="B"><path d="M634.107 46.603l1.421.359c-.299 1.167-.838 2.049-1.615 2.662-.763.613-1.705.912-2.827.912-1.152 0-2.094-.224-2.812-.703-.718-.464-1.271-1.152-1.645-2.034-.389-.897-.568-1.855-.568-2.872 0-1.122.209-2.094.643-2.916a4.36 4.36 0 0 1 1.81-1.899c.793-.434 1.66-.643 2.602-.643 1.062 0 1.974.269 2.692.823.733.538 1.241 1.301 1.526 2.288l-1.391.329c-.239-.778-.613-1.346-1.077-1.69-.479-.359-1.062-.538-1.78-.538-.823 0-1.511.194-2.064.598a3.06 3.06 0 0 0-1.167 1.585c-.224.658-.344 1.346-.344 2.049 0 .912.135 1.705.404 2.393.269.673.673 1.182 1.241 1.511a3.38 3.38 0 0 0 1.81.509c.793 0 1.466-.224 2.019-.688.553-.449.927-1.137 1.122-2.034zm2.994 3.754V39.649h1.316v3.844a2.91 2.91 0 0 1 2.318-1.062c.568 0 1.077.105 1.496.329.434.239.733.538.912.942s.269.987.269 1.735v4.921h-1.316v-4.921c0-.658-.135-1.137-.419-1.436s-.688-.449-1.211-.449a2.02 2.02 0 0 0-1.092.314c-.344.194-.598.464-.748.823-.135.344-.209.823-.209 1.421v4.248h-1.316zm13.628-2.497l1.361.165c-.224.793-.613 1.406-1.197 1.855-.583.434-1.316.658-2.214.658-1.137 0-2.034-.359-2.707-1.047-.658-.703-.987-1.69-.987-2.946 0-1.301.329-2.318 1.002-3.036s1.541-1.077 2.617-1.077c1.032 0 1.885.344 2.543 1.062.658.703.987 1.69.987 2.976l-.015.344h-5.788c.06.853.299 1.511.733 1.959s.972.673 1.615.673c.479 0 .897-.12 1.241-.374.329-.254.613-.658.808-1.211zm-4.322-2.124h4.337c-.06-.658-.224-1.137-.494-1.466-.419-.509-.972-.763-1.63-.763-.613 0-1.122.209-1.526.613-.419.404-.643.942-.688 1.615zm12.385 1.78l1.301.165c-.15.897-.509 1.585-1.092 2.094s-1.286.763-2.139.763c-1.062 0-1.914-.344-2.558-1.047-.643-.688-.972-1.69-.972-2.976 0-.838.135-1.57.419-2.199.269-.628.703-1.107 1.271-1.421s1.182-.464 1.84-.464c.853 0 1.541.209 2.079.628.523.434.867 1.032 1.017 1.825l-1.271.194c-.12-.523-.344-.912-.643-1.182-.314-.254-.688-.389-1.122-.389-.658 0-1.197.239-1.615.718-.419.464-.628 1.226-.628 2.243 0 1.047.209 1.81.598 2.273.404.479.927.703 1.57.703.509 0 .942-.15 1.286-.464s.568-.808.658-1.466zm2.423 2.841V39.649h1.316v6.102l3.111-3.156h1.705l-2.961 2.887 3.26 4.876h-1.615l-2.573-3.963-.927.882v3.081h-1.316zm12.038-10.708h1.421v10.709h-1.421z"/><use xlink:href="#L"/><path d="M685.046 45.138c0-1.765.479-3.156 1.436-4.173.957-1.002 2.184-1.511 3.694-1.511.987 0 1.885.239 2.677.718a4.54 4.54 0 0 1 1.81 1.974c.419.838.628 1.795.628 2.872 0 1.092-.224 2.064-.658 2.916s-1.062 1.511-1.87 1.944a5.32 5.32 0 0 1-2.587.658c-1.017 0-1.914-.239-2.707-.733-.793-.479-1.391-1.152-1.81-1.989a6.11 6.11 0 0 1-.613-2.677zm1.466.03c0 1.286.344 2.303 1.047 3.051a3.42 3.42 0 0 0 2.602 1.107c1.062 0 1.944-.374 2.632-1.122s1.032-1.81 1.032-3.186c0-.882-.15-1.645-.434-2.288-.299-.643-.733-1.152-1.301-1.511a3.47 3.47 0 0 0-1.899-.538 3.61 3.61 0 0 0-2.587 1.032c-.733.688-1.092 1.84-1.092 3.455zm15.521 5.189V49.22c-.613.867-1.421 1.316-2.468 1.316a3.03 3.03 0 0 1-1.271-.269c-.404-.179-.703-.389-.897-.658a3.02 3.02 0 0 1-.404-.972c-.045-.254-.075-.673-.075-1.226v-4.816h1.316v4.307c0 .688.03 1.152.075 1.391.09.344.254.613.523.808s.598.299 1.002.299a2.24 2.24 0 0 0 1.107-.299c.344-.209.583-.479.733-.823.15-.359.209-.853.209-1.526v-4.158h1.316v7.762h-1.167z"/><use xlink:href="#L" x="28.262"/></g><defs ><path id="B" d="M146.859 28.676c0-3.456.972-6.012 2.88-7.704 1.62-1.368 3.564-2.052 5.868-2.052 2.592 0 4.68.828 6.3 2.52s2.448 3.996 2.448 6.948c0 2.412-.36 4.32-1.08 5.688s-1.764 2.448-3.132 3.204c-1.404.756-2.88 1.152-4.536 1.152-2.592 0-4.716-.864-6.336-2.52-1.584-1.692-2.412-4.104-2.412-7.236zm3.276 0c0 2.376.504 4.176 1.548 5.364s2.34 1.764 3.924 1.764 2.88-.576 3.924-1.764c1.044-1.224 1.584-3.024 1.584-5.472 0-2.304-.54-4.068-1.584-5.256s-2.34-1.8-3.924-1.8-2.88.612-3.924 1.8-1.548 2.952-1.548 5.364z"/><path id="C" d="M180.308 38v-2.736c-1.476 2.088-3.42 3.168-5.94 3.168-1.08 0-2.124-.216-3.06-.648-.972-.432-1.692-.936-2.16-1.584-.432-.648-.756-1.44-.972-2.34-.108-.612-.18-1.62-.18-2.952V19.316h3.168v10.368c0 1.656.072 2.772.18 3.348.216.828.612 1.476 1.26 1.944s1.44.72 2.412.72c.936 0 1.836-.252 2.664-.72.828-.504 1.404-1.152 1.764-1.98.36-.864.504-2.052.504-3.672V19.316h3.168V38h-2.808z"/><path id="D" d="M244.075 38V19.316h2.844v2.844c.72-1.332 1.404-2.196 2.016-2.628.612-.396 1.296-.612 2.016-.612 1.08 0 2.16.324 3.276 1.008l-1.116 2.952c-.756-.468-1.548-.684-2.304-.684-.684 0-1.332.18-1.872.612-.54.396-.936.972-1.188 1.728-.324 1.116-.504 2.34-.504 3.708V38h-3.168z"/><path id="E" d="M418.026 45.2l-.36-2.988c.684.18 1.296.288 1.836.288.684 0 1.26-.108 1.656-.36a2.47 2.47 0 0 0 1.044-.972c.216-.324.54-1.116.972-2.376.072-.144.144-.432.288-.756l-7.092-18.72h3.42l3.888 10.836c.504 1.368.936 2.808 1.332 4.32.36-1.476.792-2.88 1.296-4.248l3.996-10.908h3.168l-7.092 19.008-1.764 4.212c-.576 1.044-1.224 1.836-1.944 2.304-.72.504-1.584.72-2.592.72-.612 0-1.296-.108-2.052-.36z"/><path id="F" d="M170.273 67.025l4.11.69c-.54 1.5-1.38 2.64-2.49 3.42-1.14.81-2.58 1.2-4.29 1.2-2.7 0-4.71-.9-6-2.67-1.02-1.41-1.53-3.18-1.53-5.34 0-2.58.66-4.62 2.01-6.06 1.35-1.47 3.06-2.19 5.13-2.19 2.31 0 4.14.75 5.46 2.28 1.35 1.53 1.98 3.87 1.92 7.02h-10.32c.03 1.23.36 2.19 1.02 2.85.63.69 1.41 1.02 2.37 1.02.63 0 1.17-.18 1.62-.51.45-.36.78-.93.99-1.71zm.24-4.17c-.03-1.17-.33-2.1-.93-2.7-.57-.63-1.29-.93-2.13-.93-.9 0-1.65.33-2.22.96-.6.66-.9 1.56-.87 2.67h6.15z"/><path id="G" d="M208.668 63.965c0-1.35.33-2.67 1.02-3.96.66-1.29 1.62-2.25 2.85-2.94 1.23-.66 2.61-.99 4.14-.99 2.37 0 4.29.75 5.79 2.28s2.25 3.45 2.25 5.79c0 2.37-.75 4.32-2.28 5.85-1.5 1.56-3.42 2.34-5.73 2.34a8.9 8.9 0 0 1-4.08-.99c-1.29-.63-2.28-1.56-2.94-2.82-.69-1.23-1.02-2.76-1.02-4.56zm4.23.24c0 1.53.36 2.73 1.08 3.54.75.81 1.65 1.23 2.73 1.23 1.05 0 1.95-.42 2.7-1.23.72-.81 1.08-2.01 1.08-3.57 0-1.53-.36-2.7-1.08-3.51-.75-.84-1.65-1.23-2.7-1.23a3.48 3.48 0 0 0-2.73 1.23c-.72.81-1.08 1.98-1.08 3.54z"/><path id="H" d="M231.883 71.975h-4.11v-15.57h3.81v2.22c.66-1.05 1.26-1.74 1.77-2.07.54-.33 1.11-.48 1.8-.48.93 0 1.83.24 2.7.78l-1.29 3.57c-.69-.45-1.32-.66-1.92-.66-.57 0-1.08.15-1.47.48-.39.3-.72.87-.93 1.71-.24.84-.36 2.58-.36 5.22v4.8z"/><path id="I" d="M268.727 50.495v7.89c1.35-1.53 2.94-2.31 4.77-2.31.96 0 1.8.18 2.58.51.75.36 1.32.81 1.71 1.35a4.52 4.52 0 0 1 .78 1.83c.15.66.21 1.68.21 3.09v9.12h-4.11v-8.22c0-1.62-.06-2.67-.24-3.09a1.9 1.9 0 0 0-.81-1.05c-.39-.27-.9-.39-1.5-.39-.66 0-1.29.15-1.83.48s-.93.84-1.17 1.5c-.24.69-.39 1.68-.39 2.97v7.8h-4.11v-21.48h4.11z"/><path id="J" d="M286.032 61.175l-3.72-.69c.42-1.5 1.14-2.61 2.16-3.33s2.55-1.08 4.56-1.08c1.86 0 3.21.21 4.11.63.9.45 1.53.99 1.89 1.68.39.66.57 1.89.57 3.66l-.06 4.83c0 1.35.06 2.37.21 3 .12.66.36 1.35.72 2.1h-4.05c-.12-.27-.24-.69-.39-1.23-.09-.24-.12-.39-.15-.48-.72.69-1.47 1.2-2.28 1.56-.78.33-1.65.51-2.55.51-1.59 0-2.85-.45-3.78-1.32s-1.38-1.95-1.38-3.3c0-.87.21-1.65.63-2.34s.99-1.2 1.74-1.59c.78-.36 1.86-.69 3.3-.96 1.92-.36 3.24-.69 3.99-.99v-.42c0-.78-.21-1.35-.6-1.68-.39-.36-1.11-.51-2.19-.51-.75 0-1.32.15-1.71.42-.42.3-.75.81-1.02 1.53zm5.52 3.33c-.54.18-1.35.39-2.52.63-1.14.24-1.89.48-2.22.72-.54.39-.81.87-.81 1.44s.21 1.08.63 1.5c.45.42.99.63 1.65.63.75 0 1.44-.24 2.13-.72.48-.39.81-.84.99-1.38.09-.36.15-1.02.15-2.01v-.81z"/><path id="K" d="M345.132 56.405v3.3h-2.82v6.27l.09 2.22a.69.69 0 0 0 .36.51c.18.15.42.21.69.21.39 0 .93-.12 1.65-.39l.36 3.18c-.96.42-2.04.63-3.27.63-.72 0-1.41-.12-1.98-.39-.6-.24-1.05-.57-1.32-.96s-.48-.93-.57-1.59c-.09-.48-.15-1.47-.15-2.91v-6.78h-1.89v-3.3h1.89v-3.09l4.14-2.4v5.49h2.82z"/><path id="L" d="M679.876 49.176l.194 1.167c-.374.075-.703.12-1.002.12-.479 0-.853-.075-1.107-.224a1.25 1.25 0 0 1-.553-.598c-.105-.254-.165-.763-.165-1.555v-4.457h-.957v-1.032h.957v-1.914l1.301-.793v2.707h1.331v1.032h-1.331v4.532c0 .374.03.613.075.718a.47.47 0 0 0 .224.254c.105.075.254.105.449.105a3.19 3.19 0 0 0 .583-.06z"/></defs></svg>