<svg xmlns="http://www.w3.org/2000/svg" viewBox="0 0 48 48"  fill-rule="evenodd" stroke-linejoin="round" stroke-miterlimit="2" xmlns:v="https://vecta.io/nano"><g transform="matrix(.12315 -.000727 .000727 .12315 -5.7274 -9.25958)" fill="#db4a4a"><path d="M326.923 129.338L50.974 215.06l61.615 198.344 275.949-85.722-23.478-76.439c-17.572-15.071-16.222-18.984-13.845-48.413l-24.292-73.493z"/><path d="M404.3 171.934l-118.375 36.773 24.755 79.689 118.375-36.773-24.755-79.689zm-4.525 46.101a21.99 21.99 0 0 1-13.911 27.79 21.99 21.99 0 0 1-27.791-13.91c-3.83-11.508 2.404-23.961 13.911-27.791s23.96 2.404 27.791 13.911z"/><path d="M404.299 171.934l-77.375-42.595-11.776 95.259 89.151-52.664zm-15.76 155.749l40.515-76.06-95.427 6.47 54.912 69.59z"/></g><defs /></svg>