<svg xmlns="http://www.w3.org/2000/svg" viewBox="0 0 1788 388" fill-rule="nonzero" stroke-linejoin="round" stroke-miterlimit="2"  xmlns:v="https://vecta.io/nano"><path d="M.5 4.354h399.959v352.921H.5z" fill="#33b14a"/><path d="M400.963 3.854H0v353.921h400.963V3.854zm-1.004 1.004v351.913H1V4.858h398.959z" fill="#a1d097"/><path d="M298.509 155.079h-77.563V77.517h-47.958v77.563H95.425v47.958h77.563V280.6h47.958v-77.563h77.563v-47.958z" fill="#fff"/><path d="M629.392 117.063h-60.129a4.17 4.17 0 0 0-4.167 4.167v18.958a4.17 4.17 0 0 0 4.167 4.167h32.667v47.525c-6.013 2.183-15.9 3.458-27.25 3.458-41.488 0-66.254-25.983-66.254-69.504 0-42.704 26.529-69.233 69.233-69.233 15.546 0 27.804 2.371 38.575 7.458 1.092.517 2.35.529 3.458.046s1.946-1.429 2.3-2.579l5.958-19.233a4.16 4.16 0 0 0-2.167-4.983c-8.417-4.063-25.929-8.813-47.583-8.813-61.621 0-103.025 39.554-103.025 98.421 0 28.704 9.742 54.579 26.75 70.996 17.804 16.996 41.071 25.258 71.129 25.258 28.813 0 51.55-7.883 57.833-10.3a4.17 4.17 0 0 0 2.671-3.888V121.23a4.17 4.17 0 0 0-4.167-4.167zm91.167-7.48a4.18 4.18 0 0 0 1.558-3.25V83.854a4.17 4.17 0 0 0-3.65-4.138l-.588-.071-6.429-.5c-13.496 0-25.754 6.863-33.817 18.271l-.483-11.567a4.17 4.17 0 0 0-4.163-3.996h-20.854c-1.154 0-2.254.479-3.042 1.321s-1.192 1.975-1.113 3.121c.738 11.146 1.071 23.671 1.071 40.621v90.192a4.17 4.17 0 0 0 4.167 4.167h23.833a4.17 4.17 0 0 0 4.167-4.167v-69.879c0-3.742.279-7.538.746-10.358 3.017-16.6 13.696-26.913 27.858-26.913 3.038 0 5.233 0 7.225.442a4.15 4.15 0 0 0 3.513-.817zm60.225-5.041c8.279 0 14.933 2.5 19.775 7.433 6.75 6.875 8.546 16.717 8.979 22.692H749.1c3.033-14.796 12.696-30.125 31.683-30.125zm1.896-25.396c-38.654 0-65.65 30.671-65.65 74.588 0 42.838 26.938 70.521 68.629 70.521 21.629 0 36.733-4.767 45.588-8.763a4.17 4.17 0 0 0 2.325-4.825l-4.333-17.063c-.3-1.188-1.108-2.179-2.208-2.721a4.16 4.16 0 0 0-3.5-.071c-7.263 3.175-17.054 6.421-34.625 6.421-11.583 0-37.992-3.725-40.596-37.167h87.721a4.17 4.17 0 0 0 4.088-3.346c.608-3.038.896-6.825.896-11.929 0-30.283-15.279-65.646-58.333-65.646zm124.033 25.396c8.283 0 14.933 2.5 19.775 7.433 6.758 6.871 8.55 16.717 8.983 22.692H875.03c3.033-14.796 12.7-30.125 31.683-30.125zm1.896-25.396c-38.65 0-65.646 30.671-65.646 74.588 0 42.838 26.933 70.521 68.625 70.521 21.642 0 36.738-4.767 45.592-8.763 1.842-.833 2.821-2.867 2.321-4.825l-4.333-17.063a4.17 4.17 0 0 0-2.204-2.721 4.16 4.16 0 0 0-3.5-.071c-7.263 3.175-17.054 6.421-34.621 6.421-11.588 0-37.992-3.725-40.6-37.167h87.725a4.17 4.17 0 0 0 4.088-3.354c.608-3.054.892-6.842.892-11.921 0-30.283-15.279-65.646-58.338-65.646zm138.396 0c-18.242 0-31.946 8.108-40.4 17.346l-.671-10.729a4.17 4.17 0 0 0-4.158-3.908h-21.129a4.17 4.17 0 0 0-3.054 1.333 4.19 4.19 0 0 0-1.1 3.146c.75 10.038 1.071 20.554 1.071 35.167v95.608c0 2.3 1.863 4.167 4.167 4.167h23.838c2.304 0 4.167-1.867 4.167-4.167v-78.817c0-3.75.5-7.279 1.417-9.813 3.496-10.7 13.508-21.5 27.996-21.5 21.629 0 26.171 18.796 26.171 34.563v75.567c0 2.3 1.858 4.167 4.167 4.167h23.833c2.304 0 4.167-1.867 4.167-4.167v-78.004c0-44.254-27.192-59.958-50.479-59.958zm215.046 37.917h-60.129c-2.304 0-4.167 1.867-4.167 4.167v18.958c0 2.3 1.863 4.167 4.167 4.167h32.671v47.525c-6.017 2.183-15.908 3.458-27.254 3.458-41.483 0-66.254-25.983-66.254-69.504 0-42.704 26.529-69.233 69.233-69.233 15.546 0 27.8 2.371 38.575 7.458 1.088.521 2.354.533 3.454.046a4.16 4.16 0 0 0 2.304-2.579l5.963-19.233a4.16 4.16 0 0 0-2.171-4.983c-8.417-4.063-25.933-8.813-47.583-8.813-61.625 0-103.025 39.554-103.025 98.421 0 28.708 9.746 54.579 26.75 70.996 17.804 16.996 41.071 25.258 71.129 25.258 28.813 0 51.55-7.883 57.833-10.3a4.17 4.17 0 0 0 2.671-3.888V121.23a4.17 4.17 0 0 0-4.167-4.167zm74.742-12.521c8.279 0 14.933 2.5 19.775 7.433 6.754 6.871 8.55 16.717 8.979 22.692h-60.438c3.033-14.796 12.696-30.125 31.683-30.125zm1.896-25.396c-38.65 0-65.65 30.671-65.65 74.588 0 42.838 26.938 70.521 68.629 70.521 21.638 0 36.733-4.767 45.588-8.763 1.846-.833 2.825-2.867 2.325-4.825l-4.333-17.063a4.18 4.18 0 0 0-2.204-2.721 4.16 4.16 0 0 0-3.5-.071c-7.263 3.175-17.054 6.421-34.625 6.421-11.583 0-37.988-3.725-40.596-37.167h87.725c1.983 0 3.7-1.404 4.083-3.354.613-3.054.896-6.842.896-11.921 0-30.283-15.279-65.646-58.338-65.646zm123.5 25.396c8.279 0 14.933 2.5 19.775 7.433 6.754 6.871 8.55 16.717 8.979 22.692h-60.442c3.038-14.796 12.7-30.125 31.688-30.125zm1.896-25.396c-38.65 0-65.65 30.671-65.65 74.588 0 42.838 26.938 70.521 68.629 70.521 21.638 0 36.733-4.767 45.588-8.763 1.846-.833 2.825-2.867 2.325-4.825l-4.333-17.063c-.304-1.188-1.108-2.179-2.208-2.721s-2.383-.563-3.496-.071c-7.267 3.175-17.054 6.421-34.625 6.421-11.583 0-37.988-3.725-40.596-37.167h87.725c1.983 0 3.696-1.404 4.083-3.354.613-3.054.896-6.842.896-11.921 0-30.283-15.279-65.646-58.338-65.646zm233.096 58.254c-17.283-6.858-22.017-10.858-22.017-18.608 0-8.329 6.871-13.708 17.5-13.708 11.467 0 20.325 4.517 24.588 7.208a4.15 4.15 0 0 0 3.633.4 4.17 4.17 0 0 0 2.55-2.621l5.688-17.333c.588-1.792-.1-3.758-1.679-4.788-8.433-5.513-21.233-8.804-34.238-8.804-28.621 0-49.396 17.925-49.396 42.625 0 18.129 12.679 31.929 37.638 41.008 18.096 6.783 21.404 12.033 21.404 19.933 0 9.742-7.663 15.333-21.021 15.333-11.083 0-22.854-4.646-29.567-8.629-1.096-.642-2.425-.758-3.608-.308a4.18 4.18 0 0 0-2.488 2.633l-3.563 11.213-46.888-62.738 47.992-51.35c1.138-1.213 1.442-2.983.779-4.504a4.16 4.16 0 0 0-3.821-2.508h-28.438a4.17 4.17 0 0 0-3.167 1.458l-38.779 45.288a240.91 240.91 0 0 0-4.538 5.688V24.808c0-2.3-1.863-4.167-4.167-4.167h-23.563c-2.304 0-4.167 1.867-4.167 4.167v192.3c0 2.3 1.863 4.167 4.167 4.167h23.563c2.304 0 4.167-1.867 4.167-4.167v-47.696l7.65-8.5 41.946 58.621c.783 1.092 2.046 1.742 3.388 1.742h29.25a4.16 4.16 0 0 0 3.721-2.3c.008-.021.008-.042.021-.054 8.933 3.421 19.242 5.333 29.567 5.333 32.146 0 52.917-17.158 52.917-43.708 0-20.275-11.442-33.592-37.025-43.146zm63.391-88.612h-2.588V42.03c.575-.142 1.579-.283 3.021-.283 3.446 0 5.029 1.433 5.029 3.592 0 2.442-2.446 3.45-5.463 3.45zm6.467 1.725v-.288c2.733-.863 4.892-2.733 4.892-5.608 0-2.3-1.013-4.025-2.446-5.029-1.583-1.15-3.596-1.871-8.05-1.871-3.879 0-6.9.433-9.058.721v23.575h5.463v-9.342h2.588c3.021 0 4.454 1.146 4.888 3.592.721 2.875 1.15 4.888 1.871 5.75h5.75c-.433-.863-1.004-2.158-1.725-5.75-.721-3.163-1.867-5.033-4.171-5.75zm-5.317 18.112c-10.496 0-18.404-8.338-18.404-18.833 0-10.35 7.908-18.829 18.117-18.829 10.496 0 18.254 8.479 18.254 18.975 0 10.35-7.758 18.829-17.967 18.688zm0-42.408c-13.658 0-24.442 10.35-24.442 23.575s10.783 23.721 24.296 23.721 24.15-10.492 24.15-23.721-10.638-23.575-24.004-23.575zm-665.084 246.971c.25-.875.375-1.625.375-2.125 0-.625-.125-1-.5-1.25-.25-.25-.75-.5-1.5-.625s-1.625-.125-2.875-.125l-2.875.125c-.75.125-1.25.25-1.625.375s-.625.375-.75.75c-.125.25-.25.625-.375 1l-17.375 66.125h-.125l-18.125-66c-.125-.5-.25-.875-.5-1.125-.125-.375-.5-.625-.875-.75s-1-.25-1.625-.375-1.625-.125-2.75-.125l-2.875.125-1.75.375c-.5.125-.75.375-.875.75-.25.25-.375.625-.5 1.125l-16.875 66-17.75-66.125c-.125-.5-.25-.875-.375-1.125s-.375-.5-.75-.75c-.375-.125-1-.25-1.75-.25-.75-.125-1.75-.125-3-.125l-3.125.125c-.75.125-1.25.25-1.625.5-.375.375-.5.75-.5 1.25s.125 1.25.375 2.25l20.875 72.875c.125.625.375 1.125.625 1.375.375.375.75.625 1.375.875.5.125 1.25.25 2.125.375 1 .125 2.125.125 3.375.125l3.25-.125 2-.375c.5-.25 1-.5 1.25-.875.25-.25.5-.75.625-1.375l15.25-59.625h.125l16.5 59.625c.25.625.375 1.125.75 1.375.25.375.625.625 1.25.875.5.125 1.25.25 2.125.375s2 .125 3.25.125l3.125-.125 2-.375c.625-.25 1.125-.5 1.375-.875.375-.25.625-.75.75-1.375l20.875-72.875zm58.625 68.875c-.125-.625-.25-1-.375-1.375-.25-.375-.5-.625-.75-.75s-.625-.25-.875-.25h-31.375v-28.25h26.5c.375 0 .625-.125.875-.25.375-.125.5-.375.75-.625a10.14 10.14 0 0 0 .375-1.375c.125-.5.125-1.125.125-1.875s0-1.375-.125-2l-.375-1.375c-.25-.25-.375-.5-.75-.75-.25-.125-.5-.25-.875-.25h-26.5v-24.75h30.875c.375 0 .625-.125.875-.25.375-.125.5-.375.75-.75a10.14 10.14 0 0 0 .375-1.375c.125-.5.125-1.125.125-1.875 0-.875 0-1.5-.125-2.125l-.375-1.375c-.25-.375-.375-.625-.75-.75-.25-.125-.5-.25-.875-.25h-37.5c-.875 0-1.75.375-2.625 1s-1.25 1.625-1.25 3.25v70.5c0 1.625.375 2.625 1.25 3.25s1.75 1 2.625 1h38c.25 0 .625-.125.875-.25s.5-.375.75-.75a20.51 20.51 0 0 0 .375-1.375c.125-.625.125-1.25.125-2s0-1.5-.125-2zm68-23.625c-.75-2.25-1.875-4.25-3.25-5.875-1.5-1.75-3.125-3.125-5-4.125-1.875-1.125-3.875-1.875-6-2.25 1.75-.75 3.25-1.625 4.5-2.75 1.375-1.25 2.5-2.5 3.375-3.875.875-1.5 1.5-3.125 2-4.75.375-1.75.625-3.5.625-5.375 0-3.125-.5-6-1.5-8.5s-2.625-4.5-4.625-6.25-4.5-3-7.5-3.875-6.875-1.375-11.625-1.375h-18c-.875 0-1.75.375-2.625 1s-1.25 1.625-1.25 3.25v70.5c0 1.625.375 2.625 1.25 3.25s1.75 1 2.625 1h20.75a50.3 50.3 0 0 0 7.875-.625c2.25-.5 4.5-1.125 6.5-2 2-.75 3.75-1.875 5.375-3.125s3-2.75 4.125-4.375 2-3.5 2.625-5.625 1-4.375 1-6.875c0-2.75-.375-5.125-1.25-7.375zm-15.25-23c-.5 1.625-1.375 3-2.375 4.125-1.125 1.25-2.5 2.25-4.25 2.875-1.625.75-3.75 1.125-6.5 1.125h-12v-25.625h10.875c3 0 5.375.25 7.25.875 1.875.5 3.375 1.375 4.5 2.5 1.125 1 1.875 2.375 2.5 3.875.5 1.625.75 3.25.75 5.25 0 1.75-.25 3.375-.75 5zm4.375 36.75c-.75 1.75-1.875 3.125-3.25 4.25s-2.875 2-4.75 2.5c-1.75.625-3.875.875-6.25.875h-15.25v-27.875h12.625c3.25 0 6 .375 8.125 1 2.25.625 4 1.5 5.5 2.75 1.375 1.25 2.5 2.75 3.25 4.5s1.125 3.875 1.125 6.25c0 2.25-.375 4.125-1.125 5.75zm113.126-61.125c0-.375-.125-.625-.25-.875s-.5-.5-.875-.625-.875-.25-1.625-.375c-.625-.125-1.5-.125-2.5-.125l-2.5.125c-.75.125-1.25.25-1.625.375s-.75.375-.875.625-.25.5-.25.875v31.625h-35.875v-31.625c0-.375-.125-.625-.25-.875s-.5-.5-.875-.625-.875-.25-1.625-.375c-.625-.125-1.5-.125-2.5-.125l-2.5.125c-.75.125-1.25.25-1.625.375s-.75.375-.875.625-.25.5-.25.875v75.75c0 .375.125.625.25.875s.5.5.875.625.875.25 1.625.375 1.5.125 2.5.125 1.875 0 2.5-.125c.75-.125 1.25-.25 1.625-.375s.75-.375.875-.625.25-.5.25-.875v-35h35.875v35c0 .375.125.625.25.875s.5.5.875.625.875.25 1.625.375c.625.125 1.5.125 2.5.125s1.875 0 2.5-.125c.75-.125 1.25-.25 1.625-.375s.75-.375.875-.625.25-.5.25-.875v-75.75zm85 20c-1.375-5-3.5-9.125-6.375-12.5s-6.5-5.875-10.75-7.625c-4.375-1.75-9.375-2.625-15.25-2.625-6 0-11.25 1-15.75 2.875-4.625 2-8.375 4.75-11.375 8.25-3 3.625-5.25 7.875-6.75 13-1.5 5-2.25 10.75-2.25 16.875 0 6.5.75 12.375 2.125 17.375s3.5 9.125 6.25 12.5c2.875 3.375 6.375 6 10.75 7.75s9.5 2.625 15.375 2.625c6.125 0 11.375-1 15.875-2.875 4.5-2 8.25-4.75 11.25-8.375 3-3.5 5.25-7.875 6.75-13s2.25-10.875 2.25-17.25-.75-12.125-2.125-17zm-10.25 29.875c-.75 3.75-2.125 7.125-4 10-2 2.875-4.5 5.25-7.625 7-3.125 1.625-7 2.5-11.5 2.5-4.625 0-8.5-.75-11.625-2.375-3-1.5-5.5-3.75-7.375-6.5-1.75-2.875-3.125-6.25-3.875-10.125s-1.125-8.125-1.125-12.75c0-4.25.375-8.25 1.25-12 .875-3.875 2.25-7.125 4.125-10 2-2.875 4.5-5.125 7.5-6.875 3.125-1.625 7-2.5 11.5-2.5s8.375.75 11.5 2.375c3 1.625 5.5 3.75 7.375 6.625 1.875 2.75 3.125 6.125 3.875 10 .875 3.875 1.25 8 1.25 12.5 0 4.25-.375 8.25-1.25 12.125zm70-2.875c-1.125-2.25-2.5-4.25-4.125-5.875-1.75-1.75-3.625-3.25-5.75-4.5l-6.625-3.375-6.625-3-5.75-3.375c-1.75-1.25-3.125-2.625-4.125-4.25s-1.5-3.5-1.5-5.625c0-1.5.25-3 .75-4.25.625-1.375 1.375-2.5 2.375-3.5 1.125-1 2.5-1.75 4.125-2.375s3.5-.875 5.75-.875 4.375.25 6.375.875c1.875.625 3.5 1.25 4.875 2 1.375.625 2.5 1.375 3.5 1.875 1 .625 1.625.875 2.125.875.25 0 .5-.125.75-.25.25-.25.375-.5.5-.875s.25-.875.25-1.5c.125-.5.125-1.125.125-1.875v-1.875c-.125-.5-.125-1-.25-1.25-.125-.375-.125-.75-.25-.875-.125-.25-.375-.625-.75-1-.5-.375-1.25-.875-2.5-1.5-1.125-.625-2.625-1.125-4.125-1.75-1.625-.5-3.25-.875-5-1.125-1.75-.375-3.5-.5-5.25-.5a33.78 33.78 0 0 0-9.625 1.375c-2.875.875-5.5 2.25-7.625 4s-3.75 3.875-5 6.5c-1.125 2.625-1.75 5.5-1.75 8.75s.5 6 1.5 8.375c1.125 2.25 2.5 4.25 4.125 6 1.625 1.625 3.5 3.125 5.625 4.375l6.625 3.5 6.5 3c2.125 1 4 2.125 5.75 3.375 1.625 1.125 3 2.5 4 4.125s1.5 3.5 1.5 5.75c0 2-.375 3.875-1.125 5.5s-1.75 3-3.125 4.125-3 2-4.875 2.625-4 .875-6.25.875c-3 0-5.625-.375-8-1.125-2.25-.625-4.25-1.375-5.875-2.25-1.625-.75-3-1.5-4-2.25-1-.625-1.875-1-2.375-1-.375 0-.625.125-.875.25a1.28 1.28 0 0 0-.625.75c-.125.375-.25.875-.375 1.375-.125.625-.125 1.375-.125 2.25 0 1.25.125 2.25.375 3 .125.75.5 1.375 1 1.875s1.25 1.125 2.5 1.75c1.25.75 2.75 1.375 4.5 2 1.75.75 3.75 1.25 6 1.75 2.25.375 4.75.625 7.375.625 3.75 0 7.375-.5 10.625-1.5s6.125-2.5 8.5-4.625c2.5-2 4.375-4.375 5.75-7.25s2-6.25 2-9.875c0-3.125-.5-5.875-1.5-8.25zm64.966-46.125l-.375-1.5c-.25-.375-.375-.625-.75-.75-.25-.125-.5-.25-.875-.25h-54.75c-.375 0-.625.125-.875.25-.375.125-.5.375-.75.75-.125.375-.25.875-.375 1.5-.125.5-.125 1.25-.125 2s0 1.375.125 2a10.14 10.14 0 0 0 .375 1.375c.25.375.375.625.75.75.25.125.5.25.875.25h22.125v68.5c0 .375.125.625.25.875s.5.5.875.625.875.25 1.625.375 1.5.125 2.5.125 1.875 0 2.5-.125c.75-.125 1.25-.25 1.625-.375s.75-.375.875-.625.25-.5.25-.875v-68.5h22.125c.375 0 .625-.125.875-.25.375-.125.5-.375.75-.75.125-.375.25-.75.375-1.375s.125-1.25.125-2 0-1.5-.125-2zm22-.875c0-.375-.125-.625-.25-.875s-.5-.5-.875-.625-.875-.25-1.625-.375c-.625-.125-1.5-.125-2.5-.125-.875 0-1.75 0-2.375.125-.75.125-1.25.25-1.625.375-.5.125-.75.375-1 .625-.125.25-.25.5-.25.875v75.75c0 .375.125.625.25.875s.5.5.875.625.875.25 1.625.375 1.5.125 2.5.125 1.875 0 2.5-.125c.75-.125 1.25-.25 1.625-.375s.75-.375.875-.625.25-.5.25-.875v-75.75zm80.75.25c0-.375-.125-.625-.25-.875s-.5-.375-.875-.625c-.375-.125-.875-.25-1.625-.375-.625-.125-1.5-.125-2.375-.125l-2.625.125-1.625.375c-.375.25-.75.375-.875.625s-.25.5-.25.875v52.75l.125 10.125-5.75-11.5s-2-4-3.125-6l-3.25-6.125-18.625-34.75a22.88 22.88 0 0 0-1.875-3.125c-.625-.875-1.25-1.5-1.875-2-.75-.375-1.375-.75-2.25-1-.875-.125-1.875-.25-3-.25h-5.25c-1 0-2.125.375-3 1-.875.75-1.375 1.875-1.375 3.5v72.875c0 .375.125.625.25.875s.5.5.875.625.875.25 1.5.375c.75.125 1.625.125 2.625.125s1.875 0 2.5-.125 1.25-.25 1.625-.375.75-.375.875-.625.25-.5.25-.875v-56.75l-.25-9h.125l3.625 7.5 3.75 7.25 24.125 45 2.375 3.875s1.5 1.75 2.25 2.375c.75.5 1.5 1 2.25 1.125.875.25 1.875.375 2.875.375h3.5c.625 0 1.125-.125 1.625-.25.625-.125 1.125-.375 1.5-.75.5-.375.875-.875 1.125-1.5.25-.5.375-1.25.375-2v-72.75zm80.001 5.875c-.25-.625-.625-1.25-1.125-1.75-.5-.625-1.5-1.25-2.875-2.125-1.5-.875-3.125-1.625-5.25-2.375l-7-1.875c-2.625-.5-5.5-.75-8.5-.75-5.875 0-11.25 1-16 3-4.875 2-9 4.75-12.375 8.25-3.5 3.625-6.125 8-8 13.125-1.875 5-2.875 10.75-2.875 17 0 6 .875 11.5 2.625 16.375s4.25 9 7.625 12.625c3.25 3.5 7.375 6.125 12.125 8 4.875 1.875 10.25 2.875 16.375 2.875a51.92 51.92 0 0 0 6.125-.375c2-.25 4-.625 6-1.125s3.875-1 5.75-1.75c1.875-.625 3.5-1.375 4.625-1.875 1.125-.625 2-1.375 2.375-2.125s.5-1.625.5-2.75v-30.125c0-.75-.125-1.375-.25-1.875-.25-.625-.5-1.125-.875-1.375-.375-.375-.75-.625-1.25-.75s-.875-.25-1.375-.25h-25c-.375 0-.75.125-1 .25s-.375.375-.625.75a10.14 10.14 0 0 0-.375 1.375c-.125.5-.125 1.25-.125 2 0 1.375.125 2.5.5 3.25.375.625.875 1 1.625 1h18.25v23.125c-2.125 1.125-4.5 2-7 2.625s-5 .875-7.375.875c-4.125 0-8-.75-11.375-2.125-3.5-1.375-6.5-3.375-8.875-6.125-2.5-2.625-4.5-5.875-5.875-9.875-1.375-3.875-2.125-8.375-2.125-13.375 0-4.5.625-8.75 1.875-12.625 1.375-3.875 3.125-7.25 5.625-10 2.375-2.875 5.25-5 8.75-6.625s7.375-2.375 11.75-2.375c3.625 0 6.75.375 9.5 1.125 2.625.875 4.875 1.625 6.875 2.625 1.875 1 3.375 1.75 4.5 2.625 1.125.75 2 1.125 2.5 1.125.25 0 .5-.125.75-.25s.5-.375.625-.875c.125-.375.25-.875.375-1.375.125-.625.125-1.375.125-2.125a17.95 17.95 0 0 0-.25-3z" fill="#231f20"/></svg>