<?xml version="1.0" encoding="UTF-8" standalone="no"?>
<svg
   xmlns:dc="http://purl.org/dc/elements/1.1/"
   xmlns:cc="http://creativecommons.org/ns#"
   xmlns:rdf="http://www.w3.org/1999/02/22-rdf-syntax-ns#"
   xmlns:svg="http://www.w3.org/2000/svg"
   xmlns="http://www.w3.org/2000/svg"
   xmlns:sodipodi="http://sodipodi.sourceforge.net/DTD/sodipodi-0.dtd"
   xmlns:inkscape="http://www.inkscape.org/namespaces/inkscape"
   id="svg2"
   xml:space="preserve"
   enable-background="new 0 0 814.2 238"
   viewBox="0 0 814.2 238"
   width="665px"
   height="200px"
   y="0px"
   x="0px"
   version="1.1"
   inkscape:version="0.91 r13725"
   sodipodi:docname="The_Source_logo_en-fr.svg"><sodipodi:namedview
     pagecolor="#ffffff"
     bordercolor="#666666"
     borderopacity="1"
     objecttolerance="10"
     gridtolerance="10"
     guidetolerance="10"
     inkscape:pageopacity="0"
     inkscape:pageshadow="2"
     inkscape:window-width="1175"
     inkscape:window-height="644"
     id="namedview28"
     showgrid="false"
     inkscape:zoom="0.49774437"
     inkscape:cx="105.97307"
     inkscape:cy="3.7247588"
     inkscape:window-x="2225"
     inkscape:window-y="127"
     inkscape:window-maximized="0"
     inkscape:current-layer="g8" /><metadata
     id="metadata70"><rdf:RDF><cc:Work
         rdf:about=""><dc:format>image/svg+xml</dc:format><dc:type
           rdf:resource="http://purl.org/dc/dcmitype/StillImage" /><dc:title /></cc:Work></rdf:RDF></metadata><defs
     id="defs68" />
        <switch allowReorder="yes">
            <g systemLanguage="en">
			  <path
           id="T"
           d="M 140.4,71.8 134.8,71.8 134.8,52.7 123.5,52.7 123.5,48.7 151.6,48.7 151.6,52.7 140.4,52.7 Z"
           style="fill:#ca2027" />
            <path
           id="H"
           d="M 179.5,62 161.8,62 161.8,71.8 156.1,71.8 156.1,48.7 161.8,48.7 161.8,57.5 179.5,57.5 179.5,48.7 185.1,48.7 185.1,71.8 179.5,71.8 Z"
           style="fill:#cc0000" />
            <path
           id="E"
           d="M 196.9,67.6 216.6,67.6 216.6,71.8 191.3,71.8 191.3,48.7 216.3,48.7 216.3,52.7 196.9,52.7 196.9,57.7 208.2,57.7 208.2,61.7 196.9,61.7 Z"
           style="fill:#cc0000" />
			</g>
            <g systemLanguage="fr">
			<svg:polyline 
               style="fill:#cc0000;fill-opacity:1"
               id="L" 
               points="99.1,39.9 103.699,39.9 103.699,55.4 118.6,55.4 118.6,59 99.1,59 99.1,39.9        "
               transform="matrix(1.2243609,0,0,1.2243609,1.6706377,-1.0709802)" />
			   <svg:path
               style="fill:#cc0000;fill-opacity:1"
               id="A" 
               d="m 163.40872,47.781024 5.50962,0 13.95771,23.38529 -6.36668,0 -2.93846,-5.14232 -15.42695,0 -2.81603,5.14232 -5.63328,0 13.71407,-23.38529 m 7.8359,14.08015 -5.26597,-9.55002 -5.38596,9.55002 10.65193,0 z" />
			</g>
            <text>other</text>
        </switch>
    
    
    <g
     id="g4"><g
       id="g8"><g
         id="g4150">
            <path style="fill:#fdb813" id="path16" d="M 65.3,118.8 C 65.3,145 78,168 97.4,182.4 L 106.1,168.9 C 103.9,167.2 101.6,165.2 99.6,163.3 88.4,151.8 81.3,136.3 81.3,118.9 81.3,101.5 88.3,86 99.6,74.5 102.4,71.7 105.5,69.2 108.9,66.9 L 100.5,53.4 C 79.1,67.3 65.3,91.2 65.3,118.8" inkscape:connector-curvature="0" />
            <path style="fill:#fdb813" id="path18" d="M 34.9,118.8 C 34.9,155.6 53.2,188 81,207.9 L 89.7,194.1 C 85.8,191.3 81.8,187.9 78.2,184.5 61.4,167.7 51,144.6 51,119.1 51,93.6 61.4,70.2 78.3,53.6 82.8,49.1 87.6,45.2 92.6,41.8 L 84.2,27.7 C 54.3,47.1 34.9,80.5 34.9,118.8" inkscape:connector-curvature="0" />
            <path style="fill:#fdb813" id="path20" d="M 2.6,118.8 C 2.6,167.2 26.8,209.6 63.6,235.2 L 72.6,221.1 C 66.7,216.9 61.1,212.1 55.7,207 33.2,184.5 19.1,153.3 19.1,119 19.1,84.4 33.2,53.5 55.7,31 61.6,25.1 68.4,19.5 75.4,15 L 66.4,0.9 C 28.2,25.4 2.6,69 2.6,118.8" inkscape:connector-curvature="0" />
            
            <path
           style="fill:#cc0000"
           id="path22"
           d="M 141.5,97.1 141.5,115.7 195.2,115.7 C 211.5,115.7 216.9,119.9 216.9,135.9 L 216.9,147.7 C 216.9,164 211.6,167.9 195.2,167.9 L 142,167.9 C 125.7,167.9 120.3,163.7 120.3,147.7 L 120.3,141.8 138,141.8 138,152 199,152 199,132.3 145.3,132.3 C 129,132.3 123.9,128.1 123.9,112.1 L 123.9,102.5 C 123.9,86.2 129,82.3 145.3,82.3 L 194.2,82.3 C 209.7,82.3 215.6,86.2 215.6,101.1 L 215.6,107 198,107 198,97.2 141.5,97.1 141.5,97.1 Z"
           inkscape:connector-curvature="0" /><path
           style="fill:#cc0000"
           id="path24"
           d="M 316.4,82.2 252.8,82.2 C 236.5,82.2 231.4,86.4 231.4,102.4 L 231.4,147.7 C 231.4,164 236.5,167.9 252.8,167.9 L 316.4,167.9 C 332.7,167.9 337.8,163.7 337.8,147.7 L 337.8,102.4 C 337.8,86.1 332.5,82.2 316.4,82.2 M 317.6,152 251.5,152 251.5,97.4 317.6,97.4 317.6,152 Z"
           inkscape:connector-curvature="0" /><path
           style="fill:#cc0000"
           id="path26"
           d="M 374.9,152 432,152 432,82.2 452,82.2 452,148 C 452,164.3 446.9,168.2 430.6,168.2 L 376.3,168.2 C 360,168.3 355,164 355,148 L 355,82.2 375,82.2 375,152 Z"
           inkscape:connector-curvature="0" />
            <path
           style="fill:#cc0000"
           id="path28"
           d="M 533.3,135.6 544.5,135.6 C 557.7,135.6 563.9,130.8 563.9,119 L 563.9,98.8 C 563.9,86.7 557.7,82.2 544.5,82.2 L 470.8,82.2 470.8,168.3 490.5,168.3 490.5,135.7 509.6,135.7 544.2,168.3 572.9,168.3 533.3,135.6 Z M 490.5,121 490.5,97.1 535.5,97.1 C 541.7,97.1 544.5,98.2 544.5,103.8 L 544.5,114.2 C 544.5,119.8 541.7,120.9 535.5,120.9 L 490.5,121 490.5,121 Z"
           inkscape:connector-curvature="0" /><path
           style="fill:#cc0000"
           id="path30"
           d="M 597.9,97.4 597.9,152 651.9,152 651.9,133.4 672.1,133.4 672.1,147.7 C 672.1,164 667,167.9 650.7,167.9 L 599.2,167.9 C 582.9,167.9 577.8,163.7 577.8,147.7 L 577.8,102.4 C 577.8,86.1 582.9,82.2 599.2,82.2 L 650.7,82.2 C 667,82.2 672.1,86.4 672.1,105.8 L 672.1,114 652.1,114 652.1,97.7 597.8,97.7 597.8,97.4 Z"
           inkscape:connector-curvature="0" /><path
           id="polygon32"
           d="M 708.5,152 777.4,152 777.4,168.3 688.2,168.3 688.2,82.2 776.5,82.2 776.5,96.8 708.5,96.8 708.5,116 748.1,116 748.1,130.6 708.5,130.6 Z"
           style="fill:#cc0000" />
            <path
           id="polygon40"
           d="M 795.4,82.2 795.4,84.5 791.7,84.5 791.7,96.3 789.2,96.3 789.2,84.5 785.5,84.5 785.5,82.2 Z"
           style="fill:#cc0000" /><path
           id="polygon42"
           d="M 807.5,96.3 807.5,85.3 807.5,85.3 804.1,96.3 802.1,96.3 799,85.3 799,85.3 799,96.3 796.8,96.3 796.8,82.2 800.4,82.2 803.2,92.1 803.2,92.1 806.1,82.2 809.7,82.2 809.7,96.3 Z"
           style="fill:#cc0000" />
            </g><g
         id="g44"><g
           id="g46" /></g></g></g></svg>
