<?xml version="1.0" encoding="UTF-8" standalone="no"?>
<!DOCTYPE svg PUBLIC "-//W3C//DTD SVG 1.1//EN" "http://www.w3.org/Graphics/SVG/1.1/DTD/svg11.dtd">
<svg width="100%" height="100%" viewBox="0 0 1200 1200" version="1.1" xmlns="http://www.w3.org/2000/svg" xmlns:xlink="http://www.w3.org/1999/xlink" xml:space="preserve" xmlns:serif="http://www.serif.com/" style="fill-rule:evenodd;clip-rule:evenodd;stroke-linejoin:round;stroke-miterlimit:2;">
    <g>
        <g transform="matrix(4.41176,0,0,3.13087,-767.647,-1484.03)">
            <rect x="174" y="474" width="272" height="298" style="fill:rgb(52,176,73);"/>
        </g>
        <g transform="matrix(1,0,0,1,338.886,600)">
            <g opacity="0.35">
                <g transform="matrix(1,0,0,1,-288.51,-359.76)">
                    <clipPath id="_clip1">
                        <rect x="0" y="0" width="577.02" height="719.52"/>
                    </clipPath>
                    <g clip-path="url(#_clip1)">
                        <path d="M305.443,296.854C304.574,296.52 303.455,295.176 302.957,293.867C302.327,292.21 299.707,290.418 294.342,287.973C290.102,286.04 285.931,284.574 285.074,284.715C282.53,285.132 281.015,283.587 281.015,280.577C281.015,277.828 278.936,275.541 270.511,269.02C267.186,266.446 265.115,260.502 265.059,253.374C265.019,248.161 265.281,247.494 268.476,244.689C270.379,243.018 274.091,240.423 276.726,238.922C279.36,237.421 282.972,235.123 284.753,233.815C287.311,231.936 288.4,231.655 289.937,232.478C291.008,233.051 292.609,233.52 293.495,233.52C296.177,233.52 300.015,228.893 300.015,225.661C300.015,223.023 300.749,222.332 306.964,219.116C310.785,217.138 315.317,215.52 317.033,215.52C320.093,215.52 328.166,210.917 330.765,207.69C331.453,206.836 332.015,204.36 332.015,202.187C332.015,196.356 325.723,189.488 313.893,182.405C308.735,179.317 295.74,171.482 285.015,164.994C246.223,141.525 156.961,94.727 89.784,62.637C56.789,46.876 23.405,30.278 21.827,28.849C19.928,27.131 19.311,21.073 20.933,20.071C22.006,19.408 33.309,23.332 44.015,28.083C48.14,29.914 60.065,34.984 70.515,39.35C127.94,63.34 137.549,67.518 175.015,84.785C218.444,104.799 300.537,147.48 308.557,154.212C311.284,156.502 318.661,161.783 324.95,165.948C333.53,171.63 337.228,173.52 339.765,173.52C344.289,173.52 346.715,174.875 351.731,180.203C354.049,182.666 356.299,184.493 356.731,184.264C357.162,184.035 363.898,180.138 371.699,175.603L385.883,167.359L397.814,148.189C414.657,121.13 427.722,98.85 437.719,80.141C452.204,53.032 453.222,51.828 456.74,57.646C458.228,60.107 458.156,60.831 455.592,69.146C451.028,83.948 439.294,116.77 433.368,131.309C430.295,138.85 426.228,148.845 424.332,153.52C422.436,158.195 420.652,162.554 420.368,163.206C420.083,163.858 421.675,165.543 423.905,166.95C432.346,172.279 433.192,181.39 426.647,196.492C424.649,201.101 423.012,205.805 423.009,206.946C422.998,210.437 419.761,214.217 410.443,221.624C398.915,230.786 398.803,230.934 400.507,234.872C401.256,236.604 402.113,238.808 402.411,239.77C402.709,240.733 403.85,241.52 404.948,241.52C407.418,241.52 412.015,248.012 412.016,251.502C412.017,252.887 413.407,256.945 415.105,260.52C418.581,267.834 436.533,307.55 449.007,335.52C453.544,345.695 461.21,362.795 466.042,373.52C470.874,384.245 476.716,397.295 479.023,402.52C481.33,407.745 484.511,414.945 486.091,418.52C492.877,433.873 503.71,459.48 511.513,478.613C516.132,489.939 525.394,511.989 532.094,527.613C550.421,570.344 557.015,586.602 557.015,589.056C557.015,593.511 551.741,594.892 550.382,590.793C549.574,588.353 536.134,559.139 521.734,528.52C515.138,514.495 497.593,479.17 482.745,450.02C467.897,420.87 453.052,391.62 449.757,385.02C446.462,378.42 440.967,368.07 437.547,362.02C422.283,335.016 401.635,295.981 399.089,289.317C397.557,285.303 394.862,277.666 393.101,272.345C389.056,260.12 388.255,259.384 382.438,262.562C380.005,263.891 377.978,265.213 377.932,265.499C377.886,265.786 377.663,266.92 377.437,268.02C377.211,269.12 376.686,272.259 376.271,274.997C375.448,280.416 375.806,280.126 357.932,289.849L352.731,292.678L380.853,719.52L296.291,719.52C296.291,719.52 306.847,297.393 305.443,296.854ZM385.484,251.88C386.062,248.026 385.85,246.91 384.231,245.292C382.3,243.36 382.246,243.362 378.149,245.452C375.875,246.612 374.015,248.184 374.015,248.946C374.015,250.21 382.395,256.52 384.073,256.52C384.466,256.52 385.101,254.432 385.484,251.88Z" style="fill-rule:nonzero;"/>
                    </g>
                </g>
            </g>
        </g>
        <g transform="matrix(1,0,0,1,0,933)">
            <g transform="matrix(0.900456,0,0,0.902762,53.4233,15.347)">
                <rect x="-72" y="-17" width="1358" height="308" style="fill:white;"/>
            </g>
            <g transform="matrix(0.464765,0,0,0.464765,600,130.004)">
                <g transform="matrix(1,0,0,1,-894,-194)">
                    <rect x="0.5" y="4.354" width="399.959" height="352.921" style="fill:rgb(51,177,74);fill-rule:nonzero;"/>
                    <path d="M400.963,3.854L0,3.854L0,357.775L400.963,357.775L400.963,3.854ZM399.959,4.858L399.959,356.771L1,356.771L1,4.858L399.959,4.858Z" style="fill:rgb(161,208,151);fill-rule:nonzero;"/>
                    <path d="M298.509,155.079L220.946,155.079L220.946,77.517L172.988,77.517L172.988,155.08L95.425,155.08L95.425,203.038L172.988,203.038L172.988,280.6L220.946,280.6L220.946,203.037L298.509,203.037L298.509,155.079Z" style="fill:white;fill-rule:nonzero;"/>
                    <path d="M629.392,117.063L569.263,117.063C566.978,117.065 565.098,118.945 565.096,121.23L565.096,140.188C565.098,142.473 566.978,144.353 569.263,144.355L601.93,144.355L601.93,191.88C595.917,194.063 586.03,195.338 574.68,195.338C533.192,195.338 508.426,169.355 508.426,125.834C508.426,83.13 534.955,56.601 577.659,56.601C593.205,56.601 605.463,58.972 616.234,64.059C617.326,64.576 618.584,64.588 619.692,64.105C620.8,63.622 621.638,62.676 621.992,61.526L627.95,42.293C628.559,40.333 627.632,38.201 625.783,37.31C617.366,33.247 599.854,28.497 578.2,28.497C516.579,28.497 475.175,68.051 475.175,126.918C475.175,155.622 484.917,181.497 501.925,197.914C519.729,214.91 542.996,223.172 573.054,223.172C601.867,223.172 624.604,215.289 630.887,212.872C632.492,212.254 633.557,210.704 633.558,208.984L633.558,121.23C633.556,118.945 631.676,117.065 629.391,117.063L629.392,117.063ZM720.559,109.583C721.542,108.791 722.115,107.595 722.117,106.333L722.117,83.854C722.117,81.762 720.543,79.977 718.467,79.716L717.879,79.645L711.45,79.145C697.954,79.145 685.696,86.008 677.633,97.416L677.15,85.849C677.057,83.63 675.208,81.855 672.987,81.853L652.133,81.853C650.979,81.853 649.879,82.332 649.091,83.174C648.303,84.016 647.899,85.149 647.978,86.295C648.716,97.441 649.049,109.966 649.049,126.916L649.049,217.108C649.051,219.393 650.931,221.273 653.216,221.275L677.049,221.275C679.334,221.273 681.214,219.393 681.216,217.108L681.216,147.229C681.216,143.487 681.495,139.691 681.962,136.871C684.979,120.271 695.658,109.958 709.82,109.958C712.858,109.958 715.053,109.958 717.045,110.4C718.278,110.677 719.573,110.376 720.558,109.583L720.559,109.583ZM780.784,104.542C789.063,104.542 795.717,107.042 800.559,111.975C807.309,118.85 809.105,128.692 809.538,134.667L749.1,134.667C752.133,119.871 761.796,104.542 780.783,104.542L780.784,104.542ZM782.68,79.146C744.026,79.146 717.03,109.817 717.03,153.734C717.03,196.572 743.968,224.255 785.659,224.255C807.288,224.255 822.392,219.488 831.247,215.492C833.081,214.663 834.067,212.618 833.572,210.667L829.239,193.604C828.939,192.416 828.131,191.425 827.031,190.883C825.932,190.346 824.651,190.32 823.531,190.812C816.268,193.987 806.477,197.233 788.906,197.233C777.323,197.233 750.914,193.508 748.31,160.066L836.031,160.066C838.009,160.066 839.728,158.659 840.119,156.72C840.727,153.682 841.015,149.895 841.015,144.791C841.015,114.508 825.736,79.145 782.682,79.145L782.68,79.146ZM906.713,104.542C914.996,104.542 921.646,107.042 926.488,111.975C933.246,118.846 935.038,128.692 935.471,134.667L875.03,134.667C878.063,119.871 887.73,104.542 906.713,104.542ZM908.609,79.146C869.959,79.146 842.963,109.817 842.963,153.734C842.963,196.572 869.896,224.255 911.588,224.255C933.23,224.255 948.326,219.488 957.18,215.492C959.022,214.659 960.001,212.625 959.501,210.667L955.168,193.604C954.868,192.418 954.062,191.422 952.964,190.883C951.865,190.346 950.584,190.32 949.464,190.812C942.201,193.987 932.41,197.233 914.843,197.233C903.255,197.233 876.851,193.508 874.243,160.066L961.968,160.066C963.948,160.065 965.668,158.654 966.056,156.712C966.664,153.658 966.948,149.87 966.948,144.791C966.948,114.508 951.669,79.145 908.61,79.145L908.609,79.146ZM1047.01,79.146C1028.76,79.146 1015.06,87.254 1006.61,96.492L1005.93,85.763C1005.8,83.58 1003.96,81.857 1001.78,81.855L980.647,81.855C979.489,81.856 978.381,82.339 977.593,83.188C976.807,84.039 976.409,85.179 976.493,86.334C977.243,96.372 977.564,106.888 977.564,121.501L977.564,217.109C977.564,219.409 979.427,221.276 981.731,221.276L1005.57,221.276C1007.87,221.276 1009.74,219.409 1009.74,217.109L1009.74,138.292C1009.74,134.542 1010.24,131.013 1011.15,128.479C1014.65,117.779 1024.66,106.979 1039.15,106.979C1060.78,106.979 1065.32,125.775 1065.32,141.542L1065.32,217.109C1065.32,219.409 1067.18,221.276 1069.49,221.276L1093.32,221.276C1095.62,221.276 1097.49,219.409 1097.49,217.109L1097.49,139.105C1097.49,94.851 1070.3,79.147 1047.01,79.147L1047.01,79.146ZM1262.05,117.063L1201.92,117.063C1199.62,117.063 1197.76,118.93 1197.76,121.23L1197.76,140.188C1197.76,142.488 1199.62,144.355 1201.92,144.355L1234.59,144.355L1234.59,191.88C1228.58,194.063 1218.68,195.338 1207.34,195.338C1165.86,195.338 1141.09,169.355 1141.09,125.834C1141.09,83.13 1167.61,56.601 1210.32,56.601C1225.86,56.601 1238.12,58.972 1248.89,64.059C1249.98,64.58 1251.25,64.592 1252.35,64.105C1253.45,63.621 1254.29,62.679 1254.65,61.526L1260.61,42.293C1261.22,40.332 1260.29,38.199 1258.44,37.31C1250.03,33.247 1232.51,28.497 1210.86,28.497C1149.24,28.497 1107.84,68.051 1107.84,126.918C1107.84,155.626 1117.58,181.497 1134.59,197.914C1152.39,214.91 1175.66,223.172 1205.71,223.172C1234.53,223.172 1257.26,215.289 1263.55,212.872C1265.15,212.254 1266.22,210.704 1266.22,208.984L1266.22,121.23C1266.22,118.945 1264.34,117.065 1262.05,117.063ZM1336.79,104.542C1345.07,104.542 1351.73,107.042 1356.57,111.975C1363.32,118.846 1365.12,128.692 1365.55,134.667L1305.11,134.667C1308.14,119.871 1317.81,104.542 1336.79,104.542L1336.79,104.542ZM1338.69,79.146C1300.04,79.146 1273.04,109.817 1273.04,153.734C1273.04,196.572 1299.98,224.255 1341.67,224.255C1363.31,224.255 1378.4,219.488 1387.26,215.492C1389.1,214.659 1390.08,212.625 1389.58,210.667L1385.25,193.604C1384.95,192.419 1384.14,191.423 1383.04,190.883C1381.94,190.346 1380.66,190.32 1379.54,190.812C1372.28,193.987 1362.49,197.233 1344.92,197.233C1333.34,197.233 1306.93,193.508 1304.32,160.066L1392.05,160.066C1394.03,160.066 1395.75,158.662 1396.13,156.712C1396.74,153.658 1397.03,149.87 1397.03,144.791C1397.03,114.508 1381.75,79.145 1338.69,79.145L1338.69,79.146ZM1462.19,104.542C1470.47,104.542 1477.12,107.042 1481.96,111.975C1488.72,118.846 1490.51,128.692 1490.94,134.667L1430.5,134.667C1433.54,119.871 1443.2,104.542 1462.19,104.542ZM1464.09,79.146C1425.43,79.146 1398.43,109.817 1398.43,153.734C1398.43,196.572 1425.37,224.255 1467.06,224.255C1488.7,224.255 1503.8,219.488 1512.65,215.492C1514.5,214.659 1515.48,212.625 1514.98,210.667L1510.64,193.604C1510.34,192.416 1509.54,191.425 1508.44,190.883C1507.34,190.341 1506.05,190.32 1504.94,190.812C1497.67,193.987 1487.89,197.233 1470.32,197.233C1458.73,197.233 1432.33,193.508 1429.72,160.066L1517.44,160.066C1519.43,160.066 1521.14,158.662 1521.53,156.712C1522.14,153.658 1522.42,149.87 1522.42,144.791C1522.42,114.508 1507.14,79.145 1464.09,79.145L1464.09,79.146ZM1697.18,137.4C1679.9,130.542 1675.16,126.542 1675.16,118.792C1675.16,110.463 1682.04,105.084 1692.66,105.084C1704.13,105.084 1712.99,109.601 1717.25,112.292C1718.34,112.98 1719.68,113.128 1720.88,112.692C1722.09,112.258 1723.03,111.29 1723.43,110.071L1729.12,92.738C1729.71,90.946 1729.02,88.98 1727.44,87.95C1719.01,82.437 1706.21,79.146 1693.21,79.146C1664.59,79.146 1643.81,97.071 1643.81,121.771C1643.81,139.9 1656.49,153.7 1681.45,162.779C1699.54,169.562 1702.85,174.812 1702.85,182.712C1702.85,192.454 1695.19,198.045 1681.83,198.045C1670.75,198.045 1658.98,193.399 1652.26,189.416C1651.17,188.774 1649.84,188.658 1648.66,189.108C1647.47,189.562 1646.55,190.532 1646.17,191.741L1642.61,202.954L1595.72,140.216L1643.71,88.866C1644.85,87.653 1645.15,85.883 1644.49,84.362C1643.83,82.841 1642.32,81.853 1640.67,81.854L1612.23,81.854C1611.01,81.854 1609.85,82.387 1609.06,83.312L1570.28,128.6C1568.74,130.473 1567.23,132.369 1565.75,134.288L1565.75,24.808C1565.75,22.508 1563.88,20.641 1561.58,20.641L1538.02,20.641C1535.71,20.641 1533.85,22.508 1533.85,24.808L1533.85,217.108C1533.85,219.408 1535.71,221.275 1538.02,221.275L1561.58,221.275C1563.88,221.275 1565.75,219.408 1565.75,217.108L1565.75,169.412L1573.39,160.912L1615.34,219.533C1616.12,220.625 1617.39,221.275 1618.73,221.275L1647.98,221.275C1649.55,221.275 1651,220.382 1651.7,218.975C1651.71,218.954 1651.71,218.933 1651.72,218.921C1660.65,222.342 1670.96,224.254 1681.29,224.254C1713.43,224.254 1734.2,207.096 1734.2,180.546C1734.2,160.271 1722.76,146.954 1697.18,137.4L1697.18,137.4ZM1760.57,48.788L1757.98,48.788L1757.98,42.03C1758.56,41.888 1759.56,41.747 1761.01,41.747C1764.45,41.747 1766.03,43.18 1766.03,45.339C1766.03,47.781 1763.59,48.789 1760.57,48.789L1760.57,48.788ZM1767.04,50.513L1767.04,50.225C1769.77,49.362 1771.93,47.492 1771.93,44.617C1771.93,42.317 1770.92,40.592 1769.49,39.588C1767.9,38.438 1765.89,37.717 1761.43,37.717C1757.56,37.717 1754.54,38.15 1752.38,38.438L1752.38,62.013L1757.84,62.013L1757.84,52.671L1760.43,52.671C1763.45,52.671 1764.88,53.817 1765.32,56.263C1766.04,59.138 1766.47,61.151 1767.19,62.013L1772.94,62.013C1772.5,61.15 1771.93,59.855 1771.21,56.263C1770.49,53.1 1769.35,51.23 1767.04,50.513L1767.04,50.513ZM1761.72,68.625C1751.23,68.625 1743.32,60.287 1743.32,49.792C1743.32,39.442 1751.23,30.963 1761.43,30.963C1771.93,30.963 1779.69,39.442 1779.69,49.938C1779.69,60.288 1771.93,68.767 1761.72,68.626L1761.72,68.625ZM1761.72,26.217C1748.06,26.217 1737.28,36.567 1737.28,49.792C1737.28,63.017 1748.06,73.513 1761.58,73.513C1775.09,73.513 1785.73,63.021 1785.73,49.792C1785.73,36.563 1775.09,26.217 1761.72,26.217ZM1096.64,273.188C1096.89,272.313 1097.01,271.563 1097.01,271.063C1097.01,270.438 1096.89,270.063 1096.51,269.813C1096.26,269.563 1095.76,269.313 1095.01,269.188C1094.26,269.063 1093.39,269.063 1092.14,269.063L1089.26,269.188C1088.51,269.313 1088.01,269.438 1087.64,269.563C1087.26,269.688 1087.01,269.938 1086.89,270.313C1086.76,270.563 1086.64,270.938 1086.51,271.313L1069.14,337.438L1069.01,337.438L1050.89,271.438C1050.76,270.938 1050.64,270.563 1050.39,270.313C1050.26,269.938 1049.89,269.688 1049.51,269.563C1049.14,269.438 1048.51,269.313 1047.89,269.188C1047.26,269.063 1046.26,269.063 1045.14,269.063L1042.26,269.188L1040.51,269.563C1040.01,269.688 1039.76,269.938 1039.64,270.313C1039.39,270.563 1039.26,270.938 1039.14,271.438L1022.26,337.438L1004.51,271.313C1004.39,270.813 1004.26,270.438 1004.14,270.188C1004.01,269.938 1003.76,269.688 1003.39,269.438C1003.01,269.313 1002.39,269.188 1001.64,269.188C1000.89,269.063 999.888,269.063 998.638,269.063L995.513,269.188C994.763,269.313 994.263,269.438 993.888,269.688C993.513,270.063 993.388,270.438 993.388,270.938C993.388,271.438 993.513,272.188 993.763,273.188L1014.64,346.063C1014.76,346.688 1015.01,347.188 1015.26,347.438C1015.64,347.813 1016.01,348.063 1016.64,348.313C1017.14,348.438 1017.89,348.563 1018.76,348.688C1019.76,348.813 1020.89,348.813 1022.14,348.813L1025.39,348.688L1027.39,348.313C1027.89,348.063 1028.39,347.813 1028.64,347.438C1028.89,347.188 1029.14,346.688 1029.26,346.063L1044.51,286.438L1044.64,286.438L1061.14,346.063C1061.39,346.688 1061.51,347.188 1061.89,347.438C1062.14,347.813 1062.51,348.063 1063.14,348.313C1063.64,348.438 1064.39,348.563 1065.26,348.688C1066.14,348.813 1067.26,348.813 1068.51,348.813L1071.64,348.688L1073.64,348.313C1074.26,348.063 1074.76,347.813 1075.01,347.438C1075.39,347.188 1075.64,346.688 1075.76,346.063L1096.64,273.188ZM1155.26,342.063C1155.14,341.438 1155.01,341.063 1154.89,340.688C1154.64,340.313 1154.39,340.063 1154.14,339.938C1153.89,339.813 1153.51,339.688 1153.26,339.688L1121.89,339.688L1121.89,311.438L1148.39,311.438C1148.76,311.438 1149.01,311.313 1149.26,311.188C1149.64,311.063 1149.76,310.813 1150.01,310.563C1150.17,310.114 1150.3,309.655 1150.39,309.188C1150.51,308.688 1150.51,308.063 1150.51,307.313C1150.51,306.563 1150.51,305.938 1150.39,305.313L1150.01,303.938C1149.76,303.688 1149.64,303.438 1149.26,303.188C1149.01,303.063 1148.76,302.938 1148.39,302.938L1121.89,302.938L1121.89,278.188L1152.76,278.188C1153.14,278.188 1153.39,278.063 1153.64,277.938C1154.01,277.813 1154.14,277.563 1154.39,277.188C1154.55,276.739 1154.67,276.28 1154.76,275.813C1154.89,275.313 1154.89,274.688 1154.89,273.938C1154.89,273.063 1154.89,272.438 1154.76,271.813L1154.39,270.438C1154.14,270.063 1154.01,269.813 1153.64,269.688C1153.39,269.563 1153.14,269.438 1152.76,269.438L1115.26,269.438C1114.39,269.438 1113.51,269.813 1112.64,270.438C1111.76,271.063 1111.39,272.063 1111.39,273.688L1111.39,344.188C1111.39,345.813 1111.76,346.813 1112.64,347.438C1113.51,348.063 1114.39,348.438 1115.26,348.438L1153.26,348.438C1153.51,348.438 1153.89,348.313 1154.14,348.188C1154.39,348.063 1154.64,347.813 1154.89,347.438C1155.03,346.984 1155.15,346.526 1155.26,346.063C1155.39,345.438 1155.39,344.813 1155.39,344.063C1155.39,343.313 1155.39,342.563 1155.26,342.063ZM1223.26,318.438C1222.51,316.188 1221.39,314.188 1220.01,312.563C1218.51,310.813 1216.89,309.438 1215.01,308.438C1213.14,307.313 1211.14,306.563 1209.01,306.188C1210.76,305.438 1212.26,304.563 1213.51,303.438C1214.89,302.188 1216.01,300.938 1216.89,299.563C1217.76,298.063 1218.39,296.438 1218.89,294.813C1219.26,293.063 1219.51,291.313 1219.51,289.438C1219.51,286.313 1219.01,283.438 1218.01,280.938C1217.01,278.438 1215.39,276.438 1213.39,274.688C1211.39,272.938 1208.89,271.688 1205.89,270.813C1202.89,269.938 1199.01,269.438 1194.26,269.438L1176.26,269.438C1175.39,269.438 1174.51,269.813 1173.64,270.438C1172.76,271.063 1172.39,272.063 1172.39,273.688L1172.39,344.188C1172.39,345.813 1172.76,346.813 1173.64,347.438C1174.51,348.063 1175.39,348.438 1176.26,348.438L1197.01,348.438C1199.65,348.436 1202.28,348.227 1204.89,347.813C1207.14,347.313 1209.39,346.688 1211.39,345.813C1213.39,345.063 1215.14,343.938 1216.76,342.688C1218.39,341.438 1219.76,339.938 1220.89,338.313C1222.01,336.688 1222.89,334.813 1223.51,332.688C1224.14,330.563 1224.51,328.313 1224.51,325.813C1224.51,323.063 1224.14,320.688 1223.26,318.438ZM1208.01,295.438C1207.51,297.063 1206.64,298.438 1205.64,299.563C1204.51,300.813 1203.14,301.813 1201.39,302.438C1199.76,303.188 1197.64,303.563 1194.89,303.563L1182.89,303.563L1182.89,277.938L1193.76,277.938C1196.76,277.938 1199.14,278.188 1201.01,278.813C1202.89,279.313 1204.39,280.188 1205.51,281.313C1206.64,282.313 1207.39,283.688 1208.01,285.188C1208.51,286.813 1208.76,288.438 1208.76,290.438C1208.76,292.188 1208.51,293.813 1208.01,295.438ZM1212.39,332.188C1211.64,333.938 1210.51,335.313 1209.14,336.438C1207.76,337.563 1206.26,338.438 1204.39,338.938C1202.64,339.563 1200.51,339.813 1198.14,339.813L1182.89,339.813L1182.89,311.938L1195.51,311.938C1198.76,311.938 1201.51,312.313 1203.64,312.938C1205.89,313.563 1207.64,314.438 1209.14,315.688C1210.51,316.938 1211.64,318.438 1212.39,320.188C1213.14,321.938 1213.51,324.063 1213.51,326.438C1213.51,328.688 1213.14,330.563 1212.39,332.188ZM1325.51,271.063C1325.51,270.688 1325.39,270.438 1325.26,270.188C1325.14,269.938 1324.76,269.688 1324.39,269.563C1324.01,269.438 1323.51,269.313 1322.76,269.188C1322.14,269.063 1321.26,269.063 1320.26,269.063L1317.76,269.188C1317.01,269.313 1316.51,269.438 1316.14,269.563C1315.76,269.688 1315.39,269.938 1315.26,270.188C1315.14,270.438 1315.01,270.688 1315.01,271.063L1315.01,302.688L1279.14,302.688L1279.14,271.063C1279.14,270.688 1279.01,270.438 1278.89,270.188C1278.76,269.938 1278.39,269.688 1278.01,269.563C1277.64,269.438 1277.14,269.313 1276.39,269.188C1275.76,269.063 1274.89,269.063 1273.89,269.063L1271.39,269.188C1270.64,269.313 1270.14,269.438 1269.76,269.563C1269.39,269.688 1269.01,269.938 1268.89,270.188C1268.76,270.438 1268.64,270.688 1268.64,271.063L1268.64,346.813C1268.64,347.188 1268.76,347.438 1268.89,347.688C1269.01,347.938 1269.39,348.188 1269.76,348.313C1270.14,348.438 1270.64,348.563 1271.39,348.688C1272.14,348.813 1272.89,348.813 1273.89,348.813C1274.89,348.813 1275.76,348.813 1276.39,348.688C1277.14,348.563 1277.64,348.438 1278.01,348.313C1278.39,348.188 1278.76,347.938 1278.89,347.688C1279.01,347.438 1279.14,347.188 1279.14,346.813L1279.14,311.813L1315.01,311.813L1315.01,346.813C1315.01,347.188 1315.14,347.438 1315.26,347.688C1315.39,347.938 1315.76,348.188 1316.14,348.313C1316.51,348.438 1317.01,348.563 1317.76,348.688C1318.39,348.813 1319.26,348.813 1320.26,348.813C1321.26,348.813 1322.14,348.813 1322.76,348.688C1323.51,348.563 1324.01,348.438 1324.39,348.313C1324.76,348.188 1325.14,347.938 1325.26,347.688C1325.39,347.438 1325.51,347.188 1325.51,346.813L1325.51,271.063ZM1410.51,291.063C1409.14,286.063 1407.01,281.938 1404.14,278.563C1401.26,275.188 1397.64,272.688 1393.39,270.938C1389.01,269.188 1384.01,268.313 1378.14,268.313C1372.14,268.313 1366.89,269.313 1362.39,271.188C1357.76,273.188 1354.01,275.938 1351.01,279.438C1348.01,283.063 1345.76,287.313 1344.26,292.438C1342.76,297.438 1342.01,303.188 1342.01,309.313C1342.01,315.813 1342.76,321.688 1344.14,326.688C1345.51,331.688 1347.64,335.813 1350.39,339.188C1353.26,342.563 1356.76,345.188 1361.14,346.938C1365.51,348.688 1370.64,349.563 1376.51,349.563C1382.64,349.563 1387.89,348.563 1392.39,346.688C1396.89,344.688 1400.64,341.938 1403.64,338.313C1406.64,334.813 1408.89,330.438 1410.39,325.313C1411.89,320.188 1412.64,314.438 1412.64,308.063C1412.64,301.688 1411.89,295.938 1410.51,291.063ZM1400.26,320.938C1399.51,324.688 1398.14,328.063 1396.26,330.938C1394.26,333.813 1391.76,336.188 1388.64,337.938C1385.51,339.563 1381.64,340.438 1377.14,340.438C1372.51,340.438 1368.64,339.688 1365.51,338.063C1362.51,336.563 1360.01,334.313 1358.14,331.563C1356.39,328.688 1355.01,325.313 1354.26,321.438C1353.51,317.563 1353.14,313.313 1353.14,308.688C1353.14,304.438 1353.51,300.438 1354.39,296.688C1355.26,292.813 1356.64,289.563 1358.51,286.688C1360.51,283.813 1363.01,281.563 1366.01,279.813C1369.14,278.188 1373.01,277.313 1377.51,277.313C1382.01,277.313 1385.89,278.063 1389.01,279.688C1392.01,281.313 1394.51,283.438 1396.39,286.313C1398.26,289.063 1399.51,292.438 1400.26,296.313C1401.14,300.188 1401.51,304.313 1401.51,308.813C1401.51,313.063 1401.14,317.063 1400.26,320.938ZM1470.26,318.063C1469.14,315.813 1467.76,313.813 1466.14,312.188C1464.39,310.438 1462.51,308.938 1460.39,307.688L1453.76,304.313L1447.14,301.313L1441.39,297.938C1439.64,296.688 1438.26,295.313 1437.26,293.688C1436.26,292.063 1435.76,290.188 1435.76,288.063C1435.76,286.563 1436.01,285.063 1436.51,283.813C1437.14,282.438 1437.89,281.313 1438.89,280.313C1440.01,279.313 1441.39,278.563 1443.01,277.938C1444.64,277.313 1446.51,277.063 1448.76,277.063C1451.01,277.063 1453.14,277.313 1455.14,277.938C1457.01,278.563 1458.64,279.188 1460.01,279.938C1461.39,280.563 1462.51,281.313 1463.51,281.813C1464.51,282.438 1465.14,282.688 1465.64,282.688C1465.89,282.688 1466.14,282.563 1466.39,282.438C1466.64,282.188 1466.76,281.938 1466.89,281.563C1467.01,281.188 1467.14,280.688 1467.14,280.063C1467.26,279.563 1467.26,278.938 1467.26,278.188L1467.26,276.313C1467.14,275.813 1467.14,275.313 1467.01,275.063C1466.89,274.688 1466.89,274.313 1466.76,274.188C1466.64,273.938 1466.39,273.563 1466.01,273.188C1465.51,272.813 1464.76,272.313 1463.51,271.688C1462.39,271.063 1460.89,270.563 1459.39,269.938C1457.76,269.438 1456.14,269.063 1454.39,268.813C1452.64,268.438 1450.89,268.313 1449.14,268.313C1445.88,268.305 1442.64,268.768 1439.51,269.688C1436.64,270.563 1434.01,271.938 1431.89,273.688C1429.76,275.438 1428.14,277.563 1426.89,280.188C1425.76,282.813 1425.14,285.688 1425.14,288.938C1425.14,292.188 1425.64,294.938 1426.64,297.313C1427.76,299.563 1429.14,301.563 1430.76,303.313C1432.39,304.938 1434.26,306.438 1436.39,307.688L1443.01,311.188L1449.51,314.188C1451.64,315.188 1453.51,316.313 1455.26,317.563C1456.89,318.688 1458.26,320.063 1459.26,321.688C1460.26,323.313 1460.76,325.188 1460.76,327.438C1460.76,329.438 1460.39,331.313 1459.64,332.938C1458.89,334.563 1457.89,335.938 1456.51,337.063C1455.14,338.188 1453.51,339.063 1451.64,339.688C1449.76,340.313 1447.64,340.563 1445.39,340.563C1442.39,340.563 1439.76,340.188 1437.39,339.438C1435.14,338.813 1433.14,338.063 1431.51,337.188C1429.89,336.438 1428.51,335.688 1427.51,334.938C1426.51,334.313 1425.64,333.938 1425.14,333.938C1424.76,333.938 1424.51,334.063 1424.26,334.188C1423.96,334.346 1423.74,334.615 1423.64,334.938C1423.51,335.313 1423.39,335.813 1423.26,336.313C1423.14,336.938 1423.14,337.688 1423.14,338.563C1423.14,339.813 1423.26,340.813 1423.51,341.563C1423.64,342.313 1424.01,342.938 1424.51,343.438C1425.01,343.938 1425.76,344.563 1427.01,345.188C1428.26,345.938 1429.76,346.563 1431.51,347.188C1433.26,347.938 1435.26,348.438 1437.51,348.938C1439.76,349.313 1442.26,349.563 1444.89,349.563C1448.64,349.563 1452.26,349.063 1455.51,348.063C1458.76,347.063 1461.64,345.563 1464.01,343.438C1466.51,341.438 1468.39,339.063 1469.76,336.188C1471.14,333.313 1471.76,329.938 1471.76,326.313C1471.76,323.188 1471.26,320.438 1470.26,318.063ZM1535.23,271.938L1534.86,270.438C1534.61,270.063 1534.48,269.813 1534.11,269.688C1533.86,269.563 1533.61,269.438 1533.23,269.438L1478.48,269.438C1478.11,269.438 1477.86,269.563 1477.61,269.688C1477.23,269.813 1477.11,270.063 1476.86,270.438C1476.73,270.813 1476.61,271.313 1476.48,271.938C1476.36,272.438 1476.36,273.188 1476.36,273.938C1476.36,274.688 1476.36,275.313 1476.48,275.938C1476.57,276.405 1476.7,276.864 1476.86,277.313C1477.11,277.688 1477.23,277.938 1477.61,278.063C1477.86,278.188 1478.11,278.313 1478.48,278.313L1500.61,278.313L1500.61,346.813C1500.61,347.188 1500.73,347.438 1500.86,347.688C1500.98,347.938 1501.36,348.188 1501.73,348.313C1502.11,348.438 1502.61,348.563 1503.36,348.688C1504.11,348.813 1504.86,348.813 1505.86,348.813C1506.86,348.813 1507.73,348.813 1508.36,348.688C1509.11,348.563 1509.61,348.438 1509.98,348.313C1510.36,348.188 1510.73,347.938 1510.86,347.688C1510.98,347.438 1511.11,347.188 1511.11,346.813L1511.11,278.313L1533.23,278.313C1533.61,278.313 1533.86,278.188 1534.11,278.063C1534.48,277.938 1534.61,277.688 1534.86,277.313C1534.98,276.938 1535.11,276.563 1535.23,275.938C1535.36,275.313 1535.36,274.688 1535.36,273.938C1535.36,273.188 1535.36,272.438 1535.23,271.938ZM1557.23,271.063C1557.23,270.688 1557.11,270.438 1556.98,270.188C1556.86,269.938 1556.48,269.688 1556.11,269.563C1555.73,269.438 1555.23,269.313 1554.48,269.188C1553.86,269.063 1552.98,269.063 1551.98,269.063C1551.11,269.063 1550.23,269.063 1549.61,269.188C1548.86,269.313 1548.36,269.438 1547.98,269.563C1547.48,269.688 1547.23,269.938 1546.98,270.188C1546.86,270.438 1546.73,270.688 1546.73,271.063L1546.73,346.813C1546.73,347.188 1546.86,347.438 1546.98,347.688C1547.11,347.938 1547.48,348.188 1547.86,348.313C1548.23,348.438 1548.73,348.563 1549.48,348.688C1550.23,348.813 1550.98,348.813 1551.98,348.813C1552.98,348.813 1553.86,348.813 1554.48,348.688C1555.23,348.563 1555.73,348.438 1556.11,348.313C1556.48,348.188 1556.86,347.938 1556.98,347.688C1557.11,347.438 1557.23,347.188 1557.23,346.813L1557.23,271.063ZM1637.98,271.313C1637.98,270.938 1637.86,270.688 1637.73,270.438C1637.61,270.188 1637.23,270.063 1636.86,269.813C1636.48,269.688 1635.98,269.563 1635.23,269.438C1634.61,269.313 1633.73,269.313 1632.86,269.313L1630.23,269.438L1628.61,269.813C1628.23,270.063 1627.86,270.188 1627.73,270.438C1627.61,270.688 1627.48,270.938 1627.48,271.313L1627.48,324.063L1627.61,334.188L1621.86,322.688C1621.86,322.688 1619.86,318.688 1618.73,316.688L1615.48,310.563L1596.86,275.813C1596.31,274.723 1595.69,273.678 1594.98,272.688C1594.36,271.813 1593.73,271.188 1593.11,270.688C1592.36,270.313 1591.73,269.938 1590.86,269.688C1589.98,269.563 1588.98,269.438 1587.86,269.438L1582.61,269.438C1581.61,269.438 1580.48,269.813 1579.61,270.438C1578.73,271.188 1578.23,272.313 1578.23,273.938L1578.23,346.813C1578.23,347.188 1578.36,347.438 1578.48,347.688C1578.61,347.938 1578.98,348.188 1579.36,348.313C1579.73,348.438 1580.23,348.563 1580.86,348.688C1581.61,348.813 1582.48,348.813 1583.48,348.813C1584.48,348.813 1585.36,348.813 1585.98,348.688C1586.61,348.563 1587.23,348.438 1587.61,348.313C1587.98,348.188 1588.36,347.938 1588.48,347.688C1588.61,347.438 1588.73,347.188 1588.73,346.813L1588.73,290.063L1588.48,281.063L1588.61,281.063L1592.23,288.563L1595.98,295.813L1620.11,340.813L1622.48,344.688C1622.48,344.688 1623.98,346.438 1624.73,347.063C1625.48,347.563 1626.23,348.063 1626.98,348.188C1627.86,348.438 1628.86,348.563 1629.86,348.563L1633.36,348.563C1633.98,348.563 1634.48,348.438 1634.98,348.313C1635.61,348.188 1636.11,347.938 1636.48,347.563C1636.98,347.188 1637.36,346.688 1637.61,346.063C1637.86,345.563 1637.98,344.813 1637.98,344.063L1637.98,271.313ZM1717.98,277.188C1717.73,276.563 1717.36,275.938 1716.86,275.438C1716.36,274.813 1715.36,274.188 1713.98,273.313C1712.48,272.438 1710.86,271.688 1708.73,270.938L1701.73,269.063C1699.11,268.563 1696.23,268.313 1693.23,268.313C1687.36,268.313 1681.98,269.313 1677.23,271.313C1672.36,273.313 1668.23,276.063 1664.86,279.563C1661.36,283.188 1658.73,287.563 1656.86,292.688C1654.98,297.688 1653.98,303.438 1653.98,309.688C1653.98,315.688 1654.86,321.188 1656.61,326.063C1658.36,330.938 1660.86,335.063 1664.23,338.688C1667.48,342.188 1671.61,344.813 1676.36,346.688C1681.23,348.563 1686.61,349.563 1692.73,349.563C1694.78,349.559 1696.82,349.434 1698.86,349.188C1700.86,348.938 1702.86,348.563 1704.86,348.063C1706.86,347.563 1708.73,347.063 1710.61,346.313C1712.48,345.688 1714.11,344.938 1715.23,344.438C1716.36,343.813 1717.23,343.063 1717.61,342.313C1717.98,341.563 1718.11,340.688 1718.11,339.563L1718.11,309.438C1718.11,308.688 1717.98,308.063 1717.86,307.563C1717.61,306.938 1717.36,306.438 1716.98,306.188C1716.61,305.813 1716.23,305.563 1715.73,305.438C1715.23,305.313 1714.86,305.188 1714.36,305.188L1689.36,305.188C1688.98,305.188 1688.61,305.313 1688.36,305.438C1688.11,305.563 1687.98,305.813 1687.73,306.188C1687.57,306.637 1687.45,307.096 1687.36,307.563C1687.23,308.063 1687.23,308.813 1687.23,309.563C1687.23,310.938 1687.36,312.063 1687.73,312.813C1688.11,313.438 1688.61,313.813 1689.36,313.813L1707.61,313.813L1707.61,336.938C1705.48,338.063 1703.11,338.938 1700.61,339.563C1698.11,340.188 1695.61,340.438 1693.23,340.438C1689.11,340.438 1685.23,339.688 1681.86,338.313C1678.36,336.938 1675.36,334.938 1672.98,332.188C1670.48,329.563 1668.48,326.313 1667.11,322.313C1665.73,318.438 1664.98,313.938 1664.98,308.938C1664.98,304.438 1665.61,300.188 1666.86,296.313C1668.23,292.438 1669.98,289.063 1672.48,286.313C1674.86,283.438 1677.73,281.313 1681.23,279.688C1684.73,278.063 1688.61,277.313 1692.98,277.313C1696.61,277.313 1699.73,277.688 1702.48,278.438C1705.11,279.313 1707.36,280.063 1709.36,281.063C1711.23,282.063 1712.73,282.813 1713.86,283.688C1714.98,284.438 1715.86,284.813 1716.36,284.813C1716.61,284.813 1716.86,284.688 1717.11,284.563C1717.36,284.438 1717.61,284.188 1717.73,283.688C1717.86,283.313 1717.98,282.813 1718.11,282.313C1718.23,281.688 1718.23,280.938 1718.23,280.188C1718.23,279.183 1718.15,278.179 1717.98,277.188Z" style="fill:rgb(35,31,32);fill-rule:nonzero;"/>
                </g>
            </g>
        </g>
        <g transform="matrix(4.41176,0,0,4.02685,-744.332,-2124.72)">
            <g transform="matrix(1,0,0,1,0,-11.7308)">
                <g transform="matrix(0.103236,0,0,0.113104,169.179,604.862)">
                    <g transform="matrix(150.153,0,0,150.153,378.45,992.556)">
                        <path d="M0.074,-0L0.074,-0.716L0.564,-0.716L0.564,-0.595L0.218,-0.595L0.218,-0.425L0.517,-0.425L0.517,-0.304L0.218,-0.304L0.218,-0L0.074,-0Z" style="fill:white;fill-rule:nonzero;"/>
                    </g>
                    <g transform="matrix(150.153,0,0,150.153,470.169,992.556)">
                        <path d="M0.073,-0L0.073,-0.716L0.377,-0.716C0.454,-0.716 0.51,-0.709 0.544,-0.697C0.579,-0.684 0.607,-0.661 0.627,-0.628C0.648,-0.595 0.659,-0.557 0.659,-0.515C0.659,-0.461 0.643,-0.417 0.611,-0.382C0.58,-0.347 0.533,-0.325 0.47,-0.316C0.501,-0.298 0.527,-0.278 0.547,-0.256C0.567,-0.234 0.595,-0.195 0.629,-0.14L0.717,-0L0.544,-0L0.439,-0.156C0.402,-0.211 0.377,-0.247 0.363,-0.261C0.35,-0.275 0.335,-0.285 0.32,-0.291C0.305,-0.296 0.28,-0.299 0.247,-0.299L0.218,-0.299L0.218,-0L0.073,-0ZM0.218,-0.413L0.325,-0.413C0.394,-0.413 0.437,-0.416 0.455,-0.422C0.472,-0.428 0.485,-0.438 0.495,-0.452C0.505,-0.466 0.51,-0.484 0.51,-0.506C0.51,-0.53 0.503,-0.549 0.49,-0.564C0.478,-0.579 0.459,-0.588 0.436,-0.592C0.424,-0.594 0.389,-0.595 0.331,-0.595L0.218,-0.595L0.218,-0.413Z" style="fill:white;fill-rule:nonzero;"/>
                    </g>
                    <g transform="matrix(150.153,0,0,150.153,578.604,992.556)">
                        <path d="M0.073,-0L0.073,-0.716L0.604,-0.716L0.604,-0.595L0.217,-0.595L0.217,-0.436L0.577,-0.436L0.577,-0.315L0.217,-0.315L0.217,-0.121L0.617,-0.121L0.617,-0L0.073,-0Z" style="fill:white;fill-rule:nonzero;"/>
                    </g>
                    <g transform="matrix(150.153,0,0,150.153,678.755,992.556)">
                        <path d="M0.073,-0L0.073,-0.716L0.604,-0.716L0.604,-0.595L0.217,-0.595L0.217,-0.436L0.577,-0.436L0.577,-0.315L0.217,-0.315L0.217,-0.121L0.617,-0.121L0.617,-0L0.073,-0Z" style="fill:white;fill-rule:nonzero;"/>
                    </g>
                    <g transform="matrix(150.153,0,0,150.153,820.623,992.556)">
                        <path d="M0.077,-0L0.077,-0.716L0.324,-0.716C0.379,-0.716 0.422,-0.712 0.451,-0.706C0.492,-0.696 0.527,-0.679 0.556,-0.654C0.594,-0.622 0.622,-0.582 0.641,-0.532C0.66,-0.482 0.669,-0.426 0.669,-0.362C0.669,-0.307 0.663,-0.259 0.65,-0.217C0.637,-0.175 0.621,-0.141 0.601,-0.113C0.581,-0.086 0.559,-0.064 0.536,-0.048C0.512,-0.032 0.484,-0.02 0.45,-0.012C0.417,-0.004 0.379,-0 0.335,-0L0.077,-0ZM0.172,-0.084L0.325,-0.084C0.372,-0.084 0.409,-0.089 0.436,-0.098C0.463,-0.106 0.484,-0.119 0.5,-0.135C0.522,-0.157 0.54,-0.187 0.552,-0.225C0.565,-0.263 0.571,-0.309 0.571,-0.363C0.571,-0.438 0.559,-0.496 0.534,-0.536C0.51,-0.576 0.48,-0.603 0.445,-0.617C0.419,-0.626 0.379,-0.631 0.322,-0.631L0.172,-0.631L0.172,-0.084Z" style="fill:white;fill-rule:nonzero;"/>
                    </g>
                    <g transform="matrix(150.153,0,0,150.153,929.058,992.556)">
                        <path d="M0.033,-0.259C0.033,-0.355 0.06,-0.426 0.113,-0.473C0.158,-0.511 0.212,-0.53 0.276,-0.53C0.348,-0.53 0.406,-0.507 0.451,-0.46C0.496,-0.413 0.519,-0.349 0.519,-0.267C0.519,-0.2 0.509,-0.147 0.489,-0.109C0.469,-0.071 0.44,-0.041 0.402,-0.02C0.363,0.001 0.322,0.012 0.276,0.012C0.204,0.012 0.145,-0.012 0.1,-0.058C0.056,-0.105 0.033,-0.172 0.033,-0.259ZM0.124,-0.259C0.124,-0.193 0.138,-0.143 0.167,-0.11C0.196,-0.077 0.232,-0.061 0.276,-0.061C0.32,-0.061 0.356,-0.077 0.385,-0.11C0.414,-0.144 0.429,-0.194 0.429,-0.262C0.429,-0.326 0.414,-0.375 0.385,-0.408C0.356,-0.441 0.32,-0.458 0.276,-0.458C0.232,-0.458 0.196,-0.441 0.167,-0.408C0.138,-0.375 0.124,-0.326 0.124,-0.259Z" style="fill:white;fill-rule:nonzero;"/>
                    </g>
                    <g transform="matrix(150.153,0,0,150.153,1012.57,992.556)">
                        <path d="M0.066,-0L0.066,-0.519L0.145,-0.519L0.145,-0.446C0.161,-0.471 0.182,-0.492 0.209,-0.507C0.236,-0.523 0.267,-0.53 0.302,-0.53C0.34,-0.53 0.372,-0.522 0.396,-0.506C0.421,-0.49 0.438,-0.468 0.448,-0.439C0.489,-0.5 0.543,-0.53 0.608,-0.53C0.66,-0.53 0.699,-0.516 0.727,-0.488C0.755,-0.459 0.769,-0.415 0.769,-0.356L0.769,-0L0.681,-0L0.681,-0.327C0.681,-0.362 0.678,-0.387 0.673,-0.403C0.667,-0.418 0.657,-0.431 0.642,-0.44C0.627,-0.449 0.609,-0.454 0.589,-0.454C0.552,-0.454 0.522,-0.442 0.498,-0.418C0.474,-0.393 0.462,-0.355 0.462,-0.301L0.462,-0L0.374,-0L0.374,-0.337C0.374,-0.376 0.367,-0.405 0.353,-0.425C0.338,-0.444 0.315,-0.454 0.282,-0.454C0.257,-0.454 0.235,-0.448 0.214,-0.435C0.193,-0.422 0.177,-0.403 0.168,-0.377C0.159,-0.352 0.154,-0.316 0.154,-0.269L0.154,-0L0.066,-0Z" style="fill:white;fill-rule:nonzero;"/>
                    </g>
                    <g transform="matrix(150.153,0,0,150.153,1137.64,992.556)">
                        <path d="M0.404,-0.064C0.372,-0.036 0.34,-0.017 0.31,-0.005C0.28,0.006 0.248,0.012 0.213,0.012C0.156,0.012 0.113,-0.002 0.082,-0.03C0.051,-0.058 0.036,-0.093 0.036,-0.137C0.036,-0.162 0.042,-0.185 0.053,-0.206C0.065,-0.227 0.08,-0.244 0.099,-0.257C0.118,-0.27 0.139,-0.279 0.162,-0.286C0.179,-0.29 0.205,-0.295 0.24,-0.299C0.311,-0.307 0.363,-0.317 0.397,-0.329C0.397,-0.341 0.397,-0.349 0.397,-0.352C0.397,-0.388 0.389,-0.413 0.373,-0.428C0.35,-0.448 0.317,-0.458 0.272,-0.458C0.231,-0.458 0.201,-0.45 0.181,-0.436C0.161,-0.421 0.147,-0.396 0.137,-0.359L0.051,-0.371C0.059,-0.407 0.072,-0.437 0.09,-0.46C0.108,-0.482 0.134,-0.5 0.167,-0.512C0.201,-0.524 0.241,-0.53 0.285,-0.53C0.329,-0.53 0.365,-0.525 0.393,-0.515C0.421,-0.504 0.441,-0.491 0.454,-0.475C0.467,-0.46 0.476,-0.44 0.481,-0.416C0.484,-0.401 0.486,-0.374 0.486,-0.334L0.486,-0.217C0.486,-0.136 0.488,-0.084 0.491,-0.062C0.495,-0.041 0.503,-0.02 0.514,-0L0.422,-0C0.413,-0.018 0.407,-0.04 0.404,-0.064ZM0.397,-0.26C0.365,-0.247 0.317,-0.236 0.253,-0.227C0.217,-0.222 0.192,-0.216 0.177,-0.209C0.162,-0.203 0.15,-0.193 0.142,-0.181C0.134,-0.168 0.13,-0.154 0.13,-0.139C0.13,-0.116 0.139,-0.096 0.156,-0.081C0.174,-0.065 0.2,-0.057 0.234,-0.057C0.268,-0.057 0.298,-0.065 0.325,-0.079C0.351,-0.094 0.37,-0.114 0.383,-0.14C0.392,-0.16 0.397,-0.189 0.397,-0.228L0.397,-0.26Z" style="fill:white;fill-rule:nonzero;"/>
                    </g>
                    <g transform="matrix(150.153,0,0,150.153,1221.15,992.556)">
                        <path d="M0.066,-0.615L0.066,-0.716L0.154,-0.716L0.154,-0.615L0.066,-0.615ZM0.066,-0L0.066,-0.519L0.154,-0.519L0.154,-0L0.066,-0Z" style="fill:white;fill-rule:nonzero;"/>
                    </g>
                    <g transform="matrix(150.153,0,0,150.153,1254.51,992.556)">
                        <path d="M0.066,-0L0.066,-0.519L0.145,-0.519L0.145,-0.445C0.183,-0.502 0.238,-0.53 0.31,-0.53C0.341,-0.53 0.37,-0.525 0.396,-0.513C0.422,-0.502 0.442,-0.487 0.455,-0.469C0.468,-0.451 0.477,-0.429 0.482,-0.404C0.486,-0.388 0.487,-0.36 0.487,-0.319L0.487,-0L0.399,-0L0.399,-0.315C0.399,-0.351 0.396,-0.378 0.389,-0.396C0.382,-0.413 0.37,-0.428 0.353,-0.438C0.335,-0.449 0.315,-0.454 0.292,-0.454C0.254,-0.454 0.222,-0.442 0.195,-0.418C0.167,-0.395 0.154,-0.35 0.154,-0.283L0.154,-0L0.066,-0Z" style="fill:white;fill-rule:nonzero;"/>
                    </g>
                    <g transform="matrix(150.153,0,0,150.153,128,1147.62)">
                        <path d="M0.074,-0L0.074,-0.716L0.564,-0.716L0.564,-0.595L0.218,-0.595L0.218,-0.425L0.517,-0.425L0.517,-0.304L0.218,-0.304L0.218,-0L0.074,-0Z" style="fill:white;fill-rule:nonzero;"/>
                    </g>
                    <g transform="matrix(150.153,0,0,150.153,219.719,1147.62)">
                        <path d="M0.073,-0L0.073,-0.716L0.377,-0.716C0.454,-0.716 0.51,-0.709 0.544,-0.697C0.579,-0.684 0.607,-0.661 0.627,-0.628C0.648,-0.595 0.659,-0.557 0.659,-0.515C0.659,-0.461 0.643,-0.417 0.611,-0.382C0.58,-0.347 0.533,-0.325 0.47,-0.316C0.501,-0.298 0.527,-0.278 0.547,-0.256C0.567,-0.234 0.595,-0.195 0.629,-0.14L0.717,-0L0.544,-0L0.439,-0.156C0.402,-0.211 0.377,-0.247 0.363,-0.261C0.35,-0.275 0.335,-0.285 0.32,-0.291C0.305,-0.296 0.28,-0.299 0.247,-0.299L0.218,-0.299L0.218,-0L0.073,-0ZM0.218,-0.413L0.325,-0.413C0.394,-0.413 0.437,-0.416 0.455,-0.422C0.472,-0.428 0.485,-0.438 0.495,-0.452C0.505,-0.466 0.51,-0.484 0.51,-0.506C0.51,-0.53 0.503,-0.549 0.49,-0.564C0.478,-0.579 0.459,-0.588 0.436,-0.592C0.424,-0.594 0.389,-0.595 0.331,-0.595L0.218,-0.595L0.218,-0.413Z" style="fill:white;fill-rule:nonzero;"/>
                    </g>
                    <g transform="matrix(150.153,0,0,150.153,328.155,1147.62)">
                        <path d="M0.073,-0L0.073,-0.716L0.604,-0.716L0.604,-0.595L0.217,-0.595L0.217,-0.436L0.577,-0.436L0.577,-0.315L0.217,-0.315L0.217,-0.121L0.617,-0.121L0.617,-0L0.073,-0Z" style="fill:white;fill-rule:nonzero;"/>
                    </g>
                    <g transform="matrix(150.153,0,0,150.153,428.305,1147.62)">
                        <path d="M0.073,-0L0.073,-0.716L0.604,-0.716L0.604,-0.595L0.217,-0.595L0.217,-0.436L0.577,-0.436L0.577,-0.315L0.217,-0.315L0.217,-0.121L0.617,-0.121L0.617,-0L0.073,-0Z" style="fill:white;fill-rule:nonzero;"/>
                    </g>
                    <g transform="matrix(150.153,0,0,150.153,570.173,1147.62)">
                        <path d="M0.045,-0.23L0.134,-0.238C0.139,-0.202 0.148,-0.173 0.164,-0.15C0.179,-0.127 0.203,-0.108 0.236,-0.094C0.268,-0.08 0.305,-0.073 0.346,-0.073C0.382,-0.073 0.414,-0.078 0.441,-0.089C0.469,-0.1 0.49,-0.114 0.503,-0.133C0.517,-0.152 0.523,-0.172 0.523,-0.194C0.523,-0.217 0.517,-0.236 0.504,-0.253C0.491,-0.27 0.469,-0.284 0.439,-0.295C0.42,-0.303 0.378,-0.315 0.312,-0.33C0.246,-0.346 0.2,-0.361 0.174,-0.375C0.14,-0.393 0.114,-0.415 0.097,-0.442C0.081,-0.468 0.072,-0.498 0.072,-0.531C0.072,-0.567 0.083,-0.601 0.103,-0.632C0.124,-0.663 0.153,-0.687 0.193,-0.704C0.232,-0.72 0.276,-0.728 0.324,-0.728C0.377,-0.728 0.424,-0.719 0.465,-0.702C0.505,-0.685 0.536,-0.66 0.558,-0.627C0.58,-0.594 0.592,-0.556 0.593,-0.514L0.502,-0.507C0.498,-0.553 0.481,-0.587 0.453,-0.61C0.425,-0.633 0.383,-0.645 0.328,-0.645C0.271,-0.645 0.229,-0.634 0.203,-0.613C0.177,-0.592 0.164,-0.567 0.164,-0.537C0.164,-0.511 0.173,-0.49 0.191,-0.474C0.21,-0.457 0.257,-0.44 0.334,-0.423C0.411,-0.405 0.464,-0.39 0.493,-0.377C0.534,-0.358 0.565,-0.333 0.585,-0.304C0.605,-0.274 0.615,-0.241 0.615,-0.202C0.615,-0.164 0.604,-0.128 0.582,-0.094C0.56,-0.061 0.529,-0.035 0.488,-0.016C0.447,0.003 0.401,0.012 0.35,0.012C0.285,0.012 0.231,0.003 0.187,-0.016C0.143,-0.035 0.109,-0.063 0.084,-0.101C0.059,-0.139 0.046,-0.182 0.045,-0.23Z" style="fill:white;fill-rule:nonzero;"/>
                    </g>
                    <g transform="matrix(150.153,0,0,150.153,670.324,1147.62)">
                        <path d="M0.066,-0.615L0.066,-0.716L0.154,-0.716L0.154,-0.615L0.066,-0.615ZM0.066,-0L0.066,-0.519L0.154,-0.519L0.154,-0L0.066,-0Z" style="fill:white;fill-rule:nonzero;"/>
                    </g>
                    <g transform="matrix(150.153,0,0,150.153,703.683,1147.62)">
                        <path d="M0.258,-0.079L0.271,-0.001C0.246,0.004 0.224,0.007 0.204,0.007C0.172,0.007 0.147,0.002 0.13,-0.008C0.112,-0.018 0.1,-0.032 0.093,-0.048C0.086,-0.065 0.082,-0.099 0.082,-0.152L0.082,-0.45L0.018,-0.45L0.018,-0.519L0.082,-0.519L0.082,-0.647L0.169,-0.7L0.169,-0.519L0.258,-0.519L0.258,-0.45L0.169,-0.45L0.169,-0.147C0.169,-0.122 0.171,-0.106 0.174,-0.099C0.177,-0.091 0.182,-0.086 0.189,-0.082C0.196,-0.077 0.206,-0.075 0.219,-0.075C0.229,-0.075 0.242,-0.076 0.258,-0.079Z" style="fill:white;fill-rule:nonzero;"/>
                    </g>
                    <g transform="matrix(150.153,0,0,150.153,745.4,1147.62)">
                        <path d="M0.421,-0.167L0.512,-0.156C0.497,-0.103 0.471,-0.062 0.432,-0.032C0.393,-0.003 0.344,0.012 0.284,0.012C0.208,0.012 0.148,-0.012 0.103,-0.058C0.059,-0.105 0.037,-0.171 0.037,-0.255C0.037,-0.342 0.059,-0.41 0.104,-0.458C0.149,-0.506 0.207,-0.53 0.279,-0.53C0.348,-0.53 0.405,-0.507 0.449,-0.459C0.493,-0.412 0.515,-0.346 0.515,-0.26C0.515,-0.255 0.514,-0.247 0.514,-0.237L0.127,-0.237C0.131,-0.18 0.147,-0.136 0.176,-0.106C0.205,-0.076 0.241,-0.061 0.284,-0.061C0.316,-0.061 0.344,-0.069 0.367,-0.086C0.389,-0.103 0.408,-0.13 0.421,-0.167ZM0.132,-0.309L0.422,-0.309C0.418,-0.353 0.407,-0.385 0.389,-0.407C0.361,-0.441 0.324,-0.458 0.28,-0.458C0.239,-0.458 0.205,-0.444 0.178,-0.417C0.15,-0.39 0.135,-0.354 0.132,-0.309Z" style="fill:white;fill-rule:nonzero;"/>
                    </g>
                    <g transform="matrix(150.153,0,0,150.153,870.625,1147.62)">
                        <path d="M0.073,-0L0.073,-0.716L0.342,-0.716C0.396,-0.716 0.44,-0.709 0.473,-0.694C0.506,-0.68 0.532,-0.657 0.551,-0.627C0.57,-0.597 0.579,-0.566 0.579,-0.533C0.579,-0.502 0.571,-0.473 0.554,-0.446C0.538,-0.419 0.513,-0.397 0.479,-0.381C0.522,-0.368 0.556,-0.347 0.579,-0.316C0.602,-0.285 0.614,-0.249 0.614,-0.208C0.614,-0.174 0.607,-0.143 0.593,-0.114C0.578,-0.085 0.561,-0.063 0.54,-0.047C0.519,-0.032 0.493,-0.02 0.462,-0.012C0.43,-0.004 0.392,-0 0.346,-0L0.073,-0ZM0.168,-0.415L0.323,-0.415C0.365,-0.415 0.395,-0.418 0.413,-0.423C0.437,-0.431 0.455,-0.442 0.468,-0.459C0.48,-0.476 0.486,-0.496 0.486,-0.521C0.486,-0.545 0.48,-0.566 0.469,-0.584C0.457,-0.602 0.441,-0.615 0.42,-0.621C0.399,-0.628 0.362,-0.631 0.311,-0.631L0.168,-0.631L0.168,-0.415ZM0.168,-0.084L0.346,-0.084C0.377,-0.084 0.398,-0.086 0.411,-0.088C0.432,-0.092 0.451,-0.098 0.465,-0.107C0.48,-0.117 0.492,-0.13 0.501,-0.147C0.511,-0.165 0.516,-0.185 0.516,-0.208C0.516,-0.234 0.509,-0.257 0.495,-0.277C0.481,-0.297 0.462,-0.311 0.438,-0.319C0.414,-0.327 0.379,-0.331 0.333,-0.331L0.168,-0.331L0.168,-0.084Z" style="fill:white;fill-rule:nonzero;"/>
                    </g>
                    <g transform="matrix(150.153,0,0,150.153,970.775,1147.62)">
                        <path d="M0.406,-0L0.406,-0.076C0.365,-0.018 0.311,0.012 0.241,0.012C0.211,0.012 0.182,0.006 0.156,-0.006C0.129,-0.018 0.109,-0.032 0.096,-0.05C0.084,-0.068 0.075,-0.09 0.069,-0.115C0.066,-0.132 0.064,-0.16 0.064,-0.197L0.064,-0.519L0.152,-0.519L0.152,-0.231C0.152,-0.185 0.154,-0.154 0.157,-0.138C0.163,-0.115 0.174,-0.097 0.192,-0.084C0.21,-0.071 0.232,-0.064 0.259,-0.064C0.285,-0.064 0.31,-0.071 0.333,-0.084C0.356,-0.098 0.372,-0.116 0.382,-0.139C0.392,-0.163 0.396,-0.196 0.396,-0.241L0.396,-0.519L0.484,-0.519L0.484,-0L0.406,-0Z" style="fill:white;fill-rule:nonzero;"/>
                    </g>
                    <g transform="matrix(150.153,0,0,150.153,1054.28,1147.62)">
                        <path d="M0.066,-0.615L0.066,-0.716L0.154,-0.716L0.154,-0.615L0.066,-0.615ZM0.066,-0L0.066,-0.519L0.154,-0.519L0.154,-0L0.066,-0Z" style="fill:white;fill-rule:nonzero;"/>
                    </g>
                    <g transform="matrix(150.153,0,0,150.153,1087.64,1147.62)">
                        <rect x="0.064" y="-0.716" width="0.088" height="0.716" style="fill:white;fill-rule:nonzero;"/>
                    </g>
                    <g transform="matrix(150.153,0,0,150.153,1121,1147.62)">
                        <path d="M0.402,-0L0.402,-0.065C0.369,-0.014 0.321,0.012 0.257,0.012C0.216,0.012 0.178,0 0.143,-0.022C0.109,-0.045 0.082,-0.077 0.063,-0.118C0.044,-0.159 0.034,-0.206 0.034,-0.259C0.034,-0.311 0.043,-0.358 0.06,-0.4C0.077,-0.442 0.103,-0.474 0.138,-0.497C0.172,-0.519 0.211,-0.53 0.253,-0.53C0.285,-0.53 0.313,-0.524 0.337,-0.51C0.361,-0.497 0.381,-0.48 0.396,-0.459L0.396,-0.716L0.484,-0.716L0.484,-0L0.402,-0ZM0.125,-0.259C0.125,-0.192 0.139,-0.143 0.167,-0.11C0.194,-0.077 0.228,-0.061 0.266,-0.061C0.304,-0.061 0.337,-0.076 0.364,-0.108C0.39,-0.139 0.404,-0.187 0.404,-0.251C0.404,-0.322 0.39,-0.375 0.363,-0.408C0.335,-0.441 0.302,-0.458 0.262,-0.458C0.223,-0.458 0.19,-0.442 0.164,-0.41C0.138,-0.378 0.125,-0.327 0.125,-0.259Z" style="fill:white;fill-rule:nonzero;"/>
                    </g>
                    <g transform="matrix(150.153,0,0,150.153,1204.51,1147.62)">
                        <path d="M0.421,-0.167L0.512,-0.156C0.497,-0.103 0.471,-0.062 0.432,-0.032C0.393,-0.003 0.344,0.012 0.284,0.012C0.208,0.012 0.148,-0.012 0.103,-0.058C0.059,-0.105 0.037,-0.171 0.037,-0.255C0.037,-0.342 0.059,-0.41 0.104,-0.458C0.149,-0.506 0.207,-0.53 0.279,-0.53C0.348,-0.53 0.405,-0.507 0.449,-0.459C0.493,-0.412 0.515,-0.346 0.515,-0.26C0.515,-0.255 0.514,-0.247 0.514,-0.237L0.127,-0.237C0.131,-0.18 0.147,-0.136 0.176,-0.106C0.205,-0.076 0.241,-0.061 0.284,-0.061C0.316,-0.061 0.344,-0.069 0.367,-0.086C0.389,-0.103 0.408,-0.13 0.421,-0.167ZM0.132,-0.309L0.422,-0.309C0.418,-0.353 0.407,-0.385 0.389,-0.407C0.361,-0.441 0.324,-0.458 0.28,-0.458C0.239,-0.458 0.205,-0.444 0.178,-0.417C0.15,-0.39 0.135,-0.354 0.132,-0.309Z" style="fill:white;fill-rule:nonzero;"/>
                    </g>
                    <g transform="matrix(150.153,0,0,150.153,1288.02,1147.62)">
                        <path d="M0.065,-0L0.065,-0.519L0.144,-0.519L0.144,-0.44C0.164,-0.477 0.183,-0.501 0.2,-0.513C0.217,-0.524 0.236,-0.53 0.256,-0.53C0.286,-0.53 0.316,-0.521 0.347,-0.502L0.316,-0.42C0.295,-0.433 0.273,-0.439 0.252,-0.439C0.233,-0.439 0.215,-0.434 0.2,-0.422C0.185,-0.411 0.174,-0.395 0.167,-0.374C0.158,-0.343 0.153,-0.309 0.153,-0.271L0.153,-0L0.065,-0Z" style="fill:white;fill-rule:nonzero;"/>
                    </g>
                    <g transform="matrix(150.153,0,0,150.153,478.161,1302.69)">
                        <path d="M0.503,-0.084L0.503,-0L0.03,-0C0.03,-0.021 0.033,-0.042 0.041,-0.061C0.053,-0.093 0.072,-0.125 0.098,-0.156C0.125,-0.188 0.163,-0.224 0.213,-0.265C0.291,-0.328 0.344,-0.379 0.371,-0.416C0.398,-0.454 0.412,-0.489 0.412,-0.522C0.412,-0.557 0.4,-0.586 0.375,-0.61C0.35,-0.634 0.317,-0.646 0.277,-0.646C0.235,-0.646 0.201,-0.633 0.176,-0.608C0.15,-0.583 0.138,-0.547 0.137,-0.502L0.047,-0.512C0.053,-0.579 0.076,-0.63 0.117,-0.666C0.157,-0.701 0.211,-0.719 0.279,-0.719C0.348,-0.719 0.402,-0.7 0.442,-0.662C0.482,-0.624 0.502,-0.576 0.502,-0.52C0.502,-0.491 0.497,-0.463 0.485,-0.436C0.473,-0.408 0.454,-0.379 0.427,-0.348C0.399,-0.318 0.354,-0.276 0.291,-0.222C0.238,-0.178 0.204,-0.148 0.189,-0.132C0.174,-0.116 0.162,-0.1 0.152,-0.084L0.503,-0.084Z" style="fill:white;fill-rule:nonzero;"/>
                    </g>
                    <g transform="matrix(150.153,0,0,150.153,561.668,1302.69)">
                        <path d="M0.323,-0L0.323,-0.171L0.013,-0.171L0.013,-0.252L0.339,-0.716L0.411,-0.716L0.411,-0.252L0.508,-0.252L0.508,-0.171L0.411,-0.171L0.411,-0L0.323,-0ZM0.323,-0.252L0.323,-0.575L0.099,-0.252L0.323,-0.252Z" style="fill:white;fill-rule:nonzero;"/>
                    </g>
                    <g transform="matrix(150.153,0,0,150.153,645.176,1302.69)">
                        <path d="M0,0.012L0.208,-0.728L0.278,-0.728L0.071,0.012L0,0.012Z" style="fill:white;fill-rule:nonzero;"/>
                    </g>
                    <g transform="matrix(150.153,0,0,150.153,686.893,1302.69)">
                        <path d="M0.047,-0.622L0.047,-0.707L0.511,-0.707L0.511,-0.638C0.465,-0.59 0.42,-0.525 0.375,-0.445C0.33,-0.364 0.296,-0.282 0.271,-0.197C0.254,-0.137 0.243,-0.071 0.238,-0L0.147,-0C0.148,-0.056 0.16,-0.124 0.181,-0.204C0.202,-0.284 0.232,-0.361 0.272,-0.435C0.311,-0.509 0.353,-0.571 0.398,-0.622L0.047,-0.622Z" style="fill:white;fill-rule:nonzero;"/>
                    </g>
                    <g transform="matrix(150.153,0,0,150.153,812.118,1302.69)">
                        <path d="M0.045,-0.23L0.134,-0.238C0.139,-0.202 0.148,-0.173 0.164,-0.15C0.179,-0.127 0.203,-0.108 0.236,-0.094C0.268,-0.08 0.305,-0.073 0.346,-0.073C0.382,-0.073 0.414,-0.078 0.441,-0.089C0.469,-0.1 0.49,-0.114 0.503,-0.133C0.517,-0.152 0.523,-0.172 0.523,-0.194C0.523,-0.217 0.517,-0.236 0.504,-0.253C0.491,-0.27 0.469,-0.284 0.439,-0.295C0.42,-0.303 0.378,-0.315 0.312,-0.33C0.246,-0.346 0.2,-0.361 0.174,-0.375C0.14,-0.393 0.114,-0.415 0.097,-0.442C0.081,-0.468 0.072,-0.498 0.072,-0.531C0.072,-0.567 0.083,-0.601 0.103,-0.632C0.124,-0.663 0.153,-0.687 0.193,-0.704C0.232,-0.72 0.276,-0.728 0.324,-0.728C0.377,-0.728 0.424,-0.719 0.465,-0.702C0.505,-0.685 0.536,-0.66 0.558,-0.627C0.58,-0.594 0.592,-0.556 0.593,-0.514L0.502,-0.507C0.498,-0.553 0.481,-0.587 0.453,-0.61C0.425,-0.633 0.383,-0.645 0.328,-0.645C0.271,-0.645 0.229,-0.634 0.203,-0.613C0.177,-0.592 0.164,-0.567 0.164,-0.537C0.164,-0.511 0.173,-0.49 0.191,-0.474C0.21,-0.457 0.257,-0.44 0.334,-0.423C0.411,-0.405 0.464,-0.39 0.493,-0.377C0.534,-0.358 0.565,-0.333 0.585,-0.304C0.605,-0.274 0.615,-0.241 0.615,-0.202C0.615,-0.164 0.604,-0.128 0.582,-0.094C0.56,-0.061 0.529,-0.035 0.488,-0.016C0.447,0.003 0.401,0.012 0.35,0.012C0.285,0.012 0.231,0.003 0.187,-0.016C0.143,-0.035 0.109,-0.063 0.084,-0.101C0.059,-0.139 0.046,-0.182 0.045,-0.23Z" style="fill:white;fill-rule:nonzero;"/>
                    </g>
                    <g transform="matrix(150.153,0,0,150.153,912.269,1302.69)">
                        <path d="M0.406,-0L0.406,-0.076C0.365,-0.018 0.311,0.012 0.241,0.012C0.211,0.012 0.182,0.006 0.156,-0.006C0.129,-0.018 0.109,-0.032 0.096,-0.05C0.084,-0.068 0.075,-0.09 0.069,-0.115C0.066,-0.132 0.064,-0.16 0.064,-0.197L0.064,-0.519L0.152,-0.519L0.152,-0.231C0.152,-0.185 0.154,-0.154 0.157,-0.138C0.163,-0.115 0.174,-0.097 0.192,-0.084C0.21,-0.071 0.232,-0.064 0.259,-0.064C0.285,-0.064 0.31,-0.071 0.333,-0.084C0.356,-0.098 0.372,-0.116 0.382,-0.139C0.392,-0.163 0.396,-0.196 0.396,-0.241L0.396,-0.519L0.484,-0.519L0.484,-0L0.406,-0Z" style="fill:white;fill-rule:nonzero;"/>
                    </g>
                    <g transform="matrix(150.153,0,0,150.153,995.776,1302.69)">
                        <path d="M0.066,0.199L0.066,-0.519L0.146,-0.519L0.146,-0.451C0.165,-0.478 0.186,-0.497 0.21,-0.51C0.234,-0.524 0.263,-0.53 0.296,-0.53C0.341,-0.53 0.38,-0.519 0.414,-0.496C0.447,-0.473 0.473,-0.441 0.49,-0.4C0.507,-0.358 0.516,-0.313 0.516,-0.263C0.516,-0.21 0.507,-0.162 0.488,-0.12C0.469,-0.077 0.441,-0.045 0.405,-0.022C0.368,0 0.33,0.012 0.29,0.012C0.261,0.012 0.234,0.006 0.211,-0.007C0.188,-0.019 0.169,-0.035 0.154,-0.054L0.154,0.199L0.066,0.199ZM0.146,-0.256C0.146,-0.19 0.159,-0.14 0.186,-0.108C0.213,-0.076 0.246,-0.061 0.284,-0.061C0.323,-0.061 0.357,-0.077 0.385,-0.11C0.412,-0.143 0.426,-0.194 0.426,-0.264C0.426,-0.33 0.413,-0.379 0.385,-0.412C0.358,-0.445 0.326,-0.461 0.288,-0.461C0.251,-0.461 0.218,-0.444 0.189,-0.409C0.16,-0.374 0.146,-0.323 0.146,-0.256Z" style="fill:white;fill-rule:nonzero;"/>
                    </g>
                    <g transform="matrix(150.153,0,0,150.153,1079.28,1302.69)">
                        <path d="M0.066,0.199L0.066,-0.519L0.146,-0.519L0.146,-0.451C0.165,-0.478 0.186,-0.497 0.21,-0.51C0.234,-0.524 0.263,-0.53 0.296,-0.53C0.341,-0.53 0.38,-0.519 0.414,-0.496C0.447,-0.473 0.473,-0.441 0.49,-0.4C0.507,-0.358 0.516,-0.313 0.516,-0.263C0.516,-0.21 0.507,-0.162 0.488,-0.12C0.469,-0.077 0.441,-0.045 0.405,-0.022C0.368,0 0.33,0.012 0.29,0.012C0.261,0.012 0.234,0.006 0.211,-0.007C0.188,-0.019 0.169,-0.035 0.154,-0.054L0.154,0.199L0.066,0.199ZM0.146,-0.256C0.146,-0.19 0.159,-0.14 0.186,-0.108C0.213,-0.076 0.246,-0.061 0.284,-0.061C0.323,-0.061 0.357,-0.077 0.385,-0.11C0.412,-0.143 0.426,-0.194 0.426,-0.264C0.426,-0.33 0.413,-0.379 0.385,-0.412C0.358,-0.445 0.326,-0.461 0.288,-0.461C0.251,-0.461 0.218,-0.444 0.189,-0.409C0.16,-0.374 0.146,-0.323 0.146,-0.256Z" style="fill:white;fill-rule:nonzero;"/>
                    </g>
                    <g transform="matrix(150.153,0,0,150.153,1162.79,1302.69)">
                        <path d="M0.033,-0.259C0.033,-0.355 0.06,-0.426 0.113,-0.473C0.158,-0.511 0.212,-0.53 0.276,-0.53C0.348,-0.53 0.406,-0.507 0.451,-0.46C0.496,-0.413 0.519,-0.349 0.519,-0.267C0.519,-0.2 0.509,-0.147 0.489,-0.109C0.469,-0.071 0.44,-0.041 0.402,-0.02C0.363,0.001 0.322,0.012 0.276,0.012C0.204,0.012 0.145,-0.012 0.1,-0.058C0.056,-0.105 0.033,-0.172 0.033,-0.259ZM0.124,-0.259C0.124,-0.193 0.138,-0.143 0.167,-0.11C0.196,-0.077 0.232,-0.061 0.276,-0.061C0.32,-0.061 0.356,-0.077 0.385,-0.11C0.414,-0.144 0.429,-0.194 0.429,-0.262C0.429,-0.326 0.414,-0.375 0.385,-0.408C0.356,-0.441 0.32,-0.458 0.276,-0.458C0.232,-0.458 0.196,-0.441 0.167,-0.408C0.138,-0.375 0.124,-0.326 0.124,-0.259Z" style="fill:white;fill-rule:nonzero;"/>
                    </g>
                    <g transform="matrix(150.153,0,0,150.153,1246.3,1302.69)">
                        <path d="M0.065,-0L0.065,-0.519L0.144,-0.519L0.144,-0.44C0.164,-0.477 0.183,-0.501 0.2,-0.513C0.217,-0.524 0.236,-0.53 0.256,-0.53C0.286,-0.53 0.316,-0.521 0.347,-0.502L0.316,-0.42C0.295,-0.433 0.273,-0.439 0.252,-0.439C0.233,-0.439 0.215,-0.434 0.2,-0.422C0.185,-0.411 0.174,-0.395 0.167,-0.374C0.158,-0.343 0.153,-0.309 0.153,-0.271L0.153,-0L0.065,-0Z" style="fill:white;fill-rule:nonzero;"/>
                    </g>
                    <g transform="matrix(150.153,0,0,150.153,1296.3,1302.69)">
                        <path d="M0.258,-0.079L0.271,-0.001C0.246,0.004 0.224,0.007 0.204,0.007C0.172,0.007 0.147,0.002 0.13,-0.008C0.112,-0.018 0.1,-0.032 0.093,-0.048C0.086,-0.065 0.082,-0.099 0.082,-0.152L0.082,-0.45L0.018,-0.45L0.018,-0.519L0.082,-0.519L0.082,-0.647L0.169,-0.7L0.169,-0.519L0.258,-0.519L0.258,-0.45L0.169,-0.45L0.169,-0.147C0.169,-0.122 0.171,-0.106 0.174,-0.099C0.177,-0.091 0.182,-0.086 0.189,-0.082C0.196,-0.077 0.206,-0.075 0.219,-0.075C0.229,-0.075 0.242,-0.076 0.258,-0.079Z" style="fill:white;fill-rule:nonzero;"/>
                    </g>
                </g>
                <g transform="matrix(0.226667,0,0,0.248333,173.32,474)">
                    <rect x="662" y="916" width="7" height="233" style="fill:white;"/>
                </g>
                <g transform="matrix(0.226667,0,0,0.248333,247.44,473.255)">
                    <g transform="matrix(1,0,0,1,-309.166,0)">
                        <g transform="matrix(0.895902,0,0,0.895902,123.995,108.826)">
                            <g transform="matrix(191.258,0,0,191.258,722,1058)">
                                <path d="M0.042,-0.189L0.13,-0.201C0.14,-0.151 0.157,-0.115 0.181,-0.093C0.206,-0.071 0.235,-0.06 0.27,-0.06C0.311,-0.06 0.346,-0.074 0.375,-0.103C0.403,-0.132 0.417,-0.167 0.417,-0.209C0.417,-0.25 0.404,-0.283 0.378,-0.309C0.352,-0.336 0.318,-0.349 0.277,-0.349C0.261,-0.349 0.24,-0.345 0.215,-0.339L0.225,-0.416C0.231,-0.415 0.236,-0.415 0.239,-0.415C0.277,-0.415 0.31,-0.425 0.34,-0.444C0.37,-0.464 0.385,-0.494 0.385,-0.535C0.385,-0.567 0.374,-0.594 0.353,-0.615C0.331,-0.636 0.303,-0.646 0.268,-0.646C0.234,-0.646 0.205,-0.636 0.183,-0.614C0.16,-0.593 0.145,-0.561 0.139,-0.518L0.051,-0.533C0.062,-0.592 0.086,-0.638 0.124,-0.67C0.162,-0.703 0.209,-0.719 0.266,-0.719C0.305,-0.719 0.341,-0.71 0.374,-0.694C0.407,-0.677 0.432,-0.654 0.449,-0.625C0.467,-0.596 0.476,-0.565 0.476,-0.533C0.476,-0.502 0.467,-0.474 0.451,-0.448C0.434,-0.423 0.41,-0.403 0.377,-0.388C0.419,-0.378 0.452,-0.358 0.476,-0.327C0.499,-0.296 0.511,-0.258 0.511,-0.211C0.511,-0.149 0.488,-0.096 0.442,-0.052C0.397,-0.009 0.339,0.013 0.27,0.013C0.207,0.013 0.155,-0.006 0.113,-0.043C0.072,-0.081 0.048,-0.129 0.042,-0.189Z" style="fill:white;fill-rule:nonzero;"/>
                            </g>
                            <g transform="matrix(191.258,0,0,191.258,828.369,1058)">
                                <rect x="0.091" y="-0.1" width="0.1" height="0.1" style="fill:white;fill-rule:nonzero;"/>
                            </g>
                            <g transform="matrix(191.258,0,0,191.258,881.506,1058)">
                                <path d="M0.055,-0.166L0.139,-0.173C0.146,-0.134 0.16,-0.105 0.18,-0.087C0.2,-0.069 0.226,-0.06 0.258,-0.06C0.285,-0.06 0.309,-0.066 0.329,-0.079C0.349,-0.091 0.366,-0.108 0.379,-0.128C0.392,-0.149 0.403,-0.177 0.412,-0.212C0.42,-0.247 0.425,-0.283 0.425,-0.319C0.425,-0.323 0.425,-0.329 0.424,-0.337C0.407,-0.309 0.383,-0.286 0.352,-0.269C0.322,-0.251 0.289,-0.243 0.253,-0.243C0.194,-0.243 0.144,-0.264 0.103,-0.307C0.062,-0.35 0.042,-0.407 0.042,-0.477C0.042,-0.55 0.063,-0.608 0.106,-0.652C0.149,-0.697 0.202,-0.719 0.267,-0.719C0.313,-0.719 0.356,-0.706 0.394,-0.681C0.433,-0.656 0.462,-0.62 0.482,-0.574C0.502,-0.528 0.512,-0.46 0.512,-0.373C0.512,-0.281 0.502,-0.208 0.482,-0.154C0.463,-0.1 0.433,-0.059 0.394,-0.03C0.355,-0.002 0.309,0.012 0.256,0.012C0.2,0.012 0.154,-0.003 0.119,-0.034C0.083,-0.066 0.062,-0.109 0.055,-0.166ZM0.415,-0.481C0.415,-0.532 0.401,-0.572 0.374,-0.602C0.347,-0.631 0.315,-0.646 0.277,-0.646C0.238,-0.646 0.204,-0.63 0.175,-0.598C0.146,-0.566 0.132,-0.525 0.132,-0.474C0.132,-0.429 0.146,-0.392 0.173,-0.363C0.201,-0.335 0.235,-0.32 0.275,-0.32C0.316,-0.32 0.349,-0.335 0.375,-0.363C0.401,-0.392 0.415,-0.431 0.415,-0.481Z" style="fill:white;fill-rule:nonzero;"/>
                            </g>
                            <g transform="matrix(191.258,0,0,191.258,987.875,1058)">
                                <path d="M0.498,-0.541L0.41,-0.534C0.402,-0.568 0.391,-0.593 0.377,-0.609C0.353,-0.634 0.324,-0.646 0.289,-0.646C0.261,-0.646 0.236,-0.639 0.215,-0.623C0.188,-0.603 0.166,-0.573 0.15,-0.535C0.134,-0.496 0.126,-0.441 0.125,-0.369C0.146,-0.401 0.172,-0.425 0.203,-0.441C0.233,-0.457 0.265,-0.464 0.299,-0.464C0.357,-0.464 0.407,-0.443 0.448,-0.4C0.49,-0.357 0.51,-0.301 0.51,-0.232C0.51,-0.188 0.501,-0.146 0.481,-0.107C0.462,-0.069 0.435,-0.039 0.401,-0.019C0.368,0.002 0.329,0.012 0.286,0.012C0.213,0.012 0.153,-0.015 0.107,-0.069C0.061,-0.122 0.038,-0.211 0.038,-0.335C0.038,-0.473 0.063,-0.574 0.114,-0.637C0.159,-0.691 0.219,-0.719 0.294,-0.719C0.351,-0.719 0.397,-0.703 0.433,-0.671C0.469,-0.64 0.49,-0.596 0.498,-0.541ZM0.139,-0.232C0.139,-0.202 0.145,-0.173 0.158,-0.145C0.171,-0.117 0.189,-0.096 0.212,-0.082C0.235,-0.067 0.259,-0.06 0.285,-0.06C0.322,-0.06 0.354,-0.075 0.38,-0.105C0.407,-0.135 0.42,-0.176 0.42,-0.227C0.42,-0.277 0.407,-0.316 0.381,-0.344C0.354,-0.372 0.321,-0.387 0.281,-0.387C0.242,-0.387 0.208,-0.372 0.18,-0.344C0.153,-0.316 0.139,-0.278 0.139,-0.232Z" style="fill:white;fill-rule:nonzero;"/>
                            </g>
                        </g>
                        <g transform="matrix(98.3196,0,0,98.3196,718.361,1006.1)">
                            <path d="M0.249,0.103L0.249,0.015C0.205,0.01 0.169,-0 0.142,-0.014C0.114,-0.029 0.091,-0.051 0.071,-0.083C0.051,-0.115 0.039,-0.153 0.036,-0.199L0.124,-0.215C0.131,-0.168 0.143,-0.133 0.16,-0.111C0.185,-0.08 0.215,-0.063 0.249,-0.059L0.249,-0.339C0.213,-0.346 0.176,-0.36 0.138,-0.381C0.11,-0.396 0.089,-0.418 0.073,-0.446C0.058,-0.473 0.051,-0.505 0.051,-0.54C0.051,-0.603 0.073,-0.653 0.117,-0.692C0.147,-0.718 0.191,-0.734 0.249,-0.74L0.249,-0.782L0.301,-0.782L0.301,-0.74C0.352,-0.735 0.392,-0.72 0.422,-0.695C0.461,-0.663 0.484,-0.619 0.492,-0.563L0.401,-0.55C0.396,-0.584 0.385,-0.611 0.368,-0.629C0.352,-0.648 0.329,-0.66 0.301,-0.666L0.301,-0.412C0.345,-0.401 0.374,-0.392 0.389,-0.386C0.416,-0.374 0.438,-0.36 0.456,-0.342C0.473,-0.325 0.486,-0.305 0.495,-0.281C0.505,-0.257 0.509,-0.231 0.509,-0.204C0.509,-0.143 0.49,-0.092 0.451,-0.051C0.412,-0.011 0.362,0.011 0.301,0.014L0.301,0.103L0.249,0.103ZM0.249,-0.667C0.215,-0.661 0.188,-0.648 0.168,-0.625C0.149,-0.603 0.139,-0.577 0.139,-0.547C0.139,-0.517 0.147,-0.492 0.164,-0.472C0.181,-0.451 0.209,-0.435 0.249,-0.423L0.249,-0.667ZM0.301,-0.059C0.335,-0.063 0.363,-0.078 0.385,-0.104C0.408,-0.129 0.419,-0.16 0.419,-0.198C0.419,-0.23 0.411,-0.255 0.395,-0.275C0.379,-0.294 0.348,-0.311 0.301,-0.327L0.301,-0.059Z" style="fill:white;fill-rule:nonzero;"/>
                        </g>
                    </g>
                    <g transform="matrix(0.764216,0,0,0.764216,-99.2164,266.352)">
                        <g transform="matrix(72.5944,0,0,72.5944,730,1133)">
                            <path d="M0.077,-0L0.077,-0.716L0.347,-0.716C0.395,-0.716 0.431,-0.714 0.456,-0.709C0.491,-0.703 0.521,-0.692 0.544,-0.676C0.568,-0.659 0.587,-0.636 0.602,-0.606C0.616,-0.577 0.624,-0.544 0.624,-0.509C0.624,-0.448 0.604,-0.396 0.565,-0.354C0.527,-0.312 0.457,-0.291 0.355,-0.291L0.172,-0.291L0.172,-0L0.077,-0ZM0.172,-0.375L0.357,-0.375C0.418,-0.375 0.462,-0.387 0.487,-0.41C0.513,-0.432 0.526,-0.465 0.526,-0.506C0.526,-0.536 0.518,-0.561 0.503,-0.583C0.488,-0.604 0.468,-0.618 0.443,-0.625C0.427,-0.629 0.398,-0.631 0.355,-0.631L0.172,-0.631L0.172,-0.375Z" style="fill:white;fill-rule:nonzero;"/>
                        </g>
                        <g transform="matrix(72.5944,0,0,72.5944,778.42,1133)">
                            <path d="M0.079,-0L0.079,-0.716L0.597,-0.716L0.597,-0.631L0.174,-0.631L0.174,-0.412L0.57,-0.412L0.57,-0.328L0.174,-0.328L0.174,-0.084L0.613,-0.084L0.613,-0L0.079,-0Z" style="fill:white;fill-rule:nonzero;"/>
                        </g>
                        <g transform="matrix(72.5944,0,0,72.5944,826.84,1133)">
                            <path d="M0.079,-0L0.079,-0.716L0.396,-0.716C0.46,-0.716 0.508,-0.709 0.542,-0.697C0.575,-0.684 0.601,-0.661 0.621,-0.628C0.641,-0.596 0.651,-0.56 0.651,-0.521C0.651,-0.47 0.634,-0.427 0.602,-0.392C0.569,-0.357 0.518,-0.335 0.449,-0.326C0.474,-0.314 0.493,-0.302 0.506,-0.29C0.534,-0.265 0.56,-0.233 0.585,-0.195L0.709,-0L0.59,-0L0.496,-0.149C0.468,-0.192 0.445,-0.225 0.427,-0.248C0.409,-0.27 0.393,-0.286 0.379,-0.295C0.365,-0.305 0.351,-0.311 0.336,-0.314C0.325,-0.317 0.308,-0.318 0.283,-0.318L0.173,-0.318L0.173,-0L0.079,-0ZM0.173,-0.4L0.377,-0.4C0.42,-0.4 0.454,-0.404 0.479,-0.413C0.503,-0.422 0.521,-0.437 0.534,-0.456C0.547,-0.476 0.553,-0.497 0.553,-0.521C0.553,-0.554 0.541,-0.582 0.516,-0.604C0.492,-0.626 0.453,-0.637 0.4,-0.637L0.173,-0.637L0.173,-0.4Z" style="fill:white;fill-rule:nonzero;"/>
                        </g>
                        <g transform="matrix(72.5944,0,0,72.5944,899.434,1133)">
                            <path d="M0.074,-0L0.074,-0.716L0.217,-0.716L0.386,-0.209C0.402,-0.162 0.413,-0.126 0.42,-0.103C0.429,-0.129 0.441,-0.167 0.458,-0.218L0.63,-0.716L0.757,-0.716L0.757,-0L0.666,-0L0.666,-0.599L0.458,-0L0.373,-0L0.166,-0.609L0.166,-0L0.074,-0Z" style="fill:white;fill-rule:nonzero;"/>
                        </g>
                        <g transform="matrix(72.5944,0,0,72.5944,959.906,1133)">
                            <path d="M0.048,-0.349C0.048,-0.467 0.08,-0.56 0.144,-0.628C0.208,-0.695 0.29,-0.729 0.391,-0.729C0.457,-0.729 0.517,-0.713 0.57,-0.681C0.623,-0.65 0.663,-0.606 0.691,-0.549C0.719,-0.493 0.733,-0.429 0.733,-0.357C0.733,-0.284 0.718,-0.219 0.689,-0.162C0.66,-0.105 0.618,-0.061 0.564,-0.032C0.511,-0.003 0.453,0.012 0.391,0.012C0.323,0.012 0.263,-0.004 0.21,-0.037C0.157,-0.069 0.117,-0.114 0.089,-0.17C0.062,-0.226 0.048,-0.286 0.048,-0.349ZM0.146,-0.347C0.146,-0.261 0.169,-0.193 0.216,-0.143C0.262,-0.094 0.32,-0.069 0.39,-0.069C0.461,-0.069 0.52,-0.094 0.566,-0.144C0.612,-0.194 0.635,-0.265 0.635,-0.357C0.635,-0.416 0.625,-0.467 0.606,-0.51C0.586,-0.553 0.557,-0.587 0.519,-0.611C0.481,-0.635 0.439,-0.647 0.392,-0.647C0.325,-0.647 0.267,-0.624 0.219,-0.578C0.17,-0.532 0.146,-0.455 0.146,-0.347Z" style="fill:white;fill-rule:nonzero;"/>
                        </g>
                        <g transform="matrix(72.5944,0,0,72.5944,1016.37,1133)">
                            <path d="M0.076,-0L0.076,-0.716L0.173,-0.716L0.549,-0.154L0.549,-0.716L0.64,-0.716L0.64,-0L0.543,-0L0.167,-0.563L0.167,-0L0.076,-0Z" style="fill:white;fill-rule:nonzero;"/>
                        </g>
                        <g transform="matrix(72.5944,0,0,72.5944,1068.8,1133)">
                            <path d="M0.259,-0L0.259,-0.631L0.023,-0.631L0.023,-0.716L0.591,-0.716L0.591,-0.631L0.354,-0.631L0.354,-0L0.259,-0Z" style="fill:white;fill-rule:nonzero;"/>
                        </g>
                        <g transform="matrix(72.5944,0,0,72.5944,1113.14,1133)">
                            <path d="M0.08,-0L0.08,-0.716L0.175,-0.716L0.175,-0.422L0.547,-0.422L0.547,-0.716L0.642,-0.716L0.642,-0L0.547,-0L0.547,-0.337L0.175,-0.337L0.175,-0L0.08,-0Z" style="fill:white;fill-rule:nonzero;"/>
                        </g>
                    </g>
                </g>
            </g>
            <g transform="matrix(0.105773,0,0,0.115883,175.632,529.481)">
                <g transform="matrix(227.556,0,0,227.556,277.333,562)">
                    <path d="M0.073,-0.716L0.359,-0.716C0.416,-0.716 0.458,-0.713 0.486,-0.709C0.514,-0.704 0.539,-0.694 0.561,-0.679C0.583,-0.664 0.601,-0.644 0.616,-0.619C0.63,-0.594 0.638,-0.567 0.638,-0.536C0.638,-0.502 0.629,-0.471 0.611,-0.443C0.593,-0.415 0.568,-0.394 0.537,-0.38C0.581,-0.368 0.614,-0.346 0.638,-0.315C0.661,-0.285 0.673,-0.249 0.673,-0.208C0.673,-0.175 0.665,-0.143 0.65,-0.113C0.635,-0.082 0.614,-0.057 0.588,-0.039C0.562,-0.02 0.53,-0.009 0.491,-0.005C0.467,-0.002 0.409,-0.001 0.317,-0L0.073,-0L0.073,-0.716ZM0.218,-0.597L0.218,-0.431L0.313,-0.431C0.369,-0.431 0.404,-0.432 0.417,-0.434C0.442,-0.437 0.462,-0.445 0.476,-0.459C0.49,-0.473 0.497,-0.492 0.497,-0.515C0.497,-0.537 0.491,-0.555 0.479,-0.569C0.467,-0.583 0.448,-0.591 0.424,-0.594C0.41,-0.596 0.369,-0.597 0.301,-0.597L0.218,-0.597ZM0.218,-0.312L0.218,-0.121L0.352,-0.121C0.404,-0.121 0.437,-0.122 0.451,-0.125C0.472,-0.129 0.49,-0.138 0.503,-0.154C0.517,-0.169 0.523,-0.189 0.523,-0.214C0.523,-0.236 0.518,-0.254 0.508,-0.269C0.497,-0.284 0.482,-0.295 0.463,-0.302C0.443,-0.309 0.4,-0.312 0.334,-0.312L0.218,-0.312Z" style="fill:white;fill-rule:nonzero;"/>
                </g>
                <g transform="matrix(227.556,0,0,227.556,441.667,562)">
                    <path d="M0.072,-0.716L0.216,-0.716L0.216,-0.328C0.216,-0.267 0.218,-0.227 0.222,-0.208C0.228,-0.179 0.243,-0.156 0.266,-0.138C0.289,-0.12 0.321,-0.111 0.361,-0.111C0.402,-0.111 0.433,-0.12 0.454,-0.136C0.475,-0.153 0.487,-0.174 0.492,-0.198C0.496,-0.223 0.498,-0.263 0.498,-0.32L0.498,-0.716L0.643,-0.716L0.643,-0.34C0.643,-0.254 0.639,-0.193 0.631,-0.158C0.623,-0.122 0.609,-0.092 0.588,-0.068C0.567,-0.043 0.539,-0.024 0.503,-0.01C0.468,0.005 0.422,0.012 0.366,0.012C0.297,0.012 0.246,0.004 0.21,-0.011C0.175,-0.027 0.147,-0.048 0.126,-0.073C0.106,-0.098 0.092,-0.125 0.086,-0.152C0.076,-0.193 0.072,-0.254 0.072,-0.334L0.072,-0.716Z" style="fill:white;fill-rule:nonzero;"/>
                </g>
                <g transform="matrix(227.556,0,0,227.556,606,562)">
                    <rect x="0.068" y="-0.716" width="0.145" height="0.716" style="fill:white;fill-rule:nonzero;"/>
                </g>
                <g transform="matrix(227.556,0,0,227.556,669.222,562)">
                    <path d="M0.077,-0L0.077,-0.71L0.221,-0.71L0.221,-0.121L0.581,-0.121L0.581,-0L0.077,-0Z" style="fill:white;fill-rule:nonzero;"/>
                </g>
                <g transform="matrix(227.556,0,0,227.556,808.222,562)">
                    <path d="M0.072,-0.716L0.336,-0.716C0.396,-0.716 0.441,-0.711 0.473,-0.702C0.515,-0.69 0.551,-0.668 0.581,-0.636C0.611,-0.605 0.633,-0.566 0.649,-0.52C0.665,-0.475 0.672,-0.418 0.672,-0.351C0.672,-0.292 0.665,-0.241 0.65,-0.199C0.632,-0.147 0.607,-0.104 0.574,-0.072C0.549,-0.048 0.515,-0.029 0.472,-0.015C0.44,-0.005 0.398,-0 0.344,-0L0.072,-0L0.072,-0.716ZM0.217,-0.595L0.217,-0.121L0.325,-0.121C0.365,-0.121 0.394,-0.123 0.412,-0.127C0.436,-0.133 0.455,-0.143 0.47,-0.157C0.486,-0.171 0.499,-0.194 0.508,-0.226C0.518,-0.258 0.523,-0.302 0.523,-0.357C0.523,-0.413 0.518,-0.455 0.508,-0.485C0.499,-0.514 0.485,-0.538 0.467,-0.554C0.45,-0.571 0.427,-0.582 0.4,-0.588C0.38,-0.592 0.341,-0.595 0.282,-0.595L0.217,-0.595Z" style="fill:white;fill-rule:nonzero;"/>
                </g>
                <g transform="matrix(227.556,0,0,227.556,1035.78,562)">
                    <path d="M0.706,-0.087L0.623,0.019C0.582,-0.001 0.543,-0.029 0.506,-0.063C0.477,-0.037 0.446,-0.018 0.414,-0.006C0.381,0.007 0.342,0.013 0.297,0.013C0.208,0.013 0.141,-0.012 0.096,-0.063C0.061,-0.101 0.044,-0.146 0.044,-0.196C0.044,-0.242 0.058,-0.283 0.085,-0.32C0.112,-0.357 0.153,-0.389 0.208,-0.416C0.183,-0.444 0.165,-0.472 0.152,-0.498C0.14,-0.524 0.134,-0.549 0.134,-0.573C0.134,-0.616 0.151,-0.653 0.186,-0.683C0.22,-0.713 0.27,-0.728 0.334,-0.728C0.396,-0.728 0.444,-0.712 0.479,-0.681C0.514,-0.649 0.531,-0.611 0.531,-0.565C0.531,-0.536 0.523,-0.508 0.505,-0.482C0.488,-0.456 0.453,-0.427 0.401,-0.394L0.5,-0.263C0.512,-0.284 0.522,-0.311 0.531,-0.344L0.655,-0.316C0.642,-0.272 0.632,-0.24 0.623,-0.219C0.613,-0.199 0.604,-0.182 0.593,-0.168C0.609,-0.154 0.628,-0.138 0.653,-0.121C0.677,-0.104 0.695,-0.093 0.706,-0.087ZM0.333,-0.477L0.37,-0.505C0.397,-0.526 0.411,-0.547 0.411,-0.568C0.411,-0.585 0.404,-0.6 0.391,-0.613C0.378,-0.625 0.36,-0.631 0.337,-0.631C0.316,-0.631 0.299,-0.626 0.286,-0.615C0.274,-0.604 0.268,-0.591 0.268,-0.577C0.268,-0.56 0.278,-0.54 0.299,-0.516L0.333,-0.477ZM0.279,-0.328C0.247,-0.312 0.224,-0.292 0.208,-0.27C0.192,-0.248 0.185,-0.225 0.185,-0.201C0.185,-0.172 0.194,-0.147 0.214,-0.129C0.233,-0.11 0.259,-0.101 0.292,-0.101C0.313,-0.101 0.334,-0.105 0.354,-0.113C0.373,-0.122 0.395,-0.136 0.418,-0.155L0.279,-0.328Z" style="fill:white;fill-rule:nonzero;"/>
                </g>
                <g transform="matrix(227.556,0,0,227.556,1263.33,562)">
                    <path d="M0.531,-0.263L0.671,-0.219C0.649,-0.141 0.614,-0.083 0.564,-0.045C0.514,-0.007 0.45,0.012 0.374,0.012C0.278,0.012 0.2,-0.02 0.139,-0.085C0.078,-0.15 0.047,-0.239 0.047,-0.352C0.047,-0.471 0.078,-0.563 0.14,-0.629C0.201,-0.695 0.282,-0.728 0.382,-0.728C0.47,-0.728 0.541,-0.702 0.596,-0.65C0.628,-0.62 0.653,-0.576 0.669,-0.519L0.526,-0.484C0.517,-0.521 0.5,-0.551 0.473,-0.572C0.446,-0.594 0.413,-0.604 0.375,-0.604C0.322,-0.604 0.279,-0.585 0.246,-0.547C0.213,-0.509 0.196,-0.448 0.196,-0.362C0.196,-0.272 0.213,-0.207 0.245,-0.169C0.278,-0.131 0.32,-0.111 0.372,-0.111C0.41,-0.111 0.444,-0.124 0.471,-0.148C0.499,-0.172 0.519,-0.211 0.531,-0.263Z" style="fill:white;fill-rule:nonzero;"/>
                </g>
                <g transform="matrix(227.556,0,0,227.556,1427.67,562)">
                    <path d="M0.073,-0L0.073,-0.716L0.377,-0.716C0.454,-0.716 0.51,-0.709 0.544,-0.697C0.579,-0.684 0.607,-0.661 0.627,-0.628C0.648,-0.595 0.659,-0.557 0.659,-0.515C0.659,-0.461 0.643,-0.417 0.611,-0.382C0.58,-0.347 0.533,-0.325 0.47,-0.316C0.501,-0.298 0.527,-0.278 0.547,-0.256C0.567,-0.234 0.595,-0.195 0.629,-0.14L0.717,-0L0.544,-0L0.439,-0.156C0.402,-0.211 0.377,-0.247 0.363,-0.261C0.35,-0.275 0.335,-0.285 0.32,-0.291C0.305,-0.296 0.28,-0.299 0.247,-0.299L0.218,-0.299L0.218,-0L0.073,-0ZM0.218,-0.413L0.325,-0.413C0.394,-0.413 0.437,-0.416 0.455,-0.422C0.472,-0.428 0.485,-0.438 0.495,-0.452C0.505,-0.466 0.51,-0.484 0.51,-0.506C0.51,-0.53 0.503,-0.549 0.49,-0.564C0.478,-0.579 0.459,-0.588 0.436,-0.592C0.424,-0.594 0.389,-0.595 0.331,-0.595L0.218,-0.595L0.218,-0.413Z" style="fill:white;fill-rule:nonzero;"/>
                </g>
                <g transform="matrix(227.556,0,0,227.556,1592,562)">
                    <path d="M0.073,-0L0.073,-0.716L0.604,-0.716L0.604,-0.595L0.217,-0.595L0.217,-0.436L0.577,-0.436L0.577,-0.315L0.217,-0.315L0.217,-0.121L0.617,-0.121L0.617,-0L0.073,-0Z" style="fill:white;fill-rule:nonzero;"/>
                </g>
                <g transform="matrix(227.556,0,0,227.556,1743.78,562)">
                    <path d="M0.718,-0L0.561,-0L0.499,-0.163L0.212,-0.163L0.153,-0L0,-0L0.279,-0.716L0.432,-0.716L0.718,-0ZM0.452,-0.283L0.354,-0.549L0.257,-0.283L0.452,-0.283Z" style="fill:white;fill-rule:nonzero;"/>
                </g>
                <g transform="matrix(227.556,0,0,227.556,1891.22,562)">
                    <path d="M0.234,-0L0.234,-0.595L0.021,-0.595L0.021,-0.716L0.59,-0.716L0.59,-0.595L0.378,-0.595L0.378,-0L0.234,-0Z" style="fill:white;fill-rule:nonzero;"/>
                </g>
                <g transform="matrix(227.556,0,0,227.556,2030.22,562)">
                    <path d="M0.073,-0L0.073,-0.716L0.604,-0.716L0.604,-0.595L0.217,-0.595L0.217,-0.436L0.577,-0.436L0.577,-0.315L0.217,-0.315L0.217,-0.121L0.617,-0.121L0.617,-0L0.073,-0Z" style="fill:white;fill-rule:nonzero;"/>
                </g>
                <g transform="matrix(227.556,0,0,227.556,148.722,797)">
                    <path d="M0.261,-0L0.261,-0.301L-0.001,-0.716L0.168,-0.716L0.336,-0.433L0.501,-0.716L0.668,-0.716L0.405,-0.3L0.405,-0L0.261,-0Z" style="fill:white;fill-rule:nonzero;"/>
                </g>
                <g transform="matrix(227.556,0,0,227.556,300.5,797)">
                    <path d="M0.043,-0.354C0.043,-0.426 0.054,-0.488 0.076,-0.537C0.092,-0.574 0.115,-0.606 0.143,-0.635C0.171,-0.664 0.202,-0.686 0.235,-0.7C0.28,-0.719 0.331,-0.728 0.39,-0.728C0.495,-0.728 0.58,-0.695 0.643,-0.63C0.706,-0.564 0.738,-0.473 0.738,-0.357C0.738,-0.241 0.706,-0.151 0.644,-0.086C0.581,-0.02 0.497,0.012 0.392,0.012C0.285,0.012 0.201,-0.02 0.138,-0.085C0.075,-0.15 0.043,-0.24 0.043,-0.354ZM0.192,-0.358C0.192,-0.277 0.211,-0.216 0.249,-0.174C0.286,-0.132 0.333,-0.111 0.391,-0.111C0.449,-0.111 0.496,-0.132 0.533,-0.174C0.57,-0.215 0.588,-0.277 0.588,-0.36C0.588,-0.442 0.57,-0.504 0.534,-0.544C0.498,-0.584 0.451,-0.604 0.391,-0.604C0.332,-0.604 0.284,-0.584 0.247,-0.543C0.211,-0.502 0.192,-0.441 0.192,-0.358Z" style="fill:white;fill-rule:nonzero;"/>
                </g>
                <g transform="matrix(227.556,0,0,227.556,477.5,797)">
                    <path d="M0.072,-0.716L0.216,-0.716L0.216,-0.328C0.216,-0.267 0.218,-0.227 0.222,-0.208C0.228,-0.179 0.243,-0.156 0.266,-0.138C0.289,-0.12 0.321,-0.111 0.361,-0.111C0.402,-0.111 0.433,-0.12 0.454,-0.136C0.475,-0.153 0.487,-0.174 0.492,-0.198C0.496,-0.223 0.498,-0.263 0.498,-0.32L0.498,-0.716L0.643,-0.716L0.643,-0.34C0.643,-0.254 0.639,-0.193 0.631,-0.158C0.623,-0.122 0.609,-0.092 0.588,-0.068C0.567,-0.043 0.539,-0.024 0.503,-0.01C0.468,0.005 0.422,0.012 0.366,0.012C0.297,0.012 0.246,0.004 0.21,-0.011C0.175,-0.027 0.147,-0.048 0.126,-0.073C0.106,-0.098 0.092,-0.125 0.086,-0.152C0.076,-0.193 0.072,-0.254 0.072,-0.334L0.072,-0.716Z" style="fill:white;fill-rule:nonzero;"/>
                </g>
                <g transform="matrix(227.556,0,0,227.556,641.833,797)">
                    <path d="M0.073,-0L0.073,-0.716L0.377,-0.716C0.454,-0.716 0.51,-0.709 0.544,-0.697C0.579,-0.684 0.607,-0.661 0.627,-0.628C0.648,-0.595 0.659,-0.557 0.659,-0.515C0.659,-0.461 0.643,-0.417 0.611,-0.382C0.58,-0.347 0.533,-0.325 0.47,-0.316C0.501,-0.298 0.527,-0.278 0.547,-0.256C0.567,-0.234 0.595,-0.195 0.629,-0.14L0.717,-0L0.544,-0L0.439,-0.156C0.402,-0.211 0.377,-0.247 0.363,-0.261C0.35,-0.275 0.335,-0.285 0.32,-0.291C0.305,-0.296 0.28,-0.299 0.247,-0.299L0.218,-0.299L0.218,-0L0.073,-0ZM0.218,-0.413L0.325,-0.413C0.394,-0.413 0.437,-0.416 0.455,-0.422C0.472,-0.428 0.485,-0.438 0.495,-0.452C0.505,-0.466 0.51,-0.484 0.51,-0.506C0.51,-0.53 0.503,-0.549 0.49,-0.564C0.478,-0.579 0.459,-0.588 0.436,-0.592C0.424,-0.594 0.389,-0.595 0.331,-0.595L0.218,-0.595L0.218,-0.413Z" style="fill:white;fill-rule:nonzero;"/>
                </g>
                <g transform="matrix(227.556,0,0,227.556,869.389,797)">
                    <path d="M0.174,-0L0.003,-0.716L0.151,-0.716L0.259,-0.224L0.39,-0.716L0.562,-0.716L0.688,-0.216L0.797,-0.716L0.943,-0.716L0.769,-0L0.616,-0L0.473,-0.535L0.331,-0L0.174,-0Z" style="fill:white;fill-rule:nonzero;"/>
                </g>
                <g transform="matrix(227.556,0,0,227.556,1084.17,797)">
                    <path d="M0.073,-0L0.073,-0.716L0.604,-0.716L0.604,-0.595L0.217,-0.595L0.217,-0.436L0.577,-0.436L0.577,-0.315L0.217,-0.315L0.217,-0.121L0.617,-0.121L0.617,-0L0.073,-0Z" style="fill:white;fill-rule:nonzero;"/>
                </g>
                <g transform="matrix(227.556,0,0,227.556,1235.94,797)">
                    <path d="M0.073,-0.716L0.359,-0.716C0.416,-0.716 0.458,-0.713 0.486,-0.709C0.514,-0.704 0.539,-0.694 0.561,-0.679C0.583,-0.664 0.601,-0.644 0.616,-0.619C0.63,-0.594 0.638,-0.567 0.638,-0.536C0.638,-0.502 0.629,-0.471 0.611,-0.443C0.593,-0.415 0.568,-0.394 0.537,-0.38C0.581,-0.368 0.614,-0.346 0.638,-0.315C0.661,-0.285 0.673,-0.249 0.673,-0.208C0.673,-0.175 0.665,-0.143 0.65,-0.113C0.635,-0.082 0.614,-0.057 0.588,-0.039C0.562,-0.02 0.53,-0.009 0.491,-0.005C0.467,-0.002 0.409,-0.001 0.317,-0L0.073,-0L0.073,-0.716ZM0.218,-0.597L0.218,-0.431L0.313,-0.431C0.369,-0.431 0.404,-0.432 0.417,-0.434C0.442,-0.437 0.462,-0.445 0.476,-0.459C0.49,-0.473 0.497,-0.492 0.497,-0.515C0.497,-0.537 0.491,-0.555 0.479,-0.569C0.467,-0.583 0.448,-0.591 0.424,-0.594C0.41,-0.596 0.369,-0.597 0.301,-0.597L0.218,-0.597ZM0.218,-0.312L0.218,-0.121L0.352,-0.121C0.404,-0.121 0.437,-0.122 0.451,-0.125C0.472,-0.129 0.49,-0.138 0.503,-0.154C0.517,-0.169 0.523,-0.189 0.523,-0.214C0.523,-0.236 0.518,-0.254 0.508,-0.269C0.497,-0.284 0.482,-0.295 0.463,-0.302C0.443,-0.309 0.4,-0.312 0.334,-0.312L0.218,-0.312Z" style="fill:white;fill-rule:nonzero;"/>
                </g>
                <g transform="matrix(227.556,0,0,227.556,1400.28,797)">
                    <path d="M0.036,-0.233L0.177,-0.247C0.185,-0.199 0.202,-0.165 0.228,-0.143C0.254,-0.12 0.289,-0.109 0.333,-0.109C0.38,-0.109 0.415,-0.119 0.438,-0.139C0.462,-0.159 0.474,-0.182 0.474,-0.208C0.474,-0.225 0.469,-0.239 0.459,-0.251C0.449,-0.263 0.431,-0.273 0.407,-0.282C0.39,-0.288 0.351,-0.299 0.291,-0.313C0.214,-0.333 0.159,-0.356 0.128,-0.384C0.084,-0.424 0.062,-0.472 0.062,-0.528C0.062,-0.565 0.072,-0.599 0.093,-0.631C0.114,-0.662 0.143,-0.687 0.182,-0.703C0.221,-0.72 0.268,-0.728 0.323,-0.728C0.413,-0.728 0.481,-0.708 0.526,-0.669C0.572,-0.63 0.595,-0.577 0.598,-0.511L0.453,-0.505C0.447,-0.542 0.434,-0.568 0.413,-0.584C0.393,-0.6 0.362,-0.608 0.322,-0.608C0.28,-0.608 0.247,-0.6 0.223,-0.583C0.208,-0.571 0.2,-0.557 0.2,-0.538C0.2,-0.521 0.207,-0.507 0.222,-0.495C0.24,-0.479 0.284,-0.463 0.354,-0.447C0.425,-0.43 0.477,-0.413 0.51,-0.395C0.544,-0.378 0.571,-0.353 0.59,-0.323C0.609,-0.292 0.618,-0.254 0.618,-0.208C0.618,-0.167 0.607,-0.129 0.584,-0.093C0.561,-0.057 0.529,-0.031 0.487,-0.013C0.446,0.004 0.394,0.013 0.332,0.013C0.241,0.013 0.172,-0.008 0.123,-0.05C0.075,-0.092 0.046,-0.153 0.036,-0.233Z" style="fill:white;fill-rule:nonzero;"/>
                </g>
                <g transform="matrix(227.556,0,0,227.556,1552.06,797)">
                    <rect x="0.068" y="-0.716" width="0.145" height="0.716" style="fill:white;fill-rule:nonzero;"/>
                </g>
                <g transform="matrix(227.556,0,0,227.556,1615.28,797)">
                    <path d="M0.234,-0L0.234,-0.595L0.021,-0.595L0.021,-0.716L0.59,-0.716L0.59,-0.595L0.378,-0.595L0.378,-0L0.234,-0Z" style="fill:white;fill-rule:nonzero;"/>
                </g>
                <g transform="matrix(227.556,0,0,227.556,1754.28,797)">
                    <path d="M0.073,-0L0.073,-0.716L0.604,-0.716L0.604,-0.595L0.217,-0.595L0.217,-0.436L0.577,-0.436L0.577,-0.315L0.217,-0.315L0.217,-0.121L0.617,-0.121L0.617,-0L0.073,-0Z" style="fill:white;fill-rule:nonzero;"/>
                </g>
                <g transform="matrix(227.556,0,0,227.556,1969.28,797)">
                    <path d="M0.043,-0.354C0.043,-0.426 0.054,-0.488 0.076,-0.537C0.092,-0.574 0.115,-0.606 0.143,-0.635C0.171,-0.664 0.202,-0.686 0.235,-0.7C0.28,-0.719 0.331,-0.728 0.39,-0.728C0.495,-0.728 0.58,-0.695 0.643,-0.63C0.706,-0.564 0.738,-0.473 0.738,-0.357C0.738,-0.241 0.706,-0.151 0.644,-0.086C0.581,-0.02 0.497,0.012 0.392,0.012C0.285,0.012 0.201,-0.02 0.138,-0.085C0.075,-0.15 0.043,-0.24 0.043,-0.354ZM0.192,-0.358C0.192,-0.277 0.211,-0.216 0.249,-0.174C0.286,-0.132 0.333,-0.111 0.391,-0.111C0.449,-0.111 0.496,-0.132 0.533,-0.174C0.57,-0.215 0.588,-0.277 0.588,-0.36C0.588,-0.442 0.57,-0.504 0.534,-0.544C0.498,-0.584 0.451,-0.604 0.391,-0.604C0.332,-0.604 0.284,-0.584 0.247,-0.543C0.211,-0.502 0.192,-0.441 0.192,-0.358Z" style="fill:white;fill-rule:nonzero;"/>
                </g>
                <g transform="matrix(227.556,0,0,227.556,2146.28,797)">
                    <path d="M0.074,-0L0.074,-0.716L0.215,-0.716L0.508,-0.238L0.508,-0.716L0.642,-0.716L0.642,-0L0.497,-0L0.208,-0.467L0.208,-0L0.074,-0Z" style="fill:white;fill-rule:nonzero;"/>
                </g>
                <g transform="matrix(227.556,0,0,227.556,357.333,1032)">
                    <path d="M0.234,-0L0.234,-0.595L0.021,-0.595L0.021,-0.716L0.59,-0.716L0.59,-0.595L0.378,-0.595L0.378,-0L0.234,-0Z" style="fill:white;fill-rule:nonzero;"/>
                </g>
                <g transform="matrix(227.556,0,0,227.556,496.333,1032)">
                    <path d="M0.073,-0L0.073,-0.716L0.218,-0.716L0.218,-0.434L0.501,-0.434L0.501,-0.716L0.646,-0.716L0.646,-0L0.501,-0L0.501,-0.313L0.218,-0.313L0.218,-0L0.073,-0Z" style="fill:white;fill-rule:nonzero;"/>
                </g>
                <g transform="matrix(227.556,0,0,227.556,660.667,1032)">
                    <path d="M0.073,-0L0.073,-0.716L0.604,-0.716L0.604,-0.595L0.217,-0.595L0.217,-0.436L0.577,-0.436L0.577,-0.315L0.217,-0.315L0.217,-0.121L0.617,-0.121L0.617,-0L0.073,-0Z" style="fill:white;fill-rule:nonzero;"/>
                </g>
                <g transform="matrix(227.556,0,0,227.556,875.667,1032)">
                    <path d="M0.531,-0.263L0.671,-0.219C0.649,-0.141 0.614,-0.083 0.564,-0.045C0.514,-0.007 0.45,0.012 0.374,0.012C0.278,0.012 0.2,-0.02 0.139,-0.085C0.078,-0.15 0.047,-0.239 0.047,-0.352C0.047,-0.471 0.078,-0.563 0.14,-0.629C0.201,-0.695 0.282,-0.728 0.382,-0.728C0.47,-0.728 0.541,-0.702 0.596,-0.65C0.628,-0.62 0.653,-0.576 0.669,-0.519L0.526,-0.484C0.517,-0.521 0.5,-0.551 0.473,-0.572C0.446,-0.594 0.413,-0.604 0.375,-0.604C0.322,-0.604 0.279,-0.585 0.246,-0.547C0.213,-0.509 0.196,-0.448 0.196,-0.362C0.196,-0.272 0.213,-0.207 0.245,-0.169C0.278,-0.131 0.32,-0.111 0.372,-0.111C0.41,-0.111 0.444,-0.124 0.471,-0.148C0.499,-0.172 0.519,-0.211 0.531,-0.263Z" style="fill:white;fill-rule:nonzero;"/>
                </g>
                <g transform="matrix(227.556,0,0,227.556,1040,1032)">
                    <path d="M0.077,-0L0.077,-0.71L0.221,-0.71L0.221,-0.121L0.581,-0.121L0.581,-0L0.077,-0Z" style="fill:white;fill-rule:nonzero;"/>
                </g>
                <g transform="matrix(227.556,0,0,227.556,1179,1032)">
                    <path d="M0.073,-0L0.073,-0.716L0.604,-0.716L0.604,-0.595L0.217,-0.595L0.217,-0.436L0.577,-0.436L0.577,-0.315L0.217,-0.315L0.217,-0.121L0.617,-0.121L0.617,-0L0.073,-0Z" style="fill:white;fill-rule:nonzero;"/>
                </g>
                <g transform="matrix(227.556,0,0,227.556,1330.78,1032)">
                    <path d="M0.718,-0L0.561,-0L0.499,-0.163L0.212,-0.163L0.153,-0L0,-0L0.279,-0.716L0.432,-0.716L0.718,-0ZM0.452,-0.283L0.354,-0.549L0.257,-0.283L0.452,-0.283Z" style="fill:white;fill-rule:nonzero;"/>
                </g>
                <g transform="matrix(227.556,0,0,227.556,1495.11,1032)">
                    <path d="M0.074,-0L0.074,-0.716L0.215,-0.716L0.508,-0.238L0.508,-0.716L0.642,-0.716L0.642,-0L0.497,-0L0.208,-0.467L0.208,-0L0.074,-0Z" style="fill:white;fill-rule:nonzero;"/>
                </g>
                <g transform="matrix(227.556,0,0,227.556,1659.44,1032)">
                    <path d="M0.073,-0L0.073,-0.716L0.604,-0.716L0.604,-0.595L0.217,-0.595L0.217,-0.436L0.577,-0.436L0.577,-0.315L0.217,-0.315L0.217,-0.121L0.617,-0.121L0.617,-0L0.073,-0Z" style="fill:white;fill-rule:nonzero;"/>
                </g>
                <g transform="matrix(227.556,0,0,227.556,1811.22,1032)">
                    <path d="M0.036,-0.233L0.177,-0.247C0.185,-0.199 0.202,-0.165 0.228,-0.143C0.254,-0.12 0.289,-0.109 0.333,-0.109C0.38,-0.109 0.415,-0.119 0.438,-0.139C0.462,-0.159 0.474,-0.182 0.474,-0.208C0.474,-0.225 0.469,-0.239 0.459,-0.251C0.449,-0.263 0.431,-0.273 0.407,-0.282C0.39,-0.288 0.351,-0.299 0.291,-0.313C0.214,-0.333 0.159,-0.356 0.128,-0.384C0.084,-0.424 0.062,-0.472 0.062,-0.528C0.062,-0.565 0.072,-0.599 0.093,-0.631C0.114,-0.662 0.143,-0.687 0.182,-0.703C0.221,-0.72 0.268,-0.728 0.323,-0.728C0.413,-0.728 0.481,-0.708 0.526,-0.669C0.572,-0.63 0.595,-0.577 0.598,-0.511L0.453,-0.505C0.447,-0.542 0.434,-0.568 0.413,-0.584C0.393,-0.6 0.362,-0.608 0.322,-0.608C0.28,-0.608 0.247,-0.6 0.223,-0.583C0.208,-0.571 0.2,-0.557 0.2,-0.538C0.2,-0.521 0.207,-0.507 0.222,-0.495C0.24,-0.479 0.284,-0.463 0.354,-0.447C0.425,-0.43 0.477,-0.413 0.51,-0.395C0.544,-0.378 0.571,-0.353 0.59,-0.323C0.609,-0.292 0.618,-0.254 0.618,-0.208C0.618,-0.167 0.607,-0.129 0.584,-0.093C0.561,-0.057 0.529,-0.031 0.487,-0.013C0.446,0.004 0.394,0.013 0.332,0.013C0.241,0.013 0.172,-0.008 0.123,-0.05C0.075,-0.092 0.046,-0.153 0.036,-0.233Z" style="fill:white;fill-rule:nonzero;"/>
                </g>
                <g transform="matrix(227.556,0,0,227.556,1963,1032)">
                    <path d="M0.234,-0L0.234,-0.595L0.021,-0.595L0.021,-0.716L0.59,-0.716L0.59,-0.595L0.378,-0.595L0.378,-0L0.234,-0Z" style="fill:white;fill-rule:nonzero;"/>
                </g>
                <g transform="matrix(227.556,0,0,227.556,153,1267)">
                    <path d="M0.073,-0L0.073,-0.716L0.218,-0.716L0.218,-0.434L0.501,-0.434L0.501,-0.716L0.646,-0.716L0.646,-0L0.501,-0L0.501,-0.313L0.218,-0.313L0.218,-0L0.073,-0Z" style="fill:white;fill-rule:nonzero;"/>
                </g>
                <g transform="matrix(227.556,0,0,227.556,317.333,1267)">
                    <path d="M0.043,-0.354C0.043,-0.426 0.054,-0.488 0.076,-0.537C0.092,-0.574 0.115,-0.606 0.143,-0.635C0.171,-0.664 0.202,-0.686 0.235,-0.7C0.28,-0.719 0.331,-0.728 0.39,-0.728C0.495,-0.728 0.58,-0.695 0.643,-0.63C0.706,-0.564 0.738,-0.473 0.738,-0.357C0.738,-0.241 0.706,-0.151 0.644,-0.086C0.581,-0.02 0.497,0.012 0.392,0.012C0.285,0.012 0.201,-0.02 0.138,-0.085C0.075,-0.15 0.043,-0.24 0.043,-0.354ZM0.192,-0.358C0.192,-0.277 0.211,-0.216 0.249,-0.174C0.286,-0.132 0.333,-0.111 0.391,-0.111C0.449,-0.111 0.496,-0.132 0.533,-0.174C0.57,-0.215 0.588,-0.277 0.588,-0.36C0.588,-0.442 0.57,-0.504 0.534,-0.544C0.498,-0.584 0.451,-0.604 0.391,-0.604C0.332,-0.604 0.284,-0.584 0.247,-0.543C0.211,-0.502 0.192,-0.441 0.192,-0.358Z" style="fill:white;fill-rule:nonzero;"/>
                </g>
                <g transform="matrix(227.556,0,0,227.556,494.333,1267)">
                    <path d="M0.036,-0.233L0.177,-0.247C0.185,-0.199 0.202,-0.165 0.228,-0.143C0.254,-0.12 0.289,-0.109 0.333,-0.109C0.38,-0.109 0.415,-0.119 0.438,-0.139C0.462,-0.159 0.474,-0.182 0.474,-0.208C0.474,-0.225 0.469,-0.239 0.459,-0.251C0.449,-0.263 0.431,-0.273 0.407,-0.282C0.39,-0.288 0.351,-0.299 0.291,-0.313C0.214,-0.333 0.159,-0.356 0.128,-0.384C0.084,-0.424 0.062,-0.472 0.062,-0.528C0.062,-0.565 0.072,-0.599 0.093,-0.631C0.114,-0.662 0.143,-0.687 0.182,-0.703C0.221,-0.72 0.268,-0.728 0.323,-0.728C0.413,-0.728 0.481,-0.708 0.526,-0.669C0.572,-0.63 0.595,-0.577 0.598,-0.511L0.453,-0.505C0.447,-0.542 0.434,-0.568 0.413,-0.584C0.393,-0.6 0.362,-0.608 0.322,-0.608C0.28,-0.608 0.247,-0.6 0.223,-0.583C0.208,-0.571 0.2,-0.557 0.2,-0.538C0.2,-0.521 0.207,-0.507 0.222,-0.495C0.24,-0.479 0.284,-0.463 0.354,-0.447C0.425,-0.43 0.477,-0.413 0.51,-0.395C0.544,-0.378 0.571,-0.353 0.59,-0.323C0.609,-0.292 0.618,-0.254 0.618,-0.208C0.618,-0.167 0.607,-0.129 0.584,-0.093C0.561,-0.057 0.529,-0.031 0.487,-0.013C0.446,0.004 0.394,0.013 0.332,0.013C0.241,0.013 0.172,-0.008 0.123,-0.05C0.075,-0.092 0.046,-0.153 0.036,-0.233Z" style="fill:white;fill-rule:nonzero;"/>
                </g>
                <g transform="matrix(227.556,0,0,227.556,646.111,1267)">
                    <path d="M0.234,-0L0.234,-0.595L0.021,-0.595L0.021,-0.716L0.59,-0.716L0.59,-0.595L0.378,-0.595L0.378,-0L0.234,-0Z" style="fill:white;fill-rule:nonzero;"/>
                </g>
                <g transform="matrix(227.556,0,0,227.556,785.111,1267)">
                    <rect x="0.068" y="-0.716" width="0.145" height="0.716" style="fill:white;fill-rule:nonzero;"/>
                </g>
                <g transform="matrix(227.556,0,0,227.556,848.333,1267)">
                    <path d="M0.074,-0L0.074,-0.716L0.215,-0.716L0.508,-0.238L0.508,-0.716L0.642,-0.716L0.642,-0L0.497,-0L0.208,-0.467L0.208,-0L0.074,-0Z" style="fill:white;fill-rule:nonzero;"/>
                </g>
                <g transform="matrix(227.556,0,0,227.556,1012.67,1267)">
                    <path d="M0.406,-0.263L0.406,-0.384L0.717,-0.384L0.717,-0.099C0.687,-0.069 0.643,-0.044 0.586,-0.021C0.528,0.001 0.47,0.012 0.411,0.012C0.336,0.012 0.271,-0.003 0.215,-0.035C0.16,-0.066 0.118,-0.111 0.09,-0.17C0.062,-0.228 0.048,-0.292 0.048,-0.36C0.048,-0.435 0.063,-0.501 0.095,-0.559C0.126,-0.617 0.172,-0.661 0.232,-0.692C0.278,-0.716 0.335,-0.728 0.403,-0.728C0.492,-0.728 0.562,-0.709 0.612,-0.672C0.662,-0.635 0.694,-0.583 0.708,-0.518L0.564,-0.491C0.554,-0.526 0.535,-0.554 0.508,-0.574C0.48,-0.594 0.445,-0.604 0.403,-0.604C0.34,-0.604 0.29,-0.584 0.253,-0.544C0.215,-0.504 0.197,-0.445 0.197,-0.366C0.197,-0.281 0.216,-0.218 0.253,-0.175C0.291,-0.133 0.341,-0.111 0.402,-0.111C0.432,-0.111 0.462,-0.117 0.493,-0.129C0.523,-0.141 0.549,-0.155 0.571,-0.172L0.571,-0.263L0.406,-0.263Z" style="fill:white;fill-rule:nonzero;"/>
                </g>
                <g transform="matrix(227.556,0,0,227.556,1244.44,1267)">
                    <path d="M0.718,-0L0.561,-0L0.499,-0.163L0.212,-0.163L0.153,-0L0,-0L0.279,-0.716L0.432,-0.716L0.718,-0ZM0.452,-0.283L0.354,-0.549L0.257,-0.283L0.452,-0.283Z" style="fill:white;fill-rule:nonzero;"/>
                </g>
                <g transform="matrix(227.556,0,0,227.556,1408.78,1267)">
                    <path d="M0.073,-0L0.073,-0.716L0.377,-0.716C0.454,-0.716 0.51,-0.709 0.544,-0.697C0.579,-0.684 0.607,-0.661 0.627,-0.628C0.648,-0.595 0.659,-0.557 0.659,-0.515C0.659,-0.461 0.643,-0.417 0.611,-0.382C0.58,-0.347 0.533,-0.325 0.47,-0.316C0.501,-0.298 0.527,-0.278 0.547,-0.256C0.567,-0.234 0.595,-0.195 0.629,-0.14L0.717,-0L0.544,-0L0.439,-0.156C0.402,-0.211 0.377,-0.247 0.363,-0.261C0.35,-0.275 0.335,-0.285 0.32,-0.291C0.305,-0.296 0.28,-0.299 0.247,-0.299L0.218,-0.299L0.218,-0L0.073,-0ZM0.218,-0.413L0.325,-0.413C0.394,-0.413 0.437,-0.416 0.455,-0.422C0.472,-0.428 0.485,-0.438 0.495,-0.452C0.505,-0.466 0.51,-0.484 0.51,-0.506C0.51,-0.53 0.503,-0.549 0.49,-0.564C0.478,-0.579 0.459,-0.588 0.436,-0.592C0.424,-0.594 0.389,-0.595 0.331,-0.595L0.218,-0.595L0.218,-0.413Z" style="fill:white;fill-rule:nonzero;"/>
                </g>
                <g transform="matrix(227.556,0,0,227.556,1573.11,1267)">
                    <path d="M0.043,-0.354C0.043,-0.426 0.054,-0.488 0.076,-0.537C0.092,-0.574 0.115,-0.606 0.143,-0.635C0.171,-0.664 0.202,-0.686 0.235,-0.7C0.28,-0.719 0.331,-0.728 0.39,-0.728C0.495,-0.728 0.58,-0.695 0.643,-0.63C0.706,-0.564 0.738,-0.473 0.738,-0.357C0.738,-0.241 0.706,-0.151 0.644,-0.086C0.581,-0.02 0.497,0.012 0.392,0.012C0.285,0.012 0.201,-0.02 0.138,-0.085C0.075,-0.15 0.043,-0.24 0.043,-0.354ZM0.192,-0.358C0.192,-0.277 0.211,-0.216 0.249,-0.174C0.286,-0.132 0.333,-0.111 0.391,-0.111C0.449,-0.111 0.496,-0.132 0.533,-0.174C0.57,-0.215 0.588,-0.277 0.588,-0.36C0.588,-0.442 0.57,-0.504 0.534,-0.544C0.498,-0.584 0.451,-0.604 0.391,-0.604C0.332,-0.604 0.284,-0.584 0.247,-0.543C0.211,-0.502 0.192,-0.441 0.192,-0.358Z" style="fill:white;fill-rule:nonzero;"/>
                </g>
                <g transform="matrix(227.556,0,0,227.556,1750.11,1267)">
                    <path d="M0.072,-0.716L0.216,-0.716L0.216,-0.328C0.216,-0.267 0.218,-0.227 0.222,-0.208C0.228,-0.179 0.243,-0.156 0.266,-0.138C0.289,-0.12 0.321,-0.111 0.361,-0.111C0.402,-0.111 0.433,-0.12 0.454,-0.136C0.475,-0.153 0.487,-0.174 0.492,-0.198C0.496,-0.223 0.498,-0.263 0.498,-0.32L0.498,-0.716L0.643,-0.716L0.643,-0.34C0.643,-0.254 0.639,-0.193 0.631,-0.158C0.623,-0.122 0.609,-0.092 0.588,-0.068C0.567,-0.043 0.539,-0.024 0.503,-0.01C0.468,0.005 0.422,0.012 0.366,0.012C0.297,0.012 0.246,0.004 0.21,-0.011C0.175,-0.027 0.147,-0.048 0.126,-0.073C0.106,-0.098 0.092,-0.125 0.086,-0.152C0.076,-0.193 0.072,-0.254 0.072,-0.334L0.072,-0.716Z" style="fill:white;fill-rule:nonzero;"/>
                </g>
                <g transform="matrix(227.556,0,0,227.556,1914.44,1267)">
                    <path d="M0.074,-0L0.074,-0.716L0.215,-0.716L0.508,-0.238L0.508,-0.716L0.642,-0.716L0.642,-0L0.497,-0L0.208,-0.467L0.208,-0L0.074,-0Z" style="fill:white;fill-rule:nonzero;"/>
                </g>
                <g transform="matrix(227.556,0,0,227.556,2078.78,1267)">
                    <path d="M0.072,-0.716L0.336,-0.716C0.396,-0.716 0.441,-0.711 0.473,-0.702C0.515,-0.69 0.551,-0.668 0.581,-0.636C0.611,-0.605 0.633,-0.566 0.649,-0.52C0.665,-0.475 0.672,-0.418 0.672,-0.351C0.672,-0.292 0.665,-0.241 0.65,-0.199C0.632,-0.147 0.607,-0.104 0.574,-0.072C0.549,-0.048 0.515,-0.029 0.472,-0.015C0.44,-0.005 0.398,-0 0.344,-0L0.072,-0L0.072,-0.716ZM0.217,-0.595L0.217,-0.121L0.325,-0.121C0.365,-0.121 0.394,-0.123 0.412,-0.127C0.436,-0.133 0.455,-0.143 0.47,-0.157C0.486,-0.171 0.499,-0.194 0.508,-0.226C0.518,-0.258 0.523,-0.302 0.523,-0.357C0.523,-0.413 0.518,-0.455 0.508,-0.485C0.499,-0.514 0.485,-0.538 0.467,-0.554C0.45,-0.571 0.427,-0.582 0.4,-0.588C0.38,-0.592 0.341,-0.595 0.282,-0.595L0.217,-0.595Z" style="fill:white;fill-rule:nonzero;"/>
                </g>
                <g transform="matrix(227.556,0,0,227.556,2243.11,1267)">
                    <rect x="0.072" y="-0.137" width="0.137" height="0.137" style="fill:white;fill-rule:nonzero;"/>
                </g>
            </g>
        </g>
    </g>
</svg>
